<?xml version="1.0"?>
<svg xmlns="http://www.w3.org/2000/svg" viewBox="0 0 371.22 562.15">
  <defs>
    <style>.a{fill:#333;}</style>
  </defs>
  <title>bbb-logo</title>
  <polygon class="a" points="281.57 352.25 66.14 352.25 58.32 377.99 115.72 377.99 126.68 413.52 221.06 413.52 231.98 377.99 289.39 377.99 281.57 352.25"/>
  <path class="a" d="M101.3,207.59a50.9,50.9,0,0,0,11.32,71.12l51.56,37.45a12.58,12.58,0,0,1,5.1,8.31A12.7,12.7,0,0,1,167,334l7.78,5.62L202,302a50.56,50.56,0,0,0,9.71-29.8,51.83,51.83,0,0,0-.64-8.11,50.65,50.65,0,0,0-20.4-33.21l-51.56-37.46a12.66,12.66,0,0,1-5.1-8.3,13,13,0,0,1-.17-2,12.64,12.64,0,0,1,2.42-7.43h0L128.54,170S101.3,207.59,101.3,207.59Z"/>
  <path class="a" d="M132.37,57a73.33,73.33,0,0,0-14.08,43.21,74.16,74.16,0,0,0,.93,11.76,73.41,73.41,0,0,0,29.59,48.17l64.8,46.93a39.34,39.34,0,0,1,15.86,25.81,40.6,40.6,0,0,1,.5,6.29,39.31,39.31,0,0,1-7.55,23.16h0l6.2,4.51,51.06-70.57A73.84,73.84,0,0,0,263.25,93.15L185,36.3a22.75,22.75,0,0,1-5.07-31.8L173.71,0Z"/>
  <path class="a" d="M0,435H59c14.52,0,26,4,33.23,11.27,5.81,5.81,8.71,12.89,8.71,21.61v.36c0,14.35-7.62,22.34-16.7,27.42,14.71,5.64,23.79,14.17,23.79,31.24v.37c0,23.23-18.89,34.87-47.58,34.87H0Zm53,51.4c12.35,0,20.15-4,20.15-13.44v-.36c0-8.35-6.53-13.07-18.34-13.07H27.24v26.87Zm7.44,51.21c12.35,0,19.8-4.36,19.8-13.8v-.36c0-8.54-6.36-13.81-20.71-13.81H27.24v28Z"/>
  <path class="a" d="M120.22,435h59c14.54,0,26,4,33.24,11.27,5.8,5.81,8.71,12.89,8.71,21.61v.36c0,14.35-7.62,22.34-16.71,27.42,14.71,5.64,23.79,14.17,23.79,31.24v.37c0,23.23-18.88,34.87-47.58,34.87H120.22Zm53,51.4c12.36,0,20.16-4,20.16-13.44v-.36c0-8.35-6.53-13.07-18.34-13.07H147.45v26.87Zm7.45,51.21c12.35,0,19.8-4.36,19.8-13.8v-.36c0-8.54-6.36-13.81-20.71-13.81H147.45v28Z"/>
  <path class="a" d="M240.44,435h59c14.52,0,26,4,33.24,11.27,5.81,5.81,8.71,12.89,8.71,21.61v.36c0,14.35-7.62,22.34-16.71,27.42,14.72,5.64,23.8,14.17,23.8,31.24v.37c0,23.23-18.89,34.87-47.59,34.87H240.44Zm53,51.4c12.34,0,20.15-4,20.15-13.44v-.36c0-8.35-6.54-13.07-18.34-13.07h-27.6v26.87Zm7.44,51.21c12.35,0,19.8-4.36,19.8-13.8v-.36c0-8.54-6.36-13.81-20.71-13.81H267.68v28Z"/>
  <path class="a" d="M359.81,560.82a11.38,11.38,0,1,1,11.41-11.41A11.31,11.31,0,0,1,359.81,560.82Zm.07-21.49a10.12,10.12,0,1,0,10,10.08A10,10,0,0,0,359.88,539.33Zm2.79,11.49,3,4.34h-3.11l-2.58-3.89h-2.11v3.89h-2.67V543.07h5.38c2.89,0,4.74,1.47,4.74,4A3.76,3.76,0,0,1,362.67,550.82Zm-2.23-5.4h-2.61V549h2.67c1.36,0,2.08-.72,2.08-1.76C362.58,546,361.76,545.42,360.44,545.42Z"/>
</svg>
