<?xml version="1.0"?>
<svg xmlns="http://www.w3.org/2000/svg" viewBox="0 0 1409.98 461.65">
  <defs>
    <style>.a{fill:#333;}</style>
  </defs>
  <title>imagine-canada-logo</title>
  <path class="a" d="M1011.77,295.33c-5.58-7.37-9.45-5-9.89-4.95s-12.5,6.5-12.5,6.5c-8.54,5.6-4.81,12.8-4.81,12.8l35,68.76L832.7,384l-167.35,4.95-19.59.57,70.41-127.66L822.9,68.34c5.21-9.43,4.19-24.14-2.26-32.72L798.33,5.82C791.9-2.75,783.16-1.76,779,8.14L591.34,446.06c-4.26,9.86,1,16.8,11.68,15.42l126.65-16.3L1073.15,401c10.65-1.37,14.06-9.48,7.54-18Z"/>
  <path class="a" d="M875.78,262.86c13.22,0,26.29-3,36.85-8.33l.91-.47V212.31h-8.39l-.29,1.28c-8.61,35-16.87,41.61-29.08,41.61-20.86,0-33.73-10.76-33.73-64.24,0-56.92,17.1-64.22,32-64.22l1.51,0c11.24,0,16.84-.07,28.16,34.48l.39,1.2h8.32V127l-1-.45A85.2,85.2,0,0,0,875.78,119c-36.25,0-61.54,29.58-61.54,71.92s25.29,71.9,61.54,71.9"/>
  <path class="a" d="M1303.15,121.67h-32V130h9.44v34.87a25.56,25.56,0,0,0-20.79-10.63c-19.43,0-39.08,16.86-39.08,54.6,0,35.6,19.47,54.19,38.68,54.19,10.09,0,17.47-3.44,22.38-10.06v7h30.87v-8.34h-9.48Zm-39.83,133c-8.89,0-18.06-5.23-18.06-44.12,0-41.25,8.85-46.8,17.49-46.8,12.6,0,19,15.72,19,46.8,0,20.1-3.21,44.12-18.44,44.12"/>
  <path class="a" d="M958.31,263a32.66,32.66,0,0,0,27.48-14.24V260h30.38v-8.45H1007V181.91a23.38,23.38,0,0,0-7.09-16.51c-4.66-4.62-13.61-10.17-29.84-10.17-11.14,0-21.11,3.42-30.19,7.08l-1.33.5V189h7.85l.51-1.44c9.53-27.79,13-23.88,24.32-23.88,4.86,0,8.51,1.19,10.9,3.62s3.7,6.25,3.7,11.36v15.7c-6,3.25-14.08,4.73-22,6.09-17.33,3-36.88,9.62-36.88,33.79,0,8.14,2.71,15.11,7.78,20.2,5.62,5.65,13.83,8.6,23.58,8.6m12.19-54.58a105.72,105.72,0,0,0,15.29-4.64V215.2c0,19.74-8.84,36.38-21.95,36.72-4.19,0-7.27-1-9.33-3.1-2.74-2.72-4.08-7.49-4.08-14.58,0-17.74,7.12-22.65,20.07-25.78"/>
  <path class="a" d="M1400.76,251.51V181.9a23.41,23.41,0,0,0-7.12-16.51c-4.66-4.6-13.57-10.16-29.81-10.16-11.15,0-21.1,3.41-30.19,7.09l-1.34.49V189h7.86l.49-1.42c9.59-27.81,13-23.89,24.32-23.89,4.83,0,8.52,1.19,10.94,3.62s3.69,6.26,3.69,11.35v15.71c-6,3.25-14.1,4.73-22,6.09-17.27,3-36.85,9.63-36.85,33.8,0,8.13,2.71,15.09,7.77,20.2,5.66,5.64,13.8,8.6,23.58,8.6a32.69,32.69,0,0,0,27.48-14.26V260H1410v-8.45Zm-21.16-36.32c0,19.75-8.8,36.38-22,36.74-4.19,0-7.26-1.05-9.36-3.11-2.71-2.72-4-7.5-4-14.57,0-17.76,7.11-22.65,20-25.79a102.77,102.77,0,0,0,15.3-4.65Z"/>
  <path class="a" d="M1109.9,185.54c0-10.3-2.59-18.1-7.68-23.19-4.71-4.71-11.6-7.12-20.4-7.12a31.93,31.93,0,0,0-25.4,12v-8.89h-31.1v8.46h10.37v84.77h-10.37V260h43.8v-8.45H1058V193.41c0-9.95,2.52-17.67,7.21-22.4a15.41,15.41,0,0,1,11-4.63c3.57,0,6,.78,7.69,2.5,2.46,2.45,3.65,7.13,3.65,14.39v68.25h-11.13V260h43.83v-8.45H1109.9Z"/>
  <path class="a" d="M1207.68,181.9a23.18,23.18,0,0,0-7.14-16.51c-4.61-4.6-13.55-10.16-29.79-10.16-11.15,0-21.09,3.41-30.2,7.09l-1.28.49V189h7.78l.51-1.42c9.57-27.81,13-23.89,24.35-23.89,4.91,0,8.53,1.19,10.91,3.62s3.69,6.26,3.69,11.35v15.71c-6,3.25-14.06,4.73-22,6.09-17.27,3-36.82,9.63-36.82,33.8,0,8.13,2.66,15.09,7.73,20.2,5.67,5.64,13.83,8.6,23.6,8.6a32.72,32.72,0,0,0,27.46-14.26V260h30.4v-8.45h-9.23Zm-21.17,33.29c0,19.75-8.81,36.38-22,36.74-4.18,0-7.24-1.05-9.33-3.11-2.74-2.72-4-7.5-4-14.57,0-17.76,7.12-22.65,20.07-25.79a102.58,102.58,0,0,0,15.28-4.65Z"/>
  <path class="a" d="M422.61,151.81a13.15,13.15,0,0,0,9.39-3.75,13.52,13.52,0,0,0,0-18.61,13.1,13.1,0,0,0-9.39-3.74,12.78,12.78,0,0,0-13.08,13,13,13,0,0,0,3.69,9.3,13.25,13.25,0,0,0,9.39,3.75"/>
  <polygon class="a" points="0 131.46 11.57 131.46 11.57 251.52 0 251.52 0 259.97 48.07 259.97 48.07 251.52 36.53 251.52 36.53 131.46 48.07 131.46 48.07 123.02 0 123.02 0 131.46"/>
  <path class="a" d="M192.44,184.23c0-9.09-2.56-16.29-7.56-21.32s-12.46-7.68-21.44-7.68c-11.05,0-19.24,4.26-24.89,13-4.77-7.71-14.34-13-24.32-13s-17.7,3.56-23.3,10.72v-7.66H61.36v8.46h8v84.77H59.42V260h42.27v-8.45h-10V193.77c0-10.54,2.44-18.57,7-23.16a14.28,14.28,0,0,1,10.49-4.23,8.94,8.94,0,0,1,6.69,2.39c2.53,2.6,3.86,7.4,3.86,14.25v68.5h-10V260h42.29v-8.45h-10V193.77c0-10.54,2.41-18.57,7-23.16a14.2,14.2,0,0,1,10.48-4.23,8.89,8.89,0,0,1,6.65,2.39c2.59,2.6,3.89,7.4,3.89,14.25v68.5h-10V260h42.34v-8.45h-10Z"/>
  <path class="a" d="M433.76,158.3H370.61c-4.41-2.1-13.74-3.06-18.3-3.06-21,0-39.37,14.44-39.37,33.59,0,8.07,2.16,15.7,5.84,21.14-10.21,3.56-15.89,15.45-15.89,25.24,0,10.33,7.74,18.24,16.48,22-4.63,2.82-9.23,11.92-9.23,18.3,0,4.61,2.18,9.37,6.14,13.32,7.64,7.62,21,11.83,37.51,11.83,14.21,0,26.64-4.62,35-13,5.83-5.79,9-17.14,9-24.29s-2-12.53-6.12-16.52c-8.69-8.63-30-8.51-45.5-8.38-12.43.12-21.59.19-26.36-4.58a8.38,8.38,0,0,1-2.37-6.36c0-2.12.42-5,2.37-6.9,2.33-2.34,3.69-3.25,6.27-3.25a5.86,5.86,0,0,1,1.52.91c3,2.06,11.29,6,25,6,10.39,0,22.45-3.72,29.17-10.41a33.66,33.66,0,0,0,9.82-24.11c0-8.5-2.85-16.56-7.48-21.85h27.27v83.58h-9.22V260H443v-8.45h-9.26ZM332.13,260l35.45.75c14.45.4,15.63,8.54,15.63,13.61,0,8.6-11.85,17.84-30.95,17.84-8.87,0-16.71-2.74-21.45-7.49-2.66-2.63-4.14-5.67-4.14-8.6,0-5.1,2.13-13.88,5.46-16.11m20.18-44.16c-4.21,0-9.54-.78-11.35-2.61-3.21-3.18-4.6-10.18-4.6-23.44,0-12.43,1.66-19.85,5.15-23.35,1.88-1.86,7.12-2.75,10.8-2.75s8.87.89,10.75,2.75c3.5,3.5,5.15,10.92,5.15,23.35,0,24.1-8.91,26.05-15.9,26.05"/>
  <path class="a" d="M536.88,185.54c0-10.3-2.58-18.1-7.7-23.19-4.71-4.71-11.55-7.12-20.37-7.12a31.87,31.87,0,0,0-25.37,12v-8.9H452.31v8.46h10.35v84.77H452.31V260h43.8v-8.45H485V193.41c0-9.95,2.5-17.69,7.23-22.4a15.3,15.3,0,0,1,11-4.63c3.54,0,6,.78,7.72,2.48,2.45,2.47,3.62,7.14,3.62,14.4v68.26H503.41V260h43.83v-8.45H536.88Z"/>
  <path class="a" d="M289.89,181.91a23.26,23.26,0,0,0-7.09-16.52c-4.64-4.6-13.59-10.16-29.81-10.16-11.14,0-21.12,3.41-30.24,7.08l-1.3.5V189h7.87l.5-1.42c9.53-27.81,13-23.89,24.31-23.89,4.85,0,8.5,1.19,10.89,3.62s3.72,6.26,3.72,11.35v15.71c-5.94,3.25-14.1,4.73-22,6.09-17.29,3-36.83,9.63-36.83,33.8,0,8.15,2.68,15.09,7.77,20.2,5.64,5.64,13.8,8.6,23.57,8.6a32.71,32.71,0,0,0,27.49-14.26V260h30.4v-8.45h-9.25Zm-21.15,33.28c0,19.75-8.81,36.38-21.94,36.74-4.18,0-7.26-1-9.38-3.11-2.68-2.72-4-7.5-4-14.57,0-17.76,7.13-22.65,20-25.79a101.35,101.35,0,0,0,15.31-4.65Z"/>
  <path class="a" d="M636.18,224.14l.05-2.2h-8.35l-.17,2c-1.71,21-12.44,29.54-27.22,29.54a14.53,14.53,0,0,1-11.06-4.56c-6.61-6.66-10-18.54-10-40.57,0-1.24,0-2.44.09-3.63h57.21v-2.12c0-14.89-4.18-29.52-12-37.34-6.54-6.53-15.61-10-26.13-10-24.77,0-43.44,23.19-43.44,53.92,0,17.29,5.44,32.26,15.3,42.09,7.76,7.72,17,11.79,28,11.79,20.91,0,36.69-13.25,37.63-38.89m-37.93-60.46a11.54,11.54,0,0,1,8.57,3.25c3.79,3.72,5.7,13.53,5.7,23.93v5.39H580c1.28-14.14,5.53-32.57,18.26-32.57"/>
</svg>
