<?xml version="1.0"?>
<svg xmlns="http://www.w3.org/2000/svg" viewBox="0 0 408.13 409.43">
  <defs>
    <style>.a{fill:#333;}</style>
  </defs>
  <title>ccc-logo</title>
  <path class="a" d="M62.26,204c0-78.61,64-142.56,142.56-142.56A142.32,142.32,0,0,1,346,185H364.2A159.87,159.87,0,0,0,204.82,43.35C116.24,43.36,44.17,115.42,44.17,204s72.07,160.64,160.65,160.64A159.83,159.83,0,0,0,364.19,223H346A142.31,142.31,0,0,1,204.82,346.55c-78.61,0-142.56-63.94-142.56-142.55"/>
  <path class="a" d="M331.71,185a128.23,128.23,0,0,0-255,19c0,70.75,57.56,128.3,128.32,128.3A128.23,128.23,0,0,0,331.71,223H312.58c-9.13,51.69-54.83,90.35-107.6,90.35a109.38,109.38,0,0,1,0-218.76c52.77,0,98.47,38.66,107.6,90.35Z"/>
  <path class="a" d="M297.35,185a94.26,94.26,0,1,0,0,38.06H278c-8.6,32.74-38.64,56.3-72.69,56.3a75.34,75.34,0,1,1,0-150.67c34,0,64.09,23.57,72.68,56.31Z"/>
  <path class="a" d="M242.05,185h20.72a60.24,60.24,0,1,0,0,38.05H242.05a41,41,0,1,1,0-38.06"/>
  <path class="a" d="M35,294.3a5.36,5.36,0,1,1-5.35-5.36A5.35,5.35,0,0,1,35,294.3"/>
  <path class="a" d="M382.35,295.17a5.35,5.35,0,1,1-5.35-5.35,5.35,5.35,0,0,1,5.35,5.35"/>
  <path class="a" d="M32.42,315.06c.19-.72,1.53-2.06,2.93-3a.59.59,0,0,1,.56.63c-.86,1.18-2.42,4-.92,6.21,1.16,1.7,2.84,2,4.21,1s1.88-2.18,1.67-4.49l-.12-1.33c-.21-2.32.14-4.72,2.15-6.1,2.22-1.51,5.22-1.14,7.45,2.12A17.74,17.74,0,0,1,52,313.51a11.19,11.19,0,0,1-2.7,2.53c-.27,0-.57-.36-.55-.67.93-1.13,1.89-2.93.59-4.83a2.75,2.75,0,0,0-4.07-.92c-.94.64-1.5,2-1.27,4l.21,1.89c.24,2,0,4.53-2.31,6.07-2.54,1.75-5.67,1.05-7.89-2.2a8,8,0,0,1-1.57-4.3"/>
  <path class="a" d="M52.81,320.89c2.23-1.82,2.16-2.07,1.48-3.16l-.23-.37c0-.27.42-.55.64-.46.61.83,1.39,1.84,2.14,2.76l3.27,4c1.09,1.34,2.1,2.54,2.36,2.78-.28.37-1.84,1.85-2.64,2.71-.23,0-.62-.33-.63-.6.95-1.33,1.2-2.05.83-2.88a8.71,8.71,0,0,0-1.18-1.83l-1.14-1.41c-.73-.9-.77-.87-2,.11l-3.55,2.89c-.54.44-.54.48-.15,1l.82,1c1.48,1.83,1.76,2.12,2.82,1.58l.83-.44c.29.05.61.45.53.69-.59.44-1.38,1-2.15,1.64s-1.5,1.3-2.15,1.87c-.24,0-.56-.39-.57-.66l.72-.83c.76-.87.51-1.25-1-3.08l-.82-1c-.39-.48-.45-.47-1,0l-2.66,2.17c-1.08.87-1.8,1.53-1.9,2.14s.06,1,1.47,2.75c2.15,2.67,3.11,2.65,5.41,2a.66.66,0,0,1,.43.78,17.3,17.3,0,0,1-3.77,1.59c-.71-.95-2.15-2.77-4.15-5.22l-2-2.4c-.75-.92-1.82-2.18-2.63-3.09-.06-.24.31-.57.57-.54l.72.71c.91.9,1.12,1,3.35-.77Z"/>
  <path class="a" d="M61.24,341.75c-.49-.5-.48-.48-1.17-.14L57,343.11c-1.52.74-1.48.86-.89,1.68l.46.65c0,.27-.37.6-.6.52-.57-.65-1.2-1.29-2-2.1-.63-.63-1.24-1.21-2-1.84a.61.61,0,0,1,.54-.57l.67.48a1.66,1.66,0,0,0,1.93.17c.73-.25,1.85-.75,3.28-1.38l9.45-4.15a4.72,4.72,0,0,0,1.76-1,4.88,4.88,0,0,0,2.26.43.54.54,0,0,1,.17.48c-.56,1.16-1.22,2.3-1.78,3.47L65,350.68c-.85,1.72-.87,1.93-.08,3.1l.22.35c0,.28-.31.61-.54.57-.74-.83-1.43-1.56-2.42-2.56-.82-.82-1.7-1.63-2.38-2.28a.62.62,0,0,1,.5-.62l.48.37c.78.6,1,.58,1.51-.51L64,345.61c.34-.69.27-.76-.27-1.31Zm3.15,1.45c.53.53.65.58,1,0l1.51-3.09a17,17,0,0,0,1-2l0,0c-.21.05-.86.36-2.09.92l-3,1.42c-.75.37-.71.41-.25.87Z"/>
  <path class="a" d="M74.49,357.12c-.87,1-1.45,1.82-1.44,2.44s.2.94,1.86,2.33c2.3,1.92,2.72,2.1,5.46.76a.73.73,0,0,1,.54.67,25.66,25.66,0,0,1-3.39,2.27c-.84-.77-2.6-2.28-4.93-4.23l-2.15-1.8c-1.06-.89-2.12-1.74-3-2.43-.1-.22.19-.69.46-.64l.71.42c1.11.65,1.32.79,3.12-1.37l6.47-7.72c1.81-2.15,1.67-2.37.82-3.34l-.51-.56c-.06-.23.28-.65.54-.57,1,.91,1.92,1.71,2.87,2.51s1.86,1.52,2.81,2.25c.12.24-.2.67-.45.64l-.54-.3c-1.11-.65-1.33-.77-3.14,1.39Z"/>
  <path class="a" d="M110.42,376.67a9.19,9.19,0,0,1-13,3c-5.23-3.17-6-8.68-3.5-12.79a9.32,9.32,0,0,1,13.27-3.18c5.34,3.24,5.76,8.76,3.21,13m-12.93-8.54c-1.93,3.18-3.21,8.36.74,10.77,2.64,1.6,6,.93,8.79-3.73,2.12-3.49,3-8.49-.67-10.72-2.32-1.41-5.86-1.25-8.86,3.68"/>
  <path class="a" d="M125.19,373.8c1.56.74,2.93,1.38,3.47,1.58-.26.54-1.14,2.37-1.64,3.54-.19.14-.66,0-.83-.28.44-1.54.39-2.43-.42-3.12a9,9,0,0,0-2-1.18l-1.25-.6c-1-.49-1-.44-1.7.92L118.76,379c-.28.61-.28.67.27.94l1.44.69c2.12,1,2.51,1.15,3.25.25l.6-.74c.22-.1.69.12.71.38-.33.61-.81,1.5-1.24,2.39s-.81,1.81-1.15,2.58a.62.62,0,0,1-.74-.33l.26-1c.27-1.13-.1-1.37-2.22-2.39l-1.44-.7c-.56-.26-.6-.22-.9.38L116,384.85c-1.24,2.59-1,2.72,0,3.42l1,.61c.08.25-.15.68-.39.69-1.54-.8-2.62-1.35-3.7-1.87s-2.18-1-3.33-1.51c-.14-.19,0-.64.29-.74l.58.19c1.22.41,1.47.44,2.72-2.14l4.36-9.08c1.24-2.58,1-2.76,0-3.48l-.29-.2c-.09-.25.15-.68.39-.68.83.45,1.92,1,3,1.52Z"/>
  <path class="a" d="M140.57,392c-.67-.22-.64-.21-1.1.41l-2.05,2.75c-1,1.36-.91,1.44,0,1.9l.7.37c.12.24-.05.7-.29.73-.81-.31-1.66-.58-2.71-.95-.84-.27-1.66-.5-2.57-.74a.6.6,0,0,1,.21-.75l.82.11a1.64,1.64,0,0,0,1.79-.73c.53-.57,1.29-1.51,2.27-2.74l6.47-8a4.64,4.64,0,0,0,1.09-1.72,4.75,4.75,0,0,0,2.2-.66.57.57,0,0,1,.38.34c0,1.3,0,2.61,0,3.91l.25,12c0,1.92.13,2.12,1.36,2.79l.35.21a.57.57,0,0,1-.21.75c-1-.39-2-.72-3.32-1.15-1.11-.35-2.26-.67-3.17-.93a.6.6,0,0,1,.16-.77l.59.1c1,.17,1.15.06,1.11-1.15l-.09-3.89c0-.77-.11-.8-.83-1Zm3.47-.17c.72.23.84.21.83-.47l-.09-3.44a17.68,17.68,0,0,0-.07-2.27l-.05,0c-.16.15-.6.72-1.43,1.8l-2,2.65c-.5.68-.44.69.18.89Z"/>
  <path class="a" d="M171.94,393.18a.71.71,0,0,1-.86-.13,5,5,0,0,0-4.3-5c-3.36-.72-7.27.94-8.42,6.37-1.21,5.63,1.71,9.13,5.13,9.87a5.91,5.91,0,0,0,6.37-2.76.54.54,0,0,1,.77.28,10.5,10.5,0,0,1-2.12,3.74c-.34,0-.68,0-1,.05a16.59,16.59,0,0,1-4.27-.25,12.36,12.36,0,0,1-6.39-3.23,8.51,8.51,0,0,1-2.2-8.08,8.81,8.81,0,0,1,4.84-6.29,12.5,12.5,0,0,1,7.78-.69,20.75,20.75,0,0,1,4.45,1.56c.31.15.48.21.71.32-.08.62-.36,2.2-.51,4.21"/>
  <path class="a" d="M192.66,395.54a.7.7,0,0,1-.86,0A5,5,0,0,0,187,391c-3.42-.35-7.11,1.71-7.68,7.23-.59,5.73,2.69,8.91,6.17,9.27s5.1-1.77,6-3.44a.55.55,0,0,1,.8.19,10.6,10.6,0,0,1-1.72,4c-.33,0-.66.1-1,.14a15.9,15.9,0,0,1-4.26.22,12.34,12.34,0,0,1-6.71-2.52,8.5,8.5,0,0,1-3.05-7.8,8.83,8.83,0,0,1,4.12-6.78,12.72,12.72,0,0,1,7.67-1.52,21,21,0,0,1,4.59,1.08l.74.24c0,.62-.12,2.22-.06,4.24"/>
  <path class="a" d="M215.44,400a9.17,9.17,0,0,1-9.43,9.39c-6.12.05-9.67-4.22-9.72-9a9.32,9.32,0,0,1,9.61-9.69c6.25-.05,9.5,4.41,9.54,9.34M200,399.58c0,3.73,1.68,8.8,6.31,8.77,3.08,0,5.55-2.36,5.5-7.79,0-4.09-1.92-8.81-6.22-8.77-2.71,0-5.63,2-5.59,7.79"/>
  <path class="a" d="M219.44,394.55c-.33-2.85-.58-2.87-1.86-2.93l-.47,0c-.21-.16-.24-.62,0-.75,1.08-.07,2.29-.19,3.47-.33s2.42-.31,3.59-.5c.23.08.31.54.14.75l-.58.15c-1.24.31-1.47.44-1.14,3.29l.72,6.16c.43,3.7,1.92,6.69,5.66,6.25,3.53-.41,4.66-3.23,4.19-7.32l-.4-3.37c-.23-2-.55-4.5-1.13-5.23a1.72,1.72,0,0,0-1.42-.54l-.55,0c-.26-.15-.29-.64,0-.75.92-.06,1.94-.15,3-.27s1.85-.25,2.83-.42a.52.52,0,0,1,.15.75l-.57.2c-.5.18-1,.34-1.11.79-.29.84,0,3.21.24,5.34l.37,3.2c.29,2.44.18,4.74-1,6.41a7.12,7.12,0,0,1-5,2.63c-2.53.3-4.37,0-5.75-1.07s-2.12-2.83-2.44-5.55Z"/>
  <path class="a" d="M259.08,396.9c.19.79,1,4,1.21,4.6a1,1,0,0,1-.81.59c-.55-.44-1.54-1.16-4-2.85l-7.86-5.52c-2.17-1.53-3.27-2.29-3.81-2.59-.08,0,0,.31.33,1.71l1.25,5.13c.48,2,1.1,4.38,1.74,5.06a1.72,1.72,0,0,0,1.5.33l.59-.06c.29.13.38.63.14.77-1,.18-2,.42-3,.66s-1.8.46-2.71.74a.54.54,0,0,1-.24-.75l.55-.27c.47-.23.92-.42,1-.89.15-.89-.41-3.18-.92-5.26l-1.52-6.23c-.5-2.05-.57-2.48-1.65-3a4.32,4.32,0,0,0-1.52-.19l-.41,0c-.23-.11-.33-.65-.08-.79,1-.14,2.46-.52,3.11-.68s1.18-.31,1.8-.52c.72,1,4.4,3.64,5.56,4.41l3.32,2.2c1.4.94,4.52,3.13,4.82,3.23.06-.1,0-.23-.07-.66l-1.25-5.13c-.48-2-1.1-4.38-1.76-5.05a1.65,1.65,0,0,0-1.48-.34l-.62.08c-.28-.13-.38-.64-.13-.78,1-.2,2-.41,3-.66s1.81-.47,2.74-.75a.56.56,0,0,1,.24.75l-.58.28c-.47.22-.89.41-1,.88-.16.9.39,3.19.9,5.27Z"/>
  <path class="a" d="M267.86,382.42c-.39-1.07-.44-1.11-1.1-.87l-1.42.52c-2.34.85-2.93,1.39-3.11,3.79a.7.7,0,0,1-.88.12c-.07-1.53-.27-3.25-.41-4.2,0-.1.11-.16.24-.21a.33.33,0,0,1,.29,0c.36.59.72.49,2.45-.15l10.37-3.79c1.25-.45,1.6-.67,1.69-1.36a.77.77,0,0,1,.27-.22.42.42,0,0,1,.37,0,19.41,19.41,0,0,0,1.1,4.18.65.65,0,0,1-.76.36c-1-1.86-1.71-2.16-4.43-1.17l-1.45.53c-.66.24-.67.3-.28,1.37l4,11c1,2.69,1.24,2.68,2.48,2.38l.95-.24c.25.11.39.58.22.76-1.49.48-2.65.88-3.76,1.28s-2.3.87-3.91,1.52a.59.59,0,0,1-.32-.72l1-.52c1.14-.59,1.35-.69.37-3.39Z"/>
  <path class="a" d="M285.31,385.06c-.64.3-.61.29-.52,1.05l.36,3.41c.18,1.68.3,1.68,1.28,1.41l.77-.22c.25.1.43.55.28.74-.81.32-1.62.69-2.63,1.14-.81.38-1.56.75-2.39,1.21a.59.59,0,0,1-.36-.7l.68-.47a1.66,1.66,0,0,0,.82-1.75c0-.79-.09-2-.19-3.56L282.7,377a4.75,4.75,0,0,0-.37-2,4.74,4.74,0,0,0,1.16-2,.57.57,0,0,1,.51,0c.91.92,1.77,1.93,2.67,2.85l8.32,8.63c1.33,1.38,1.53,1.47,2.89,1.13l.4-.1a.59.59,0,0,1,.36.7c-1,.42-1.95.82-3.23,1.41-1,.49-2.1,1-3,1.47a.61.61,0,0,1-.41-.67l.51-.33c.82-.53.88-.73,0-1.59l-2.7-2.8c-.54-.56-.63-.52-1.32-.2Zm2.43-2.47c.69-.32.76-.42.29-.92l-2.41-2.46a18.45,18.45,0,0,0-1.58-1.62l-.05,0c0,.22,0,.93.17,2.28l.31,3.35c.08.82.13.8.72.53Z"/>
  <path class="a" d="M296.34,371.61c-1.32-2.24-1.51-2.51-2.67-2l-.65.28c-.26-.07-.48-.44-.36-.66,1-.72,2.63-1.83,5.19-3.34a11,11,0,0,1,5-1.9,3.7,3.7,0,0,1,3.42,2.07c.81,1.38.42,3-.89,4.51a.19.19,0,0,0-.06.23c0,.05.1.07.27,0,1.93-.76,4.58-.79,6.14,1.85a4.44,4.44,0,0,1,.39,3.94c-.56,1.55-1.86,2.86-4.52,4.42-1,.6-2,1.11-2.93,1.63s-2.11,1.27-3.11,1.92c-.24,0-.51-.39-.45-.65l.48-.37c1-.78,1.18-1-.27-3.45Zm4.21,1c.36.6.44.58,1.38,0,2.19-1.28,2.69-2.73,1.45-4.84a3.18,3.18,0,0,0-4.65-1.12c-1.17.69-1.21.78-.66,1.71Zm3.22,5.47c1.25,2.13,2,2.85,4,1.67a3.38,3.38,0,0,0,1.2-4.91c-1.42-2.41-3.88-2.88-6.47-1.35-1,.6-1,.77-.72,1.24Z"/>
  <path class="a" d="M320.58,368c1.64,2.35,1.89,2.28,3,1.68l.53-.28c.26.05.52.46.41.68-1,.64-2,1.31-3,2s-2,1.43-2.95,2.15c-.24,0-.54-.34-.49-.61l.44-.41c.95-.85,1.11-1.06-.54-3.41l-5.78-8.24c-1.64-2.35-1.89-2.28-3-1.69l-.53.28c-.27,0-.53-.46-.41-.67,1-.64,2-1.32,3-2s2-1.41,2.91-2.13c.24,0,.54.34.49.61l-.44.41c-.95.86-1.1,1.07.55,3.41Z"/>
  <path class="a" d="M330.39,359.78c.86,1.05,1.52,1.77,2.13,1.86s1,0,2.63-1.39c2.32-1.91,2.57-2.29,1.76-5.23a.73.73,0,0,1,.75-.41,25.89,25.89,0,0,1,1.61,3.75c-.9.68-2.72,2.14-5.06,4.06L332,364.21c-1.06.88-2.1,1.76-2.94,2.52-.24.06-.64-.32-.54-.57l.54-.62c.84-1,1-1.15-.77-3.32l-6.39-7.78c-1.79-2.17-2-2.08-3.13-1.42l-.66.4c-.23,0-.57-.41-.46-.64,1.08-.82,2.05-1.57,3-2.36s1.84-1.55,2.73-2.35c.26-.07.63.33.54.57l-.38.46c-.85,1-1,1.17.78,3.35Z"/>
  <path class="a" d="M342.93,349.49c2,2.08,2.21,2,3.24,1.21l.49-.35c.27,0,.58.38.51.6-.91.78-1.81,1.6-2.67,2.43s-1.76,1.72-2.59,2.57c-.23.08-.58-.26-.58-.53l.38-.47c.81-1,.93-1.21-1-3.29l-6.94-7.29c-2-2.08-2.22-2-3.25-1.21l-.49.36c-.26,0-.58-.38-.51-.61.91-.78,1.81-1.6,2.71-2.46s1.72-1.68,2.55-2.54c.23-.07.59.26.58.53l-.37.47c-.81,1-.94,1.22,1,3.29Z"/>
  <path class="a" d="M343.48,332.3c-.85-.76-.9-.79-1.37-.26l-1,1.12c-1.67,1.85-1.94,2.58-1,4.8,0,.25-.46.61-.73.51-.77-1.32-1.74-2.75-2.31-3.53a.34.34,0,0,1,.12-.29.3.3,0,0,1,.26-.13c.6.36.87.09,2.11-1.27l7.42-8.17c.9-1,1.11-1.33.87-2a.68.68,0,0,1,.13-.31.44.44,0,0,1,.34-.17,19.44,19.44,0,0,0,2.91,3.19.65.65,0,0,1-.5.68c-1.8-1.17-2.53-1.13-4.48,1l-1,1.14c-.47.52-.44.59.39,1.35l8.65,7.86c2.13,1.93,2.35,1.8,3.31,1l.73-.65c.27,0,.61.34.54.57-1.09,1.13-1.93,2-2.73,2.89s-1.64,1.84-2.76,3.16c-.22.08-.64-.26-.61-.49l.66-.94c.73-1.05.87-1.24-1.24-3.17Z"/>
  <path class="a" d="M364.5,322.72a5.67,5.67,0,0,0-3.22-1.28l-7.09-1.16c-1.29-.21-1.66-.21-2.6.61l-.54.48c-.25,0-.64-.33-.57-.55.72-.91,1.42-1.81,2.08-2.7s1.65-2.32,2-2.85a.56.56,0,0,1,.67.42l-.38.73c-.18.4-.21.54-.05.67a4.06,4.06,0,0,0,1.43.43c2.5.53,4.86,1,7.1,1.3-1-2.1-1.95-4-3-6.08a6,6,0,0,0-1-1.66c-.21-.16-.42,0-.69.27l-.64.53c-.26.05-.63-.22-.58-.52.75-.93,1.26-1.59,1.74-2.25s1-1.39,1.45-2.12c.26-.12.6.14.67.42l-.33.73c-.52,1.13-.32,1.67.77,4.21.7,1.66,1.42,3.19,2.15,4.76a6,6,0,0,0,2.49,3.06l1.31,1c2.32,1.7,2.53,1.54,3.41.56l.71-.77c.26,0,.64.27.59.51-1,1.32-1.77,2.29-2.47,3.25s-1.43,2-2.25,3.21c-.21.11-.63-.15-.67-.42l.43-.76c.62-1.12.71-1.36-1.6-3Z"/>
  <path class="a" d="M28.47,269.19a9.38,9.38,0,0,1-6,5.27,9.32,9.32,0,0,1-7.39-.57c-2.13-1.17-3.83-3.09-5-6.6a24.51,24.51,0,0,1-.92-3.5C9,262.86,9,262,8.78,261.3c-.06-.27,0-.4.17-.45s.49-.09,1.34-.32,2.07-.68,2.57-.79.56-.11.63.1-.11.3-.44.41a3.55,3.55,0,0,0-1.85,1.65c-.57,1.06-.58,3.11.16,5.28a6.49,6.49,0,0,0,3,3.94c2.16,1.18,4.55.87,6.84.1,5.6-1.9,7-7.1,5.88-10.26-.71-2.1-1.37-3.29-2.78-3.87a4.27,4.27,0,0,0-1.83-.27c-.39.06-.51,0-.57-.14s.09-.28.28-.34a25.28,25.28,0,0,1,3.31-.54.88.88,0,0,1,.89.38,14.35,14.35,0,0,1,2,4.06c1.09,3.23,1.3,6.18.16,8.95"/>
  <path class="a" d="M17.63,247.24c0,.12.09.15.24.18l3.76.57a4.45,4.45,0,0,0,1.56,0c.44-.09.71-.37.55-1.13l-.07-.37c-.06-.29,0-.37.11-.4s.28.09.33.36c.17.78.32,1.84.47,2.6.06.26.42,1.59.68,2.85.07.31.06.48-.14.52s-.21-.06-.25-.25-.15-.56-.21-.75c-.39-1.08-1.31-1.37-2.63-1.6L5.45,247c-.77-.14-1.07-.23-1.12-.47s.15-.42.65-.77c1.22-.87,10.33-6.87,13.69-9.21,2-1.38,2.19-2.17,2.2-2.7a5.37,5.37,0,0,0-.11-1.05c-.05-.19-.05-.32.12-.35s.29.16.48,1.07.57,2.65.93,4.61c.07.44.13.73,0,.77s-.21-.06-.29-.3a.41.41,0,0,0-.61-.1l-4.75,3a.25.25,0,0,0-.12.28Zm-2.26-4.71c0-.13-.11-.14-.18-.09l-5.54,3.47c-.09,0-.21.09-.2.16s.15.09.25.1l6.46,1c.11,0,.18,0,.15-.13Z"/>
  <path class="a" d="M17,225.63c1.93-.2,2.55-.58,2.68-1.09a4.11,4.11,0,0,0,.07-1.3c0-.27,0-.42.16-.44s.27.2.29.55c.14,1.61.14,2.62.18,3.08,0,.23.19,1.38.3,2.68,0,.32,0,.54-.2.56s-.22-.13-.24-.39a5.06,5.06,0,0,0-.21-1.1c-.26-.62-1-.66-3.14-.51l-14.7,1c-.49,0-.84,0-.86-.25s.27-.52.69-1,4-4.43,7.33-8.34c1.54-1.82,4.84-5.46,5.21-5.91l0-.12L3.41,214.19c-1.51.14-2,.41-2.16,1a3.93,3.93,0,0,0,0,1.32c0,.3,0,.41-.19.41s-.25-.25-.28-.62c-.1-1.29-.12-2.48-.17-3,0-.26-.17-1.2-.27-2.42,0-.32,0-.57.17-.59s.24.13.26.43a3.18,3.18,0,0,0,.14.74c.26.68.79.83,2.18.75l15.67-1c.55-.05.78,0,.8.26s-.23.59-.48.88c-1.36,1.69-4.35,5.12-6.69,7.92S7,226.2,6.58,226.69v.07Z"/>
  <path class="a" d="M12.72,200.47c0,.13,0,.18.19.23l3.51,1.48a4.81,4.81,0,0,0,1.5.43c.45,0,.78-.2.81-1v-.38c0-.29.06-.36.21-.36s.25.16.24.43c0,.8-.14,1.87-.17,2.64,0,.27,0,1.64,0,2.93,0,.33-.07.48-.26.46s-.2-.1-.19-.3a6.6,6.6,0,0,0,0-.78c-.11-1.14-.94-1.64-2.16-2.19L1,197.28c-.7-.33-1-.48-1-.73s.24-.37.82-.6c1.38-.54,11.68-4.15,15.51-5.6,2.27-.86,2.64-1.57,2.79-2.08a5.34,5.34,0,0,0,.14-1c0-.21,0-.33.21-.32s.24.23.21,1.15-.1,2.71-.22,4.69c-.05.45-.06.75-.23.75s-.2-.11-.21-.36a.41.41,0,0,0-.56-.25l-5.35,1.8a.24.24,0,0,0-.18.24Zm-1.05-5.11c0-.13-.07-.15-.15-.13l-6.22,2c-.1,0-.22,0-.23.12s.12.12.22.15l6,2.51c.1,0,.18,0,.18-.09Z"/>
  <path class="a" d="M9,179.43c-3.73-.61-4.41-.72-5.21-.8s-1.26,0-1.57.82a4.77,4.77,0,0,0-.23.94c-.05.28-.11.42-.29.39s-.19-.21-.13-.58c.21-1.3.54-2.83.65-3.52s.31-2.32.55-3.79c.5-3.07,1.17-7.17,4.41-9.39a8.92,8.92,0,0,1,6.62-1.36,9.93,9.93,0,0,1,6.42,3.8c1,1.32,2.29,4.16,1.55,8.7-.15.89-.39,1.88-.61,2.8s-.45,1.77-.55,2.38c-.05.27-.13.81-.2,1.4s-.15,1.21-.23,1.71c-.06.32-.16.47-.32.45s-.19-.13-.14-.43a4.31,4.31,0,0,0,.05-.9c0-.5-.53-.72-1.23-.93-1-.29-3-.61-5.21-1Zm3.21-2.62c2.6.43,4.49.71,5,.76a6,6,0,0,0,1.92,0c.51-.25,1.19-1.12,1.51-3.06a8,8,0,0,0-.85-5.93c-1.09-1.8-3.24-2.66-5.77-3.07a8.44,8.44,0,0,0-6.52,1.35,9.79,9.79,0,0,0-3.6,6.57,6.5,6.5,0,0,0-.09,1.63.44.44,0,0,0,.44.37c.83.16,3,.51,4.91.83Z"/>
  <path class="a" d="M14.05,153.93c-3.65-1-4.32-1.17-5.1-1.33s-1.3,0-1.56.45a3.27,3.27,0,0,0-.33.84c-.07.24-.16.37-.35.32s-.14-.24,0-.62c.24-.92.73-2.41.91-3.11s.48-2,.72-2.95c.08-.31.19-.49.33-.45s.2.21.14.45a4.71,4.71,0,0,0-.13.74c-.05.68.31,1,1.13,1.25s1.43.44,5.08,1.43l4.23,1.14c2.32.63,4.22,1.15,5.28,1.33.67.1,1.15.06,1.44-.64a10.6,10.6,0,0,0,.43-1.2c.06-.27.17-.37.3-.33s.18.25.11.52c-.43,1.58-.92,3.08-1.09,3.72s-.48,2.09-.74,3c-.09.31-.2.46-.37.41s-.17-.14-.09-.43a3.9,3.9,0,0,0,.14-.89c0-.51-.34-.76-1-1-1-.4-2.87-.91-5.2-1.54Z"/>
  <path class="a" d="M23.94,139.11c0,.12,0,.18.11.28l2.85,2.52a5.07,5.07,0,0,0,1.29.9c.42.15.8.06,1.07-.67l.13-.34c.11-.28.19-.34.32-.28s.18.22.08.48c-.28.75-.72,1.72-1,2.44-.1.25-.52,1.56-1,2.77-.12.3-.22.43-.41.35s-.15-.17-.08-.35a7,7,0,0,0,.23-.74c.27-1.12-.36-1.86-1.34-2.77L13.84,132.31c-.57-.54-.77-.77-.68-1s.34-.27,1-.31c1.49-.06,12.4-.18,16.5-.31,2.42-.1,3-.64,3.31-1.09a5.37,5.37,0,0,0,.46-.94c.08-.18.14-.3.3-.23s.16.29-.17,1.16-1,2.53-1.72,4.37c-.18.41-.29.69-.45.62s-.15-.16-.08-.4a.42.42,0,0,0-.46-.41H26.17a.24.24,0,0,0-.25.17Zm.65-5.18c.05-.12,0-.17-.1-.17l-6.53-.1c-.11,0-.23,0-.26,0s.07.16.16.22l4.9,4.31c.09.06.17.06.2,0Z"/>
  <path class="a" d="M35.09,120.62c1.73.87,2.45.88,2.84.53a4,4,0,0,0,.77-1.06c.12-.24.24-.35.37-.28s.12.32,0,.63c-.76,1.42-1.3,2.26-1.52,2.68-.11.2-.59,1.26-1.2,2.4-.16.29-.28.47-.48.37s-.1-.23,0-.45a4,4,0,0,0,.42-1c.13-.66-.46-1.1-2.36-2.14L21,115.11c-.44-.23-.72-.46-.59-.68s.51-.29,1.11-.45c.43-.11,5.79-1.53,10.68-3,2.29-.69,7-2,7.58-2.15l.06-.11-10-5c-1.34-.69-1.86-.72-2.37-.31a3.87,3.87,0,0,0-.75,1.09c-.14.26-.25.32-.38.25s-.08-.35.1-.68c.61-1.14,1.24-2.16,1.48-2.62.14-.23.51-1.1,1.09-2.18.16-.29.29-.49.47-.4s.13.23,0,.5a2.56,2.56,0,0,0-.29.69c-.15.71.21,1.13,1.43,1.82l13.71,7.64c.48.26.63.46.53.65a1.53,1.53,0,0,1-.88.49c-2.06.68-6.44,1.94-9.92,3-3.64,1.12-7.69,2.09-8.32,2.25l0,.07Z"/>
  <path class="a" d="M58.37,86.17a9.84,9.84,0,0,1-10.85-9.09c-.08-2.43.7-4.87,3.12-7.68a27.23,27.23,0,0,1,2.54-2.58c.71-.63,1.4-1.09,2-1.6.19-.19.35-.19.46-.09s.33.38,1,1,1.64,1.45,2,1.82.39.42.24.59-.32.06-.58-.17a3.56,3.56,0,0,0-2.37-.75c-1.19.05-3,1.08-4.46,2.82A6.49,6.49,0,0,0,49.49,75c.09,2.47,1.57,4.36,3.4,5.94,4.49,3.86,9.65,2.35,11.82-.17,1.44-1.68,2.13-2.86,1.91-4.36a4.18,4.18,0,0,0-.69-1.71c-.26-.32-.3-.42-.17-.58s.28,0,.43.08a22.7,22.7,0,0,1,2.15,2.57.87.87,0,0,1,.13,1A14.26,14.26,0,0,1,66,81.47c-2.22,2.59-4.64,4.27-7.61,4.7"/>
  <path class="a" d="M66,66.92c-2.87-3.15-4.48-9.1,1-14.13,4.59-4.16,9.86-4.08,13.69.13s3.92,10.22-.76,14.47c-5.28,4.81-11,2.79-14-.47m12.78-11c-3.76-4.12-8.45-4.52-11.47-1.78-2.12,1.92-3.46,5.3.71,9.88,3.48,3.83,8.36,4.95,11.89,1.73,1.29-1.17,3.7-4.51-1.13-9.83"/>
  <path class="a" d="M84.57,47.77c-2.19-3.08-2.59-3.65-3.09-4.27s-.92-.87-1.7-.54a5.65,5.65,0,0,0-.83.5c-.22.16-.38.2-.47.06s0-.28.31-.5c1.08-.76,2.4-1.6,3-2s1.72-1.31,2.46-1.83c.3-.21.47-.27.57-.13s0,.27-.19.42a3.41,3.41,0,0,0-.56.47c-.46.49-.38,1,.08,1.69s.82,1.25,3,4.33l2,2.85c2.08,2.94,3.55,3.76,5.12,3.87a4.56,4.56,0,0,0,3.12-1,4.9,4.9,0,0,0,2-3.08c.33-1.91-.91-3.78-2.39-5.87L95.27,40.2c-2.19-3.09-2.59-3.65-3.09-4.27s-.92-.88-1.69-.55a4.65,4.65,0,0,0-.78.46c-.23.16-.37.21-.48.07s0-.29.3-.49c1-.74,2.36-1.58,2.38-1.59.25-.18,1.48-1.14,2.28-1.71.28-.19.44-.26.55-.11s0,.27-.24.44a3.88,3.88,0,0,0-.54.48c-.48.49-.4,1,.06,1.69s.83,1.25,3,4.33l1.54,2.17c1.59,2.26,3.07,4.81,2.4,7.49a7.44,7.44,0,0,1-3.2,4.44,8,8,0,0,1-5.49,1.79c-1.7-.2-3.53-1.15-5.62-4.1Z"/>
  <path class="a" d="M109.78,40.81c1,1.68,1.55,2.1,2.07,2a4,4,0,0,0,1.22-.46c.24-.12.39-.16.47,0s-.09.32-.39.49c-1.43.76-2.34,1.16-2.76,1.39-.2.1-1.19.72-2.33,1.33-.29.16-.5.23-.6,0s0-.25.26-.37a3.82,3.82,0,0,0,.92-.64c.48-.47.23-1.16-.77-3.08l-6.75-13.09c-.23-.43-.33-.78-.12-.89s.6,0,1.18.24c.42.15,5.66,1.94,10.57,3.4,2.29.7,6.94,2.27,7.5,2.43l.1-.07-5.48-9.73c-.74-1.32-1.16-1.64-1.8-1.57a4.11,4.11,0,0,0-1.24.48c-.26.15-.38.13-.46,0s.14-.33.47-.51c1.14-.6,2.23-1.1,2.69-1.35.24-.12,1-.64,2.12-1.21.28-.16.51-.25.61-.08s0,.27-.29.41a2.76,2.76,0,0,0-.63.42c-.51.5-.45,1.05.19,2.3l7.16,14c.26.48.28.72.08.83a1.49,1.49,0,0,1-1-.08c-2.09-.58-6.43-1.95-9.92-3-3.66-1.09-7.57-2.53-8.19-2.73l-.06,0Z"/>
  <path class="a" d="M131.63,31.12a9.4,9.4,0,0,1-5.52-5.75,9.34,9.34,0,0,1,.27-7.4c1.08-2.17,2.93-3.95,6.39-5.29a26,26,0,0,1,3.46-1.06c.92-.22,1.74-.3,2.47-.5.26-.08.4,0,.46.15s.1.49.37,1.32.76,2.05.89,2.53.14.56-.07.64-.3-.09-.43-.41a3.57,3.57,0,0,0-1.72-1.8c-1.08-.51-3.13-.44-5.27.38a6.45,6.45,0,0,0-3.81,3.12c-1.09,2.2-.69,4.58.18,6.84,2.13,5.52,7.38,6.64,10.49,5.44,2.07-.79,3.23-1.5,3.75-2.93a4.21,4.21,0,0,0,.2-1.84c-.07-.39-.06-.51.13-.58s.26.09.33.27a23.06,23.06,0,0,1,.68,3.29.85.85,0,0,1-.35.9,14.17,14.17,0,0,1-4,2.14c-3.18,1.23-6.11,1.55-8.93.54"/>
  <path class="a" d="M150.16,14.94c-1-3.64-1.19-4.32-1.45-5.07s-.62-1.14-1.18-1.12a3.58,3.58,0,0,0-.9.14c-.24.06-.39.06-.44-.13s.13-.25.52-.35c.91-.25,2.44-.6,3.14-.79s2-.63,2.9-.88c.31-.08.52-.09.56,0s-.08.28-.32.35a4.5,4.5,0,0,0-.7.27c-.61.3-.69.76-.51,1.61s.35,1.45,1.36,5.1l1.16,4.22c.65,2.32,1.17,4.22,1.55,5.23.25.62.53,1,1.28.91a11.52,11.52,0,0,0,1.25-.25c.26-.07.41,0,.44.09s-.13.29-.39.36c-1.58.44-3.12.78-3.77,1s-2,.64-3,.9c-.3.09-.49.06-.54-.1s0-.23.33-.31a3.23,3.23,0,0,0,.83-.33c.46-.23.49-.67.37-1.39-.16-1-.68-2.94-1.32-5.26Z"/>
  <path class="a" d="M167.3,15.35c.6,3.13.93,4.81,1.53,5.15s1.14.34,3,0c1.3-.25,2.24-.46,2.73-1.23a3.17,3.17,0,0,0,.35-1.59c0-.23,0-.38.2-.42s.22.08.28.38a19.72,19.72,0,0,1,.17,2.88c-.05.57-.14.71-1.41,1-1.76.35-3,.54-4.15.73s-2,.31-3,.5c-.27,0-.8.15-1.39.29s-1.18.28-1.67.37c-.32.06-.51,0-.54-.15s.06-.21.35-.27a3.6,3.6,0,0,0,.87-.27c.47-.19.48-.75.45-1.48-.08-1-.45-3-.88-5.23l-.83-4.29c-.71-3.71-.85-4.4-1-5.17s-.47-1.17-1.32-1.19a3.3,3.3,0,0,0-.82.08c-.26,0-.42,0-.45-.14s.13-.25.49-.33c1.15-.22,2.71-.43,3.37-.56S166,3.8,167,3.61c.33-.06.51,0,.55.12s-.11.25-.4.31a5.76,5.76,0,0,0-.94.26c-.63.24-.75.69-.63,1.56s.23,1.47.94,5.19Z"/>
  <path class="a" d="M198.94,9.93a8.62,8.62,0,0,1-1.54,5.54c-1.15,1.65-2.38,2.51-3.71,2.59a2.13,2.13,0,0,1-1.78-.7,4,4,0,0,1-.8-2.46,8.62,8.62,0,0,1,.36-2.68,8,8,0,0,1,1.19-2.55l.4-.57a6.41,6.41,0,0,1,1.57-1.63,3.61,3.61,0,0,1,1.93-.73,1.92,1.92,0,0,1,1.6.68,4,4,0,0,1,.78,2.51m-6.52,6.39a1.3,1.3,0,0,0,.34.89,1.24,1.24,0,0,0,.94.23,1.93,1.93,0,0,0,1.22-.68,11.85,11.85,0,0,0,2-3.94,12.08,12.08,0,0,0,.9-4.32,1.41,1.41,0,0,0-.33-.87.87.87,0,0,0-.66-.29,2.39,2.39,0,0,0-1.57,1,13.06,13.06,0,0,0-2.23,4.36,10.63,10.63,0,0,0-.65,3.61"/>
  <path class="a" d="M197,22.49a1.08,1.08,0,0,1,.39-.12c.31,0,.56.2.8.61a3.73,3.73,0,0,0,.29.44,1,1,0,0,0,.71.32,2.45,2.45,0,0,0,1.38-.64A7.31,7.31,0,0,0,201.8,21a24.31,24.31,0,0,0,1-2.92l1.27-4.45q.12-.42.24-.9l.86-3.13c.23-.79.41-1.35.54-1.67l-.36,0L205,8c-.22,0-.74,0-1.56,0,0-.25.05-.47.07-.66l.6,0L206,7.21a31.83,31.83,0,0,1,1.31-3.65,9,9,0,0,1,1.31-2.06A5,5,0,0,1,210.19.25,2.19,2.19,0,0,1,211.31,0a2,2,0,0,1,1.36.45,1.31,1.31,0,0,1,.53.94A.84.84,0,0,1,213,2a.63.63,0,0,1-.47.23,1,1,0,0,1-.62-.23,1.34,1.34,0,0,1-.39-.7,1.12,1.12,0,0,0-.25-.49.77.77,0,0,0-.45-.13,1,1,0,0,0-.47.11,3.29,3.29,0,0,0-.89.81,7.21,7.21,0,0,0-.73,1.28,18.71,18.71,0,0,0-.83,2.42,18.8,18.8,0,0,0-.5,1.94l.35,0,1.24,0,.42,0v.18a1.6,1.6,0,0,1-.07.49L207.14,8l-.43,1.48-1.09,4c-.06.21-.12.38-.16.52a5.9,5.9,0,0,0-.28.93l-1,3.14a21.2,21.2,0,0,1-1.28,3,9.08,9.08,0,0,1-1.58,2.12,4.69,4.69,0,0,1-1.48,1,3.2,3.2,0,0,1-1.3.22A2.53,2.53,0,0,1,197,24a1.09,1.09,0,0,1-.44-.84.73.73,0,0,1,.36-.68"/>
  <path class="a" d="M228.25,18.15a9.38,9.38,0,0,1-1.89-7.73,9.35,9.35,0,0,1,3.94-6.28c2-1.34,4.52-1.95,8.19-1.36a24.09,24.09,0,0,1,3.52.81c.91.27,1.66.62,2.39.81.26.07.34.2.32.35s-.16.48-.34,1.33-.37,2.16-.5,2.65-.16.54-.38.51-.22-.24-.16-.58a3.55,3.55,0,0,0-.6-2.41c-.67-1-2.48-2-4.74-2.32a6.48,6.48,0,0,0-4.86.79c-2.06,1.36-2.9,3.62-3.28,6-.93,5.85,3.06,9.46,6.35,10,2.18.35,3.55.31,4.71-.66a4.31,4.31,0,0,0,1.1-1.49c.13-.38.2-.47.39-.44s.19.21.17.4a23.33,23.33,0,0,1-1.06,3.18.91.91,0,0,1-.76.62,14.31,14.31,0,0,1-4.51-.14c-3.37-.54-6.08-1.73-8-4"/>
  <path class="a" d="M262.36,16.91a.14.14,0,0,0,.18-.12l.15-.51c1-3.63,1.22-4.3,1.39-5.08s.1-1.27-.64-1.66a4.83,4.83,0,0,0-.91-.33c-.26-.08-.39-.17-.35-.34s.23-.16.57-.07c1.29.36,2.78.87,3.42,1s2.11.52,3,.79c.34.09.49.19.44.35s-.21.18-.49.1a4.3,4.3,0,0,0-.72-.13c-.67-.06-1,.29-1.27,1.11s-.45,1.43-1.49,5.07l-1.2,4.2c-.62,2.21-1.16,4.1-1.32,5.16-.13.69-.13,1.26.55,1.55a9.56,9.56,0,0,0,1.2.45c.26.08.36.18.33.3s-.26.19-.55.1c-1.56-.44-3-.94-3.71-1.13s-2.08-.51-3-.78c-.34-.09-.49-.21-.44-.38s.15-.16.44-.08a4.56,4.56,0,0,0,.89.15c.51,0,.77-.45,1.07-1.12.4-1,.94-2.86,1.56-5.06l.6-2.11a.13.13,0,0,0-.1-.18l-9.14-2.6c-.08,0-.15,0-.19.1l-.6,2.1c-.62,2.2-1.16,4.1-1.33,5.16-.12.69-.12,1.26.57,1.56a10.45,10.45,0,0,0,1.19.44c.26.07.36.18.33.3s-.26.19-.55.1c-1.55-.44-3-.94-3.71-1.13s-2.08-.51-3-.78c-.31-.09-.45-.21-.41-.38s.15-.17.43-.08a4.07,4.07,0,0,0,.9.15c.5,0,.77-.45,1.07-1.12.4-1,.94-2.86,1.57-5.06l1.2-4.21c1-3.64,1.21-4.31,1.39-5.09S251.77,6.4,251,6a4.33,4.33,0,0,0-.92-.33c-.26-.08-.39-.17-.35-.34s.24-.16.57-.07c1.29.36,2.78.87,3.42,1.05s2.11.52,3,.79c.34.1.49.19.44.36s-.2.17-.49.09a5.65,5.65,0,0,0-.72-.13c-.67-.06-1,.29-1.27,1.11s-.45,1.43-1.49,5.07l-.14.5c0,.12,0,.19.1.2Z"/>
  <path class="a" d="M275.11,20.6c1.46-3.49,1.73-4.13,2-4.88s.25-1.25-.44-1.72a5.5,5.5,0,0,0-.86-.45c-.25-.1-.38-.21-.31-.36s.25-.15.59,0c1.22.51,2.64,1.18,3.12,1.38.78.33,2.55,1,3.26,1.29a8,8,0,0,1,3.82,2.75,4.36,4.36,0,0,1,.24,3.8c-.71,1.7-2.07,3-5.18,3.87,1,3.43,1.7,6.13,2.45,8.12A5,5,0,0,0,285.71,37a4.82,4.82,0,0,0,.61.33c.19.08.25.19.21.31s-.26.15-.54,0l-2.18-.91a5,5,0,0,1-2.27-1.47c-.77-.93-1.19-2.38-1.73-4.69-.39-1.63-.8-3.64-.95-4.11a.5.5,0,0,0-.35-.33l-2-.89c-.12-.05-.21,0-.27.12l-.13.31c-.89,2.14-1.66,3.95-1.94,5-.21.7-.28,1.26.37,1.64.32.18.81.44,1.09.56s.24.19.2.3-.26.16-.57,0c-1.32-.56-3-1.34-3.34-1.48s-1.91-.72-2.82-1.11c-.3-.12-.44-.26-.37-.42s.17-.14.44,0a4.29,4.29,0,0,0,.87.25c.5.11.82-.35,1.19-1,.52-.91,1.28-2.73,2.16-4.84Zm1.95,2.95c-.1.25-.1.36,0,.5a6.43,6.43,0,0,0,1.65.95,2.49,2.49,0,0,0,1.79.3,4.4,4.4,0,0,0,2.79-2.88c1.37-3.26-.4-5.1-1.76-5.66a4.67,4.67,0,0,0-1.25-.42c-.18,0-.26.05-.34.23Z"/>
  <path class="a" d="M295.44,29.9c1.77-3.33,2.11-3.94,2.44-4.67s.33-1.26-.09-1.63a4.4,4.4,0,0,0-.74-.51c-.23-.11-.33-.23-.24-.4s.27-.09.63.1c.83.45,2.18,1.25,2.81,1.6s1.88.91,2.71,1.36c.29.15.44.29.37.42s-.25.15-.47,0a3.67,3.67,0,0,0-.69-.29c-.65-.21-1,.07-1.48.81s-.75,1.3-2.54,4.63l-2.07,3.86c-1.14,2.12-2.06,3.86-2.47,4.85-.26.63-.32,1.11.3,1.54a8.91,8.91,0,0,0,1.07.69c.24.13.31.25.26.36s-.3.13-.54,0c-1.45-.77-2.8-1.58-3.39-1.89s-1.91-1-2.79-1.42c-.29-.15-.41-.3-.33-.46s.19-.12.45,0a4.09,4.09,0,0,0,.84.33c.48.15.81-.15,1.22-.76.6-.86,1.53-2.59,2.67-4.72Z"/>
  <path class="a" d="M298.77,44.65c-.24-.35-.24-.5.06-1,.72-1.16,1.6-2.37,1.84-2.7s.43-.49.59-.38.1.32,0,.49a5.14,5.14,0,0,0-.49,1.19,3.43,3.43,0,0,0,1.67,4,3,3,0,0,0,4.34-.62c.65-1,.94-2.2.05-4.67l-.49-1.37c-1.18-3.27-1.05-5.25,0-6.95,1.46-2.32,4.44-2.76,7.37-.92a12.23,12.23,0,0,1,2.58,2.12c.16.16.22.29.13.44s-.64.83-1.67,2.47c-.29.46-.46.59-.63.49s-.13-.26,0-.51a3,3,0,0,0,.33-1.74,3.19,3.19,0,0,0-1.65-2.48c-1.56-1-3.08-.67-3.87.6-.61,1-.59,2,.32,4.44l.31.81c1.35,3.51,1.34,5.54.08,7.54a5,5,0,0,1-4.29,2.42,7.17,7.17,0,0,1-3.89-1.25,8.83,8.83,0,0,1-2.73-2.48"/>
  <path class="a" d="M325.46,42l-3-2.16c-1.18-.84-1.73-1.11-2.36-.9a3,3,0,0,0-.86.44c-.16.13-.28.16-.4.07s-.1-.23.06-.45,2-1.83,2.15-2,.41-.29.53-.2.2.47.67.89a24.59,24.59,0,0,0,1.9,1.61l7.83,6a11.66,11.66,0,0,0,1.44.94c.34.17.53.25.61.31s.06.25-.15.54-1.43,1.73-1.82,2.25c-.17.18-.29.27-.42.18s-.12-.25.09-.56l.14-.23c.35-.55.24-1.51-1.48-2.89l-2.46-2L321.74,52c-1.39,1.82-2.58,3.37-3.13,4.3-.36.6-.57,1.13,0,1.66a11.23,11.23,0,0,0,.95.85c.22.17.27.3.19.4s-.31.08-.52-.09c-1.31-1-2.51-2-3.06-2.43s-1.75-1.23-2.54-1.84c-.26-.19-.35-.36-.24-.5s.2-.1.43.08a3.91,3.91,0,0,0,.78.47c.45.22.9-.12,1.4-.65.73-.76,1.92-2.32,3.31-4.14Z"/>
  <path class="a" d="M333.75,56.28c2.52-2.82,3-3.33,3.48-4s.62-1.14.3-1.6a3.43,3.43,0,0,0-.6-.67c-.19-.17-.27-.31-.13-.46s.28,0,.58.26c.7.63,1.82,1.72,2.35,2.21s1.61,1.33,2.32,2c.24.22.36.39.25.5s-.27.09-.46-.08a3.43,3.43,0,0,0-.61-.44c-.57-.36-1-.18-1.63.44s-1,1.08-3.55,3.9l-2.92,3.26c-1.6,1.8-2.92,3.26-3.55,4.13-.4.55-.56,1-.08,1.58.23.26.61.66.88.91s.25.32.17.41-.31.06-.52-.13c-1.23-1.09-2.35-2.19-2.84-2.63s-1.65-1.38-2.39-2c-.24-.22-.32-.39-.2-.52s.2-.08.43.12a3.61,3.61,0,0,0,.73.52c.44.26.83,0,1.37-.44.78-.7,2.1-2.16,3.7-4Z"/>
  <path class="a" d="M341.16,70.28c-.08-.1-.15-.1-.3,0l-3.53,1.42a5.2,5.2,0,0,0-1.36.76c-.33.31-.42.69.1,1.25l.26.28c.19.22.21.31.1.41s-.28.06-.47-.15c-.53-.58-1.21-1.42-1.72-2-.19-.2-1.18-1.16-2.05-2.11-.22-.24-.28-.38-.14-.52s.21-.06.35.09a6.92,6.92,0,0,0,.56.53c.88.74,1.83.51,3.07,0l15.73-6c.73-.26,1-.34,1.2-.16s.09.43-.16,1c-.6,1.37-5.37,11.17-7.07,14.91-1,2.2-.78,3-.51,3.44a5,5,0,0,0,.63.83c.14.16.2.26.07.38s-.33,0-.95-.68-1.84-2-3.15-3.49c-.29-.34-.49-.56-.36-.68s.21-.06.4.1a.4.4,0,0,0,.57-.22l2.53-5a.24.24,0,0,0,0-.3Zm4.35,2.88c.09.09.16.06.19,0l3-5.81c.05-.08.13-.19.08-.24s-.18,0-.26,0l-6.06,2.47c-.08,0-.13.11-.06.19Z"/>
  <path class="a" d="M352.51,87.91c-1.53,1.19-1.87,1.83-1.72,2.33a3.86,3.86,0,0,0,.63,1.15c.16.22.21.37.09.46s-.34,0-.54-.32c-1-1.3-1.48-2.15-1.76-2.53-.13-.18-.88-1.08-1.64-2.13-.2-.26-.31-.45-.12-.58s.24,0,.39.2a4.21,4.21,0,0,0,.76.83c.54.41,1.19.06,2.95-1.2l12-8.51c.41-.29.73-.44.88-.23s0,.58-.08,1.2c-.08.43-1.13,5.87-1.89,10.93-.37,2.37-1.29,7.19-1.35,7.77l.07.1,8.87-6.79c1.21-.92,1.46-1.38,1.31-2a3.93,3.93,0,0,0-.66-1.15c-.18-.25-.17-.37-.06-.46s.35.09.57.4c.76,1,1.41,2,1.71,2.47.17.22.78.94,1.5,1.92.2.26.32.48.16.6s-.27,0-.44-.23a2.84,2.84,0,0,0-.5-.56c-.58-.44-1.12-.3-2.26.51l-12.83,9c-.44.32-.68.37-.81.19a1.43,1.43,0,0,1-.06-1c.28-2.15,1-6.64,1.57-10.24.57-3.78,1.45-7.84,1.57-8.48l-.05-.06Z"/>
  <path class="a" d="M369.82,116.5a9.85,9.85,0,0,1,12.63-6.39c2.26.89,4.2,2.57,5.83,5.9a23.06,23.06,0,0,1,1.36,3.34c.31.9.46,1.72.72,2.42.1.26,0,.4-.1.47s-.48.15-1.29.49-2,.94-2.44,1.12-.55.18-.65,0,.08-.31.39-.46a3.6,3.6,0,0,0,1.63-1.89c.41-1.12.16-3.15-.85-5.21a6.46,6.46,0,0,0-3.44-3.51c-2.3-.9-4.62-.28-6.8.78-5.31,2.61-6,7.94-4.49,10.93,1,2,1.79,3.09,3.26,3.48a4.1,4.1,0,0,0,1.84,0c.39-.1.5-.1.59.07s-.05.28-.23.37a23.66,23.66,0,0,1-3.22,1,.89.89,0,0,1-.93-.26,14.31,14.31,0,0,1-2.49-3.77c-1.5-3.06-2.09-6-1.32-8.86"/>
  <path class="a" d="M390.63,144.19a.16.16,0,0,0,.22.08l.49-.17c3.58-1.24,4.23-1.46,5-1.77s1.09-.65,1-1.47a4.11,4.11,0,0,0-.24-1c-.09-.26-.09-.41.07-.47s.27.09.39.42c.44,1.27.88,2.78,1.09,3.41s.79,2,1.11,2.93c.11.33.12.51,0,.57s-.26-.06-.35-.35a5.19,5.19,0,0,0-.31-.65c-.34-.6-.8-.65-1.64-.41s-1.43.44-5,1.68l-4.14,1.43c-2.16.75-4,1.39-5,1.86-.64.3-1.11.62-1,1.36a12.42,12.42,0,0,0,.32,1.23c.09.26.06.4-.06.45s-.3-.12-.39-.4c-.53-1.53-1-3-1.21-3.69s-.77-2-1.08-2.91c-.12-.33-.1-.52.06-.58s.22,0,.32.31a4.16,4.16,0,0,0,.38.81c.27.44.82.38,1.53.24,1-.23,2.89-.87,5.05-1.62l2.07-.71a.14.14,0,0,0,.09-.19l-3.11-9a.12.12,0,0,0-.19-.09l-2.07.72c-2.16.74-4,1.39-5,1.85-.63.3-1.1.62-.95,1.36a11.74,11.74,0,0,0,.32,1.23c.09.26.06.4-.05.44s-.3-.1-.4-.39c-.53-1.52-1-3-1.2-3.69s-.77-2-1.1-2.94c-.1-.3-.09-.49.08-.55s.21,0,.31.31a4,4,0,0,0,.39.82c.26.43.81.38,1.53.23,1-.22,2.88-.86,5.05-1.61l4.13-1.44c3.57-1.24,4.24-1.47,5-1.77s1.1-.65,1-1.48a5.82,5.82,0,0,0-.25-.94c-.08-.26-.08-.41.08-.47s.27.09.38.42c.44,1.27.88,2.77,1.1,3.41s.78,2,1.1,2.94c.11.33.12.51,0,.56s-.26-.07-.36-.35a4.57,4.57,0,0,0-.31-.66c-.34-.59-.8-.64-1.64-.4s-1.43.44-5,1.68l-.49.17a.15.15,0,0,0-.11.2Z"/>
  <path class="a" d="M390.48,160.28c0-.11-.08-.16-.24-.17l-3.76-.58a5,5,0,0,0-1.56-.05c-.44.1-.71.38-.54,1.14l.07.37c.06.29,0,.37-.12.4s-.27-.09-.32-.36c-.17-.78-.32-1.84-.49-2.59,0-.27-.41-1.6-.68-2.86-.07-.32,0-.48.15-.51s.21.05.25.25.14.55.21.74c.39,1.09,1.31,1.37,2.63,1.6l16.58,2.85c.78.14,1.07.23,1.13.48s-.15.41-.66.76c-1.21.88-10.31,6.89-13.67,9.23-2,1.39-2.18,2.18-2.2,2.7a6.33,6.33,0,0,0,.12,1.06c0,.19.05.31-.13.35s-.29-.17-.48-1.07-.56-2.65-.93-4.61c-.07-.44-.13-.73,0-.77s.21.06.29.29a.4.4,0,0,0,.6.1l4.75-3a.25.25,0,0,0,.12-.28Zm2.28,4.71c0,.12.1.13.17.08l5.54-3.46c.09-.05.21-.1.19-.17s-.14-.09-.24-.1l-6.47-1c-.1,0-.17,0-.15.13Z"/>
  <path class="a" d="M399,178.57c3.76-.38,4.46-.45,5.24-.58s1.21-.37,1.31-1.21a5.56,5.56,0,0,0,0-1c0-.27,0-.43.18-.45s.24.15.28.52c.13,1.31.21,2.88.27,3.4.08.85.35,2.72.43,3.48a7.93,7.93,0,0,1-.6,4.66,4.26,4.26,0,0,1-3.22,2c-1.83.19-3.59-.4-5.88-2.7-2.55,2.49-4.58,4.42-6,6a5,5,0,0,0-1.4,2.94,4.06,4.06,0,0,0,0,.7c0,.2,0,.31-.17.32s-.27-.15-.29-.45l-.24-2.35a4.91,4.91,0,0,1,.2-2.7c.46-1.12,1.52-2.18,3.29-3.76,1.26-1.13,2.82-2.43,3.17-2.79a.53.53,0,0,0,.12-.47l-.17-2.16a.17.17,0,0,0-.21-.18l-.35,0c-2.3.24-4.26.44-5.29.66-.71.15-1.24.36-1.26,1.11a12,12,0,0,0,0,1.22c0,.2,0,.3-.16.32s-.27-.15-.3-.47c-.15-1.43-.26-3.27-.3-3.64s-.28-2-.38-3c0-.31,0-.5.2-.52s.2.08.24.38a3.33,3.33,0,0,0,.19.88c.15.48.7.55,1.43.58,1.05,0,3-.18,5.28-.42Zm-1.66,3.12c-.27,0-.37.08-.42.26a6.71,6.71,0,0,0-.06,1.91,2.48,2.48,0,0,0,.6,1.72,4.41,4.41,0,0,0,3.87,1.08c3.51-.36,4.28-2.79,4.14-4.25a6.63,6.63,0,0,0-.23-1.3c-.07-.17-.18-.21-.37-.19Z"/>
  <path class="a" d="M400.52,199.8c3.78-.05,4.48-.06,5.27-.12s1.27-.32,1.38-.87a3.24,3.24,0,0,0,.09-.89c0-.25.05-.4.25-.4s.19.2.2.59c0,.94,0,2.51,0,3.24s.1,2.09.11,3c0,.32,0,.52-.19.52s-.25-.14-.25-.39a5.62,5.62,0,0,0-.09-.75c-.13-.67-.56-.86-1.43-.9s-1.49,0-5.27,0l-4.38.05c-2.41,0-4.38.06-5.44.17-.68.09-1.12.27-1.21,1a8.66,8.66,0,0,0-.08,1.27c0,.27-.07.39-.2.39s-.25-.19-.25-.46c0-1.64,0-3.21,0-3.89s-.1-2.13-.11-3.13c0-.32.07-.5.24-.5s.2.1.2.39a4.68,4.68,0,0,0,.11.9c.11.5.54.64,1.26.71,1,.11,3,.08,5.42,0Z"/>
  <path class="a" d="M405.94,217.24l.18-3.7c.05-1.44,0-2-.55-2.46a2.94,2.94,0,0,0-.84-.48c-.19-.07-.29-.15-.28-.3s.15-.21.42-.19a28.66,28.66,0,0,1,2.82.73c.31.09.45.18.44.33s-.28.43-.38,1.05-.24,1.65-.3,2.47l-.71,9.82a12.29,12.29,0,0,0,0,1.72c0,.38.08.58.08.68s-.17.19-.54.16-2.22-.24-2.87-.28c-.24,0-.4-.1-.38-.26s.14-.24.51-.24h.28c.65,0,1.39-.62,1.6-2.82l.3-3.12-10.17-.74c-2.28-.17-4.24-.32-5.31-.27-.71,0-1.26.13-1.42.88a11.7,11.7,0,0,0-.19,1.25c0,.26-.1.38-.22.38s-.24-.22-.22-.49c.12-1.64.31-3.2.36-3.89s.08-2.14.15-3.14c0-.32.12-.48.29-.47s.19.11.17.41a4.11,4.11,0,0,0,0,.9c.06.51.6.7,1.31.82,1,.21,3,.34,5.28.51Z"/>
  <path class="a" d="M398.32,233.55c3.73.59,4.42.7,5.21.78s1.31-.09,1.51-.61a3.77,3.77,0,0,0,.25-.87c0-.25.11-.39.3-.36s.17.23.11.63c-.16.93-.48,2.46-.59,3.17s-.26,2.08-.41,3c-.05.33-.13.51-.28.48s-.22-.18-.18-.42a4.35,4.35,0,0,0,.05-.75c0-.69-.4-1-1.26-1.14s-1.46-.28-5.2-.88l-4.32-.69c-2.39-.38-4.32-.69-5.4-.76-.67,0-1.14.07-1.36.79a9.76,9.76,0,0,0-.3,1.24c0,.27-.13.38-.25.36s-.22-.24-.18-.51c.26-1.62.58-3.15.69-3.82s.26-2.13.42-3.1c.06-.32.16-.49.33-.46s.18.13.13.42a3.71,3.71,0,0,0,0,.91c0,.51.41.72,1.11.9,1,.3,2.95.6,5.33,1Z"/>
  <path class="a" d="M395.71,247.5c3.67.9,4.36,1.07,5.14,1.22s1.26.05,1.63-.7a5.57,5.57,0,0,0,.31-.93c.07-.27.14-.4.31-.36s.18.23.09.59c-.16.65-.36,1.35-.51,2s-.34,1.17-.42,1.51c-.19.77-1.38,5.58-1.47,6a8.66,8.66,0,0,0-.11,1.07,2.8,2.8,0,0,1,0,.41c0,.12-.13.12-.26.09a15.38,15.38,0,0,0-1.52-.58c-.23-.09-1.28-.39-1.56-.52-.12-.05-.25-.14-.21-.3s.18-.19.39-.14a2.79,2.79,0,0,0,.92.07c.47-.06.82-.23,1.26-1.4.15-.4.83-2.92.94-3.41,0-.12,0-.18-.19-.23l-6.11-1.5c-.18,0-.28,0-.32.1-.12.53-.81,3.3-.9,3.88a1.67,1.67,0,0,0,.08,1.24c.15.22.25.35.22.47a.17.17,0,0,1-.23.12c-.16,0-.51-.23-1.72-.63-.48-.14-1.43-.45-1.6-.49s-.45-.11-.4-.33a.19.19,0,0,1,.27-.16,8.64,8.64,0,0,0,.89.11c.51,0,1-.25,1.28-1.11.16-.46.77-2.84.91-3.42,0-.12-.06-.17-.2-.21l-1.91-.47c-.82-.2-3-.77-3.74-.92-1.68-.37-2.14-.07-2.75,2.4a6.3,6.3,0,0,0-.26,2.34c.13.7.57,1.11,1.51,1.53.26.11.34.18.3.35s-.24.15-.49.09a20.56,20.56,0,0,1-2.6-1c-.59-.33-.53-.54-.3-1.46.45-1.81.82-3.13,1.1-4.16s.51-1.77.69-2.49c.07-.26.2-.8.32-1.39s.25-1.19.36-1.68c.08-.31.2-.46.37-.42s.17.15.09.44a3.62,3.62,0,0,0-.11.89c0,.51.47.76,1.15,1,1,.37,2.89.85,5.11,1.39Z"/>
  <path class="a" d="M380.46,260.59c.3-.31.44-.34,1-.16,1.29.45,2.66,1,3,1.19s.58.3.51.49-.29.16-.48.1a4.94,4.94,0,0,0-1.27-.21,3.43,3.43,0,0,0-3.54,2.54,3,3,0,0,0,1.58,4.08c1.16.4,2.36.42,4.56-1l1.23-.79c2.92-1.88,4.87-2.2,6.78-1.54,2.58.9,3.68,3.71,2.55,7a12.05,12.05,0,0,1-1.49,3c-.12.2-.23.29-.4.23s-1-.44-2.78-1.07c-.52-.19-.68-.32-.62-.51s.22-.18.51-.09a2.87,2.87,0,0,0,1.76-.07,3.15,3.15,0,0,0,2-2.16c.6-1.74,0-3.14-1.45-3.63-1.09-.38-2.1-.13-4.25,1.31l-.73.48c-3.13,2.1-5.1,2.55-7.33,1.78a5,5,0,0,1-3.32-3.63,7.19,7.19,0,0,1,.34-4.08,8.82,8.82,0,0,1,1.8-3.22"/>
</svg>
