<?xml version="1.0" encoding="utf-8"?>
<!-- Generator: Adobe Illustrator 23.0.2, SVG Export Plug-In . SVG Version: 6.00 Build 0)  -->
<svg version="1.1" id="Layer_1" xmlns="http://www.w3.org/2000/svg" xmlns:xlink="http://www.w3.org/1999/xlink" x="0px" y="0px"
	 viewBox="0 0 438.5 202.8" style="enable-background:new 0 0 438.5 202.8;" xml:space="preserve">
<style type="text/css">
	.st0{fill:#9055A2;}
	.st1{fill:#2C709C;}
	.st2{fill:#E7600C;}
	.st3{fill:#FFFFFF;}
</style>
<title>FY18-WV-FinancialChart-EN</title>
<path class="st0" d="M107,95.8l65.7-61.3c8.3,8.8,14.6,19.2,18.7,30.5L107,95.8z"/>
<path class="st1" d="M105,93.6V3.8c26.4,0,47.7,9.3,65.7,28.6L105,93.6z"/>
<path class="st2" d="M101.4,101.4l95.2-34.7c19.1,52.6-8,110.8-60.6,129.9S25.3,188.6,6.1,136s8-110.8,60.6-129.9c0,0,0,0,0,0
	C77.8,2,89.6-0.1,101.4,0V101.4z"/>
<path class="st3" d="M272,27.7v4.6h-2.4V19.3h4.2c0.8,0,1.5,0.1,2.2,0.3c0.6,0.2,1.1,0.5,1.6,0.9c0.4,0.4,0.7,0.8,0.9,1.3
	c0.2,0.5,0.3,1.1,0.3,1.7c0,0.6-0.1,1.2-0.3,1.7c-0.2,0.5-0.5,1-0.9,1.3c-0.5,0.4-1,0.7-1.6,0.9c-0.7,0.2-1.5,0.3-2.2,0.3L272,27.7z
	 M272,25.8h1.8c0.4,0,0.8,0,1.2-0.2c0.3-0.1,0.6-0.3,0.8-0.5c0.2-0.2,0.4-0.5,0.5-0.8c0.1-0.3,0.2-0.7,0.2-1c0-0.3-0.1-0.6-0.2-0.9
	c-0.1-0.3-0.3-0.5-0.5-0.7c-0.2-0.2-0.5-0.4-0.8-0.5c-0.4-0.1-0.8-0.2-1.2-0.2H272V25.8z"/>
<path class="st3" d="M280.2,32.3v-9.2h1.3c0.2,0,0.3,0,0.5,0.1c0.1,0.1,0.2,0.3,0.2,0.4l0.1,1.1c0.3-0.5,0.7-1,1.1-1.3
	c0.4-0.3,1-0.5,1.5-0.5c0.4,0,0.8,0.1,1.1,0.3l-0.3,1.6c0,0.1-0.1,0.2-0.1,0.2c-0.1,0.1-0.2,0.1-0.2,0.1c-0.1,0-0.2,0-0.4-0.1
	c-0.2,0-0.4-0.1-0.6-0.1c-0.4,0-0.8,0.1-1.2,0.4c-0.4,0.3-0.7,0.7-0.8,1.1v5.7L280.2,32.3z"/>
<path class="st3" d="M291.1,22.9c0.6,0,1.3,0.1,1.9,0.3c0.5,0.2,1,0.5,1.4,0.9c0.4,0.4,0.7,0.9,0.9,1.5c0.2,0.6,0.3,1.3,0.3,2
	c0,0.7-0.1,1.4-0.3,2c-0.2,0.6-0.5,1.1-0.9,1.5c-0.4,0.4-0.9,0.8-1.4,1c-1.2,0.4-2.5,0.4-3.7,0c-0.5-0.2-1-0.6-1.4-1
	c-0.4-0.4-0.7-0.9-0.9-1.5c-0.2-0.6-0.3-1.3-0.3-2c0-0.7,0.1-1.4,0.3-2c0.4-1.1,1.3-2,2.4-2.4C289.9,23,290.5,22.9,291.1,22.9z
	 M291.1,30.7c0.7,0,1.3-0.2,1.7-0.8c0.4-0.7,0.6-1.5,0.5-2.2c0-0.8-0.1-1.6-0.5-2.3c-0.4-0.5-1-0.8-1.7-0.8c-0.7,0-1.3,0.3-1.7,0.8
	c-0.4,0.7-0.6,1.5-0.5,2.3c-0.1,0.8,0.1,1.6,0.5,2.2C289.8,30.4,290.5,30.7,291.1,30.7z"/>
<path class="st3" d="M300.5,22.9c0.4,0,0.7,0,1.1,0.1c0.3,0.1,0.7,0.2,1,0.4h2.6v0.8c0,0.1,0,0.2-0.1,0.3c-0.1,0.1-0.2,0.1-0.4,0.2
	l-0.8,0.1c0.1,0.2,0.1,0.3,0.1,0.5c0,0.2,0,0.4,0,0.5c0,0.4-0.1,0.8-0.3,1.2c-0.2,0.4-0.4,0.7-0.8,0.9c-0.3,0.3-0.7,0.5-1.1,0.6
	c-0.5,0.1-0.9,0.2-1.4,0.2c-0.3,0-0.7,0-1-0.1c-0.2,0.1-0.4,0.3-0.4,0.6c0,0.2,0.1,0.3,0.2,0.4c0.2,0.1,0.4,0.2,0.7,0.2
	c0.3,0,0.6,0,1,0c0.4,0,0.7,0,1.1,0c0.4,0,0.7,0.1,1.1,0.1c0.3,0.1,0.7,0.2,1,0.4c0.3,0.2,0.5,0.4,0.7,0.7c0.2,0.3,0.3,0.7,0.2,1.1
	c0,0.4-0.1,0.8-0.3,1.2c-0.2,0.4-0.5,0.7-0.9,1c-0.4,0.3-0.9,0.6-1.4,0.7c-0.6,0.2-1.2,0.3-1.9,0.3c-0.6,0-1.2-0.1-1.8-0.2
	c-0.5-0.1-0.9-0.3-1.3-0.5c-0.3-0.2-0.6-0.5-0.8-0.8c-0.2-0.3-0.3-0.6-0.2-0.9c0-0.4,0.1-0.8,0.4-1.1c0.3-0.3,0.7-0.6,1.1-0.7
	c-0.2-0.1-0.4-0.3-0.5-0.5c-0.1-0.2-0.2-0.5-0.2-0.8c0-0.1,0-0.3,0.1-0.4c0.1-0.2,0.1-0.3,0.2-0.4c0.1-0.2,0.2-0.3,0.4-0.4
	c0.2-0.1,0.3-0.3,0.5-0.4c-0.4-0.2-0.8-0.6-1.1-1c-0.3-0.4-0.4-0.9-0.4-1.5c0-0.4,0.1-0.8,0.3-1.2c0.2-0.4,0.4-0.7,0.8-0.9
	c0.3-0.3,0.7-0.5,1.1-0.6C299.4,22.9,299.9,22.9,300.5,22.9z M302.9,32.6c0-0.2-0.1-0.3-0.2-0.5c-0.1-0.1-0.3-0.2-0.4-0.3
	c-0.2-0.1-0.4-0.1-0.6-0.1c-0.3,0-0.5,0-0.8,0H300c-0.3,0-0.6,0-0.9-0.1c-0.2,0.1-0.4,0.3-0.6,0.5c-0.1,0.2-0.2,0.4-0.2,0.6
	c0,0.2,0,0.3,0.1,0.5c0.1,0.2,0.2,0.3,0.4,0.4c0.2,0.1,0.4,0.2,0.7,0.2c0.3,0.1,0.7,0.1,1,0.1c0.4,0,0.7,0,1.1-0.1
	c0.3,0,0.5-0.1,0.7-0.3c0.2-0.1,0.3-0.2,0.4-0.4C302.8,33,302.9,32.8,302.9,32.6L302.9,32.6z M300.5,27.4c0.2,0,0.5,0,0.7-0.1
	c0.2-0.1,0.4-0.2,0.5-0.3c0.1-0.1,0.2-0.3,0.3-0.5c0.1-0.2,0.1-0.4,0.1-0.6c0-0.4-0.1-0.8-0.4-1.1c-0.7-0.5-1.7-0.5-2.4,0
	c-0.3,0.3-0.4,0.7-0.4,1.1c0,0.2,0,0.4,0.1,0.6c0.1,0.2,0.2,0.3,0.3,0.5c0.1,0.1,0.3,0.2,0.5,0.3C300,27.4,300.2,27.4,300.5,27.4z"
	/>
<path class="st3" d="M306.4,32.3v-9.2h1.3c0.2,0,0.3,0,0.5,0.1c0.1,0.1,0.2,0.3,0.2,0.4l0.1,1.1c0.3-0.5,0.7-1,1.2-1.3
	c0.4-0.3,0.9-0.5,1.5-0.5c0.4,0,0.8,0.1,1.1,0.3l-0.2,1.6c0,0.1,0,0.2-0.1,0.2c-0.1,0.1-0.2,0.1-0.2,0.1c-0.1,0-0.2,0-0.4-0.1
	c-0.2,0-0.4-0.1-0.6-0.1c-0.4,0-0.8,0.1-1.2,0.4c-0.4,0.3-0.7,0.7-0.8,1.1v5.7L306.4,32.3z"/>
<path class="st3" d="M320.6,32.3h-1c-0.2,0-0.3,0-0.5-0.1c-0.1-0.1-0.2-0.2-0.3-0.4l-0.2-0.6c-0.2,0.2-0.4,0.4-0.7,0.5
	c-0.2,0.2-0.4,0.3-0.7,0.4c-0.2,0.1-0.5,0.2-0.8,0.2c-0.3,0.1-0.6,0.1-0.9,0.1c-0.4,0-0.7,0-1.1-0.2c-0.3-0.1-0.6-0.3-0.9-0.5
	c-0.2-0.2-0.4-0.5-0.5-0.8c-0.1-0.3-0.2-0.7-0.1-1.1c0-0.4,0.1-0.7,0.3-1c0.2-0.4,0.5-0.7,0.9-0.9c0.5-0.3,1.1-0.5,1.7-0.7
	c0.9-0.2,1.7-0.3,2.6-0.3v-0.5c0-0.5-0.1-1-0.4-1.4c-0.3-0.3-0.7-0.5-1.1-0.5c-0.3,0-0.6,0-0.9,0.1c-0.2,0.1-0.4,0.2-0.6,0.3
	l-0.5,0.3c-0.1,0.1-0.3,0.1-0.5,0.1c-0.1,0-0.3,0-0.4-0.1c-0.1-0.1-0.2-0.2-0.3-0.3l-0.4-0.7c1-1,2.4-1.5,3.8-1.5
	c0.5,0,1,0.1,1.4,0.3c0.4,0.2,0.8,0.4,1.1,0.7c0.3,0.3,0.5,0.7,0.7,1.1c0.2,0.5,0.2,0.9,0.2,1.4L320.6,32.3z M316.3,30.9
	c0.2,0,0.4,0,0.6-0.1c0.2,0,0.4-0.1,0.5-0.2c0.2-0.1,0.3-0.2,0.5-0.3c0.2-0.1,0.3-0.3,0.5-0.4v-1.5c-0.5,0-1.1,0-1.6,0.1
	c-0.3,0.1-0.7,0.2-1,0.3c-0.2,0.1-0.4,0.2-0.6,0.4c-0.3,0.4-0.2,1,0.2,1.4C315.7,30.8,316,30.9,316.3,30.9L316.3,30.9z"/>
<path class="st3" d="M322.7,32.3v-9.2h1.3c0.3,0,0.5,0.1,0.6,0.4l0.1,0.7c0.2-0.2,0.3-0.3,0.5-0.5c0.2-0.1,0.4-0.3,0.6-0.4
	c0.2-0.1,0.4-0.2,0.6-0.2c0.2-0.1,0.5-0.1,0.8-0.1c0.5,0,1,0.1,1.4,0.5c0.4,0.3,0.7,0.8,0.8,1.2c0.3-0.6,0.7-1,1.2-1.3
	c0.3-0.1,0.5-0.2,0.8-0.3c0.3-0.1,0.6-0.1,0.9-0.1c0.5,0,0.9,0.1,1.4,0.2c0.4,0.1,0.7,0.4,1,0.7c0.3,0.3,0.5,0.7,0.6,1.1
	c0.1,0.5,0.2,1,0.2,1.5v5.8h-2.2v-5.8c0-0.5-0.1-0.9-0.4-1.3c-0.3-0.3-0.7-0.5-1.1-0.4c-0.2,0-0.4,0-0.6,0.1
	c-0.2,0.1-0.4,0.2-0.5,0.3c-0.2,0.2-0.3,0.3-0.3,0.5c-0.1,0.2-0.1,0.5-0.1,0.8v5.8H328v-5.8c0-0.5-0.1-1-0.4-1.3
	c-0.3-0.3-0.7-0.4-1.1-0.4c-0.3,0-0.6,0.1-0.9,0.2c-0.3,0.2-0.6,0.4-0.8,0.6v6.7H322.7z"/>
<path class="st3" d="M343.1,24.9c0,0.1-0.1,0.1-0.2,0.2c-0.1,0-0.2,0.1-0.2,0.1c-0.1,0-0.2,0-0.4-0.1l-0.4-0.2
	c-0.2-0.1-0.4-0.1-0.5-0.2c-0.2-0.1-0.5-0.1-0.7-0.1c-0.4,0-0.7,0.1-1,0.3c-0.2,0.2-0.4,0.4-0.4,0.7c0,0.2,0.1,0.4,0.2,0.5
	c0.1,0.2,0.3,0.3,0.5,0.4c0.2,0.1,0.5,0.2,0.7,0.3l0.8,0.3c0.3,0.1,0.5,0.2,0.8,0.3c0.3,0.1,0.5,0.3,0.7,0.5
	c0.2,0.2,0.4,0.4,0.5,0.7c0.1,0.3,0.2,0.7,0.2,1c0,0.4-0.1,0.8-0.2,1.2c-0.2,0.4-0.4,0.7-0.7,1c-0.3,0.3-0.7,0.5-1.1,0.6
	c-0.5,0.2-1,0.2-1.6,0.2c-0.3,0-0.6,0-0.9-0.1c-0.3-0.1-0.6-0.1-0.9-0.2c-0.3-0.1-0.5-0.2-0.8-0.4c-0.2-0.1-0.4-0.3-0.6-0.5l0.5-0.8
	c0.1-0.1,0.1-0.2,0.2-0.2c0.1-0.1,0.2-0.1,0.3-0.1c0.1,0,0.3,0,0.4,0.1l0.4,0.2c0.2,0.1,0.4,0.2,0.6,0.2c0.3,0.1,0.5,0.1,0.8,0.1
	c0.2,0,0.5,0,0.7-0.1c0.2-0.1,0.3-0.1,0.5-0.2c0.1-0.1,0.2-0.2,0.3-0.4c0.1-0.1,0.1-0.3,0.1-0.4c0-0.2-0.1-0.4-0.2-0.5
	c-0.1-0.1-0.3-0.3-0.5-0.4c-0.2-0.1-0.5-0.2-0.7-0.3l-0.8-0.3c-0.3-0.1-0.6-0.2-0.8-0.3c-0.3-0.1-0.5-0.3-0.7-0.5
	c-0.2-0.2-0.4-0.5-0.5-0.7c-0.1-0.3-0.2-0.7-0.2-1c0-0.4,0.1-0.7,0.2-1.1c0.2-0.3,0.4-0.6,0.7-0.9c0.3-0.3,0.7-0.5,1.1-0.6
	c1.1-0.3,2.2-0.3,3.2,0.1c0.5,0.2,0.9,0.5,1.3,0.8L343.1,24.9z"/>
<path class="st3" d="M238.2,188.7c0.1,0,0.2,0,0.2,0.1l0.6,0.7c-0.3,0.4-0.8,0.8-1.3,1c-0.6,0.3-1.2,0.4-1.9,0.4
	c-0.6,0-1.2-0.1-1.7-0.3c-0.5-0.2-0.9-0.5-1.3-0.9c-0.4-0.4-0.7-0.9-0.8-1.4c-0.2-0.6-0.3-1.2-0.3-1.8c0-0.6,0.1-1.2,0.3-1.8
	c0.4-1.1,1.3-1.9,2.3-2.3c0.6-0.2,1.2-0.3,1.8-0.3c0.6,0,1.2,0.1,1.7,0.3c0.5,0.2,0.9,0.5,1.2,0.8l-0.5,0.8c0,0.1-0.1,0.1-0.1,0.1
	c-0.1,0-0.1,0-0.2,0c-0.1,0-0.2,0-0.3-0.1c-0.1-0.1-0.2-0.2-0.4-0.2c-0.2-0.1-0.4-0.2-0.6-0.2c-0.3-0.1-0.6-0.1-0.9-0.1
	c-0.4,0-0.8,0.1-1.1,0.2c-0.3,0.1-0.6,0.3-0.9,0.6c-0.3,0.3-0.5,0.6-0.6,1c-0.3,0.8-0.3,1.7,0,2.6c0.1,0.4,0.3,0.7,0.6,1
	c0.2,0.3,0.5,0.5,0.8,0.6c0.3,0.1,0.7,0.2,1,0.2c0.2,0,0.4,0,0.6,0c0.2,0,0.3-0.1,0.5-0.1c0.1-0.1,0.3-0.1,0.4-0.2
	c0.1-0.1,0.3-0.2,0.4-0.3c0,0,0.1-0.1,0.1-0.1C238.1,188.8,238.2,188.7,238.2,188.7z"/>
<path class="st3" d="M240.1,190.8v-8.9h1.5v3.4c0.2-0.2,0.5-0.4,0.8-0.6c0.6-0.3,1.3-0.3,1.9,0c0.2,0.1,0.5,0.3,0.6,0.5
	c0.2,0.2,0.3,0.5,0.4,0.7c0.1,0.3,0.1,0.7,0.1,1v3.9H244v-3.9c0-0.3-0.1-0.6-0.3-0.9c-0.2-0.2-0.5-0.3-0.8-0.3
	c-0.3,0-0.5,0.1-0.7,0.2c-0.2,0.1-0.4,0.3-0.6,0.5v4.5L240.1,190.8z"/>
<path class="st3" d="M251.6,190.8h-0.7c-0.1,0-0.2,0-0.3-0.1c-0.1-0.1-0.2-0.1-0.2-0.2l-0.1-0.4c-0.1,0.1-0.3,0.3-0.4,0.4
	c-0.1,0.1-0.3,0.2-0.5,0.3c-0.2,0.1-0.3,0.1-0.5,0.2c-0.2,0-0.4,0-0.6,0c-0.2,0-0.5,0-0.7-0.1c-0.2-0.1-0.4-0.2-0.6-0.3
	c-0.2-0.1-0.3-0.3-0.4-0.5c-0.1-0.2-0.1-0.5-0.1-0.7c0-0.2,0.1-0.5,0.2-0.7c0.1-0.3,0.4-0.5,0.6-0.6c0.4-0.2,0.7-0.4,1.1-0.4
	c0.6-0.1,1.2-0.2,1.8-0.2v-0.4c0-0.3-0.1-0.7-0.3-0.9c-0.2-0.2-0.5-0.3-0.8-0.3c-0.2,0-0.4,0-0.6,0.1c-0.1,0.1-0.3,0.1-0.4,0.2
	l-0.3,0.2c-0.1,0.1-0.2,0.1-0.3,0.1c-0.1,0-0.2,0-0.3-0.1c-0.1-0.1-0.1-0.1-0.2-0.2l-0.3-0.5c0.7-0.7,1.6-1,2.6-1c0.3,0,0.7,0,1,0.2
	c0.3,0.1,0.5,0.3,0.7,0.5c0.2,0.2,0.4,0.5,0.4,0.8c0.1,0.3,0.2,0.7,0.1,1L251.6,190.8z M248.7,189.8c0.1,0,0.3,0,0.4,0
	c0.1,0,0.3-0.1,0.4-0.1c0.1-0.1,0.2-0.1,0.3-0.2c0.1-0.1,0.2-0.2,0.3-0.3v-1c-0.4,0-0.7,0-1.1,0.1c-0.2,0-0.5,0.1-0.7,0.2
	c-0.1,0.1-0.3,0.2-0.4,0.3c-0.1,0.1-0.1,0.2-0.1,0.4c0,0.2,0.1,0.4,0.2,0.6C248.3,189.8,248.5,189.9,248.7,189.8z"/>
<path class="st3" d="M253,190.8v-6.2h0.9c0.1,0,0.2,0,0.3,0.1c0.1,0.1,0.1,0.2,0.1,0.3l0.1,0.8c0.2-0.4,0.5-0.7,0.8-0.9
	c0.3-0.2,0.6-0.3,1-0.3c0.3,0,0.5,0.1,0.8,0.2l-0.2,1.1c0,0.1,0,0.1-0.1,0.1c-0.1,0-0.1,0-0.2,0c-0.1,0-0.2,0-0.2,0
	c-0.1,0-0.3,0-0.4,0c-0.3,0-0.6,0.1-0.8,0.2c-0.2,0.2-0.4,0.5-0.6,0.8v3.8L253,190.8z"/>
<path class="st3" d="M260,190.9c-0.5,0-0.9-0.1-1.2-0.4c-0.3-0.3-0.5-0.8-0.4-1.2v-3.4h-0.6c-0.1,0-0.2,0-0.2-0.1
	c-0.1-0.1-0.1-0.1-0.1-0.2v-0.6l1-0.2l0.3-1.7c0-0.2,0.2-0.3,0.3-0.2h0.8v1.9h1.6v1.1h-1.6v3.3c0,0.2,0,0.3,0.1,0.4
	c0.1,0.1,0.2,0.2,0.4,0.2c0.1,0,0.2,0,0.2,0l0.2-0.1l0.1-0.1c0,0,0.1,0,0.1,0c0,0,0.1,0,0.1,0c0,0,0.1,0.1,0.1,0.1l0.5,0.7
	c-0.2,0.2-0.5,0.3-0.8,0.4C260.6,190.8,260.3,190.9,260,190.9z"/>
<path class="st3" d="M265,190.8v-8.9h1.5v3.5c0.2-0.3,0.5-0.5,0.8-0.6c0.3-0.2,0.7-0.2,1.1-0.2c0.3,0,0.6,0.1,0.9,0.2
	c0.3,0.1,0.5,0.3,0.7,0.6c0.2,0.3,0.4,0.6,0.5,1c0.1,0.4,0.2,0.9,0.2,1.3c0,0.4-0.1,0.9-0.2,1.3c-0.1,0.4-0.3,0.7-0.5,1
	c-0.2,0.3-0.5,0.5-0.8,0.7c-0.3,0.2-0.7,0.3-1.1,0.2c-0.2,0-0.3,0-0.5-0.1c-0.1,0-0.3-0.1-0.4-0.2c-0.1-0.1-0.2-0.2-0.4-0.2
	c-0.1-0.1-0.2-0.2-0.3-0.3l-0.1,0.4c0,0.2-0.2,0.3-0.4,0.3H265z M267.9,185.7c-0.3,0-0.5,0.1-0.8,0.2c-0.2,0.1-0.4,0.3-0.6,0.6v2.8
	c0.1,0.2,0.3,0.3,0.5,0.4c0.2,0.1,0.4,0.1,0.6,0.1c0.2,0,0.4,0,0.6-0.1c0.2-0.1,0.3-0.2,0.5-0.4c0.1-0.2,0.2-0.4,0.3-0.6
	c0.1-0.3,0.1-0.6,0.1-0.9c0-0.3,0-0.6-0.1-0.9c0-0.2-0.1-0.4-0.2-0.6c-0.1-0.2-0.2-0.3-0.4-0.4C268.2,185.7,268.1,185.7,267.9,185.7
	L267.9,185.7z"/>
<path class="st3" d="M276.5,190.8h-0.7c-0.1,0-0.2,0-0.3-0.1c-0.1-0.1-0.2-0.1-0.2-0.2l-0.1-0.4c-0.1,0.1-0.3,0.3-0.5,0.4
	c-0.1,0.1-0.3,0.2-0.5,0.3c-0.2,0.1-0.3,0.1-0.5,0.2c-0.2,0-0.4,0-0.6,0c-0.2,0-0.5,0-0.7-0.1c-0.2-0.1-0.4-0.2-0.6-0.3
	c-0.2-0.1-0.3-0.3-0.4-0.5c-0.1-0.2-0.1-0.5-0.1-0.7c0-0.2,0.1-0.5,0.2-0.7c0.1-0.3,0.4-0.5,0.6-0.6c0.4-0.2,0.7-0.4,1.1-0.4
	c0.6-0.1,1.2-0.2,1.8-0.2v-0.4c0-0.3-0.1-0.7-0.3-0.9c-0.2-0.2-0.5-0.3-0.8-0.3c-0.2,0-0.4,0-0.6,0.1c-0.1,0.1-0.3,0.1-0.4,0.2
	l-0.3,0.2c-0.1,0.1-0.2,0.1-0.3,0.1c-0.1,0-0.2,0-0.3-0.1c-0.1,0-0.1-0.1-0.2-0.2l-0.3-0.5c0.7-0.7,1.6-1,2.6-1c0.3,0,0.7,0,1,0.2
	c0.3,0.1,0.5,0.3,0.7,0.5c0.2,0.2,0.4,0.5,0.5,0.8c0.1,0.3,0.2,0.7,0.1,1L276.5,190.8z M273.6,189.8c0.1,0,0.3,0,0.4,0
	c0.1,0,0.3-0.1,0.4-0.1l0.3-0.2c0.1-0.1,0.2-0.2,0.3-0.3v-1c-0.4,0-0.7,0-1.1,0.1c-0.2,0-0.5,0.1-0.7,0.2c-0.1,0.1-0.3,0.2-0.4,0.3
	c-0.1,0.1-0.1,0.2-0.1,0.4c0,0.2,0.1,0.4,0.2,0.6C273.2,189.8,273.4,189.9,273.6,189.8z"/>
<path class="st3" d="M281.6,185.8c0,0.1-0.1,0.1-0.1,0.1c-0.1,0-0.1,0-0.2,0c-0.1,0-0.2,0-0.2-0.1l-0.3-0.1
	c-0.1-0.1-0.2-0.1-0.4-0.1c-0.2,0-0.3-0.1-0.5-0.1c-0.2,0-0.5,0.1-0.7,0.2c-0.2,0.1-0.3,0.3-0.2,0.5c0,0.1,0,0.2,0.1,0.3
	c0.1,0.1,0.2,0.2,0.3,0.2c0.2,0.1,0.3,0.1,0.5,0.2l0.5,0.2c0.2,0.1,0.4,0.1,0.5,0.2c0.2,0.1,0.3,0.2,0.5,0.3
	c0.1,0.1,0.3,0.3,0.3,0.4c0.1,0.2,0.1,0.4,0.1,0.6c0,0.3-0.1,0.6-0.2,0.8c-0.1,0.2-0.3,0.5-0.5,0.6c-0.2,0.2-0.5,0.3-0.8,0.4
	c-0.3,0.1-0.7,0.2-1.1,0.1c-0.2,0-0.4,0-0.6-0.1c-0.2,0-0.4-0.1-0.6-0.1c-0.2-0.1-0.3-0.1-0.5-0.2c-0.1-0.1-0.3-0.2-0.4-0.3l0.3-0.6
	c0.1-0.1,0.2-0.2,0.4-0.2c0.1,0,0.2,0,0.3,0.1l0.3,0.2c0.1,0.1,0.3,0.1,0.4,0.2c0.2,0.1,0.4,0.1,0.6,0.1c0.2,0,0.3,0,0.5-0.1
	c0.1,0,0.2-0.1,0.3-0.2c0.1-0.1,0.1-0.1,0.2-0.2c0-0.1,0.1-0.2,0.1-0.3c0-0.1,0-0.3-0.1-0.4c-0.1-0.1-0.2-0.2-0.3-0.2
	c-0.2-0.1-0.3-0.1-0.5-0.2l-0.6-0.2c-0.2-0.1-0.4-0.1-0.6-0.2c-0.2-0.1-0.3-0.2-0.5-0.3c-0.1-0.1-0.3-0.3-0.3-0.5
	c-0.1-0.2-0.1-0.5-0.1-0.7c0-0.2,0.1-0.5,0.1-0.7c0.1-0.2,0.3-0.4,0.4-0.6c0.2-0.2,0.5-0.3,0.7-0.4c0.3-0.1,0.7-0.2,1-0.2
	c0.4,0,0.8,0.1,1.2,0.2c0.3,0.1,0.6,0.3,0.9,0.6L281.6,185.8z"/>
<path class="st3" d="M285.6,184.5c0.4,0,0.7,0.1,1.1,0.2c0.3,0.1,0.6,0.3,0.8,0.5c0.2,0.3,0.4,0.6,0.5,0.9c0.1,0.4,0.2,0.8,0.2,1.2
	c0,0.1,0,0.2,0,0.3c0,0.1,0,0.1,0,0.2c0,0-0.1,0.1-0.1,0.1H288h-3.8c0,0.5,0.2,1,0.5,1.4c0.3,0.3,0.7,0.5,1.2,0.4
	c0.2,0,0.4,0,0.6-0.1c0.2,0,0.3-0.1,0.5-0.2l0.4-0.2c0.1,0,0.2-0.1,0.3-0.1c0.1,0,0.1,0,0.2,0c0,0,0.1,0.1,0.1,0.1l0.4,0.5
	c-0.2,0.2-0.3,0.4-0.5,0.5c-0.2,0.1-0.4,0.2-0.6,0.3c-0.2,0.1-0.4,0.1-0.7,0.2c-0.2,0-0.4,0-0.7,0c-0.4,0-0.8-0.1-1.2-0.2
	c-0.4-0.1-0.7-0.3-1-0.6c-0.3-0.3-0.5-0.6-0.6-1c-0.2-0.5-0.2-0.9-0.2-1.4c0-0.4,0.1-0.8,0.2-1.2c0.1-0.4,0.3-0.7,0.6-1
	c0.3-0.3,0.6-0.5,0.9-0.6C284.8,184.5,285.2,184.5,285.6,184.5z M285.6,185.6c-0.4,0-0.7,0.1-1,0.4c-0.3,0.3-0.4,0.6-0.5,1h2.8
	c0-0.2,0-0.4-0.1-0.5c0-0.2-0.1-0.3-0.2-0.4c-0.1-0.1-0.3-0.2-0.4-0.3C286.1,185.6,285.9,185.5,285.6,185.6L285.6,185.6z"/>
<path class="st3" d="M293.8,190.8c-0.2,0-0.3-0.1-0.4-0.3l-0.1-0.6c-0.1,0.1-0.3,0.3-0.4,0.4c-0.1,0.1-0.3,0.2-0.5,0.3
	c-0.2,0.1-0.3,0.2-0.5,0.2c-0.2,0-0.4,0.1-0.6,0.1c-0.3,0-0.6-0.1-0.9-0.2c-0.3-0.1-0.5-0.4-0.7-0.6c-0.2-0.3-0.4-0.6-0.5-1
	c-0.1-0.4-0.2-0.9-0.2-1.3c0-0.4,0.1-0.9,0.2-1.3c0.1-0.4,0.3-0.7,0.5-1c0.2-0.3,0.5-0.5,0.8-0.7c0.3-0.2,0.7-0.2,1.1-0.2
	c0.3,0,0.6,0,0.9,0.2c0.2,0.1,0.5,0.3,0.7,0.4v-3.2h1.5v8.9L293.8,190.8z M291.8,189.7c0.3,0,0.5-0.1,0.8-0.2
	c0.2-0.1,0.4-0.3,0.6-0.6v-2.8c-0.1-0.2-0.3-0.3-0.5-0.4c-0.2-0.1-0.4-0.1-0.6-0.1c-0.2,0-0.4,0-0.6,0.1c-0.2,0.1-0.3,0.2-0.5,0.4
	c-0.1,0.2-0.2,0.4-0.3,0.6c-0.1,0.3-0.1,0.6-0.1,0.9c0,0.3,0,0.6,0.1,0.9c0,0.2,0.1,0.4,0.2,0.6c0.1,0.2,0.2,0.3,0.4,0.3
	C291.5,189.6,291.7,189.7,291.8,189.7L291.8,189.7z"/>
<path class="st3" d="M301.3,184.5c0.4,0,0.9,0.1,1.2,0.2c0.4,0.1,0.7,0.3,1,0.6c0.3,0.3,0.5,0.6,0.6,1c0.1,0.4,0.2,0.9,0.2,1.3
	c0,0.4-0.1,0.9-0.2,1.3c-0.1,0.4-0.3,0.7-0.6,1c-0.3,0.3-0.6,0.5-1,0.6c-0.4,0.2-0.8,0.2-1.2,0.2c-0.4,0-0.9-0.1-1.3-0.2
	c-0.4-0.1-0.7-0.3-1-0.6c-0.3-0.3-0.5-0.6-0.6-1c-0.1-0.4-0.2-0.9-0.2-1.3c0-0.4,0.1-0.9,0.2-1.3c0.1-0.4,0.3-0.7,0.6-1
	c0.3-0.3,0.6-0.5,1-0.6C300.4,184.6,300.9,184.5,301.3,184.5z M301.3,189.7c0.4,0,0.9-0.2,1.1-0.5c0.3-0.5,0.4-1,0.4-1.5
	c0-0.5-0.1-1.1-0.4-1.5c-0.3-0.4-0.7-0.6-1.1-0.5c-0.4,0-0.9,0.2-1.2,0.5c-0.3,0.5-0.4,1-0.4,1.5c0,0.5,0.1,1.1,0.4,1.5
	C300.4,189.5,300.9,189.7,301.3,189.7z"/>
<path class="st3" d="M305.4,190.8v-6.2h0.9c0.2,0,0.3,0.1,0.4,0.3l0.1,0.5c0.1-0.1,0.3-0.2,0.4-0.4c0.1-0.1,0.3-0.2,0.4-0.3
	c0.2-0.1,0.3-0.1,0.5-0.2c0.2,0,0.4-0.1,0.6-0.1c0.3,0,0.6,0.1,0.9,0.2c0.2,0.1,0.5,0.3,0.6,0.5c0.2,0.2,0.3,0.5,0.4,0.7
	c0.1,0.3,0.1,0.7,0.1,1v3.9h-1.5v-3.9c0-0.3-0.1-0.6-0.3-0.9c-0.2-0.2-0.5-0.3-0.8-0.3c-0.3,0-0.5,0.1-0.7,0.2
	c-0.2,0.1-0.5,0.3-0.6,0.5v4.5L305.4,190.8z"/>
<path class="st3" d="M319.4,190.8h-0.7c-0.1,0-0.2,0-0.3-0.1c-0.1-0.1-0.2-0.1-0.2-0.2l-0.1-0.4c-0.1,0.1-0.3,0.3-0.5,0.4
	c-0.1,0.1-0.3,0.2-0.5,0.3c-0.2,0.1-0.3,0.1-0.5,0.2c-0.2,0-0.4,0-0.6,0c-0.2,0-0.5,0-0.7-0.1c-0.2-0.1-0.4-0.2-0.6-0.3
	c-0.2-0.1-0.3-0.3-0.4-0.5c-0.1-0.2-0.1-0.5-0.1-0.7c0-0.2,0.1-0.5,0.2-0.7c0.2-0.3,0.4-0.5,0.6-0.6c0.4-0.2,0.7-0.4,1.1-0.4
	c0.6-0.1,1.2-0.2,1.8-0.2v-0.4c0-0.3-0.1-0.7-0.3-0.9c-0.2-0.2-0.5-0.3-0.8-0.3c-0.2,0-0.4,0-0.6,0.1c-0.1,0.1-0.3,0.1-0.4,0.2
	l-0.3,0.2c-0.1,0.1-0.2,0.1-0.3,0.1c-0.1,0-0.2,0-0.3-0.1c-0.1,0-0.1-0.1-0.2-0.2l-0.3-0.5c0.7-0.7,1.6-1,2.6-1c0.3,0,0.7,0,1,0.2
	c0.3,0.1,0.5,0.3,0.7,0.5c0.2,0.2,0.4,0.5,0.5,0.8c0.1,0.3,0.2,0.7,0.1,1L319.4,190.8z M316.5,189.8c0.1,0,0.3,0,0.4,0
	c0.1,0,0.2-0.1,0.4-0.1c0.1-0.1,0.2-0.1,0.3-0.2c0.1-0.1,0.2-0.2,0.3-0.3v-1c-0.4,0-0.7,0-1.1,0.1c-0.2,0-0.5,0.1-0.7,0.2
	c-0.1,0.1-0.3,0.2-0.4,0.3c-0.1,0.1-0.1,0.2-0.1,0.4c0,0.2,0.1,0.4,0.2,0.6C316.1,189.8,316.3,189.9,316.5,189.8z"/>
<path class="st3" d="M323.4,190.8v-5l-0.5-0.1c-0.1,0-0.2-0.1-0.3-0.1c-0.1-0.1-0.1-0.2-0.1-0.2v-0.6h0.9v-0.2
	c0-0.4,0.1-0.7,0.2-1.1c0.1-0.3,0.3-0.6,0.6-0.8c0.3-0.2,0.6-0.4,1-0.6c0.4-0.1,0.9-0.2,1.4-0.2c0.2,0,0.3,0,0.5,0
	c0.2,0,0.3,0,0.5,0.1v0.8c0,0.1-0.1,0.2-0.1,0.2c-0.1,0-0.2,0-0.3,0c-0.3,0-0.7,0-1,0.1c-0.2,0.1-0.4,0.2-0.6,0.3
	c-0.2,0.1-0.3,0.3-0.4,0.5c-0.1,0.2-0.1,0.5-0.1,0.7v0.1h3.8v6.1h-1.5v-5h-2.3v5L323.4,190.8z"/>
<path class="st3" d="M333.3,190.8H332l-2.4-6.2h1.2c0.1,0,0.2,0,0.3,0.1c0.1,0.1,0.1,0.1,0.1,0.2l1.2,3.3c0.1,0.2,0.1,0.4,0.2,0.6
	c0,0.2,0.1,0.4,0.1,0.6c0-0.2,0.1-0.4,0.1-0.6c0-0.2,0.1-0.4,0.2-0.6l1.2-3.3c0-0.1,0.1-0.1,0.1-0.2c0.1-0.1,0.2-0.1,0.3-0.1h1.2
	L333.3,190.8z"/>
<path class="st3" d="M338.9,184.5c0.4,0,0.7,0.1,1.1,0.2c0.3,0.1,0.6,0.3,0.8,0.5c0.2,0.3,0.4,0.6,0.6,0.9c0.1,0.4,0.2,0.8,0.2,1.2
	c0,0.1,0,0.2,0,0.3c0,0.1,0,0.1-0.1,0.2c0,0-0.1,0.1-0.1,0.1h-0.2h-3.8c0,0.5,0.2,1,0.5,1.4c0.3,0.3,0.7,0.5,1.2,0.4
	c0.2,0,0.4,0,0.6-0.1c0.2-0.1,0.3-0.1,0.5-0.2l0.3-0.2c0.1,0,0.2-0.1,0.3-0.1c0,0,0.1,0,0.1,0c0.1,0,0.1,0.1,0.1,0.1l0.4,0.5
	c-0.2,0.2-0.3,0.3-0.5,0.5c-0.2,0.1-0.4,0.2-0.6,0.3c-0.2,0.1-0.4,0.1-0.7,0.2c-0.2,0-0.4,0-0.7,0c-0.4,0-0.8-0.1-1.2-0.2
	c-0.4-0.1-0.7-0.3-1-0.6c-0.3-0.3-0.5-0.6-0.6-1c-0.2-0.5-0.2-0.9-0.2-1.4c0-0.4,0.1-0.8,0.2-1.2c0.1-0.4,0.3-0.7,0.6-1
	c0.3-0.3,0.6-0.5,0.9-0.6C338.1,184.5,338.5,184.5,338.9,184.5z M338.9,185.6c-0.4,0-0.7,0.1-1,0.4c-0.3,0.3-0.4,0.6-0.5,1h2.8
	c0-0.2,0-0.4-0.1-0.5c0-0.2-0.1-0.3-0.2-0.4c-0.1-0.1-0.2-0.2-0.4-0.3C339.3,185.6,339.2,185.6,338.9,185.6L338.9,185.6z"/>
<path class="st3" d="M342.6,186.5h3.1v1.2h-3.1V186.5z"/>
<path class="st3" d="M349,192.4c0,0.1-0.1,0.2-0.2,0.2c-0.1,0.1-0.2,0.1-0.3,0.1h-1.1l1.1-2.5l-2.5-5.7h1.3c0.1,0,0.2,0,0.3,0.1
	c0.1,0.1,0.1,0.1,0.1,0.2l1.3,3.2c0,0.1,0.1,0.2,0.1,0.3c0,0.1,0.1,0.2,0.1,0.3c0-0.1,0.1-0.2,0.1-0.3c0-0.1,0.1-0.2,0.1-0.3
	l1.2-3.2c0-0.1,0.1-0.2,0.2-0.2c0.1-0.1,0.2-0.1,0.2-0.1h1.2L349,192.4z"/>
<path class="st3" d="M355.5,184.5c0.4,0,0.7,0.1,1.1,0.2c0.3,0.1,0.6,0.3,0.8,0.5c0.2,0.3,0.4,0.6,0.5,0.9c0.1,0.4,0.2,0.8,0.2,1.2
	c0,0.1,0,0.2,0,0.3c0,0.1,0,0.1,0,0.2c0,0-0.1,0.1-0.1,0.1h-0.2H354c0,0.5,0.2,1,0.5,1.4c0.3,0.3,0.7,0.5,1.2,0.4
	c0.2,0,0.4,0,0.6-0.1c0.2-0.1,0.3-0.1,0.5-0.2l0.3-0.2c0.1,0,0.2-0.1,0.3-0.1c0.1,0,0.1,0,0.2,0c0,0,0.1,0.1,0.1,0.1l0.4,0.5
	c-0.2,0.2-0.3,0.4-0.5,0.5c-0.2,0.1-0.4,0.2-0.6,0.3c-0.2,0.1-0.4,0.1-0.7,0.2c-0.2,0-0.4,0-0.7,0c-0.4,0-0.8-0.1-1.2-0.2
	c-0.4-0.1-0.7-0.3-1-0.6c-0.3-0.3-0.5-0.6-0.6-1c-0.2-0.5-0.2-0.9-0.2-1.4c0-0.4,0.1-0.8,0.2-1.2c0.1-0.4,0.3-0.7,0.6-1
	c0.3-0.3,0.6-0.5,0.9-0.6C354.6,184.5,355,184.5,355.5,184.5z M355.5,185.6c-0.4,0-0.7,0.1-1,0.4c-0.3,0.3-0.4,0.6-0.5,1h2.8
	c0-0.2,0-0.4-0.1-0.5c0-0.2-0.1-0.3-0.2-0.4c-0.1-0.1-0.3-0.2-0.4-0.3C355.9,185.6,355.7,185.6,355.5,185.6L355.5,185.6z"/>
<path class="st3" d="M364,190.8h-0.7c-0.1,0-0.2,0-0.3-0.1c-0.1-0.1-0.2-0.1-0.2-0.2l-0.1-0.4c-0.2,0.1-0.3,0.3-0.5,0.4
	c-0.1,0.1-0.3,0.2-0.5,0.3c-0.2,0.1-0.3,0.1-0.5,0.2c-0.2,0-0.4,0-0.6,0c-0.2,0-0.5,0-0.7-0.1c-0.2-0.1-0.4-0.2-0.6-0.3
	c-0.2-0.1-0.3-0.3-0.4-0.5c-0.1-0.2-0.1-0.5-0.1-0.7c0-0.2,0.1-0.5,0.2-0.7c0.1-0.3,0.4-0.5,0.6-0.6c0.4-0.2,0.7-0.4,1.1-0.4
	c0.6-0.1,1.2-0.2,1.8-0.2v-0.4c0-0.3-0.1-0.7-0.3-0.9c-0.2-0.2-0.5-0.3-0.8-0.3c-0.2,0-0.4,0-0.6,0.1c-0.1,0.1-0.3,0.1-0.4,0.2
	l-0.3,0.2c-0.1,0.1-0.2,0.1-0.3,0.1c-0.1,0-0.2,0-0.2-0.1c-0.1,0-0.1-0.1-0.2-0.2l-0.3-0.5c0.7-0.7,1.6-1,2.6-1c0.3,0,0.7,0,1,0.2
	c0.3,0.1,0.5,0.3,0.7,0.5c0.2,0.2,0.4,0.5,0.5,0.8c0.1,0.3,0.2,0.7,0.1,1L364,190.8z M361.1,189.8c0.1,0,0.3,0,0.4,0
	c0.1,0,0.3-0.1,0.4-0.1c0.1-0.1,0.2-0.1,0.3-0.2c0.1-0.1,0.2-0.2,0.3-0.3v-1c-0.4,0-0.7,0-1.1,0.1c-0.2,0-0.5,0.1-0.7,0.2
	c-0.2,0.1-0.3,0.2-0.4,0.3c-0.1,0.1-0.1,0.2-0.1,0.4c0,0.2,0.1,0.4,0.2,0.6C360.7,189.8,360.9,189.9,361.1,189.8L361.1,189.8z"/>
<path class="st3" d="M365.4,190.8v-6.2h0.9c0.1,0,0.2,0,0.3,0.1c0.1,0.1,0.1,0.2,0.1,0.3l0.1,0.8c0.2-0.4,0.5-0.7,0.8-0.9
	c0.3-0.2,0.6-0.3,1-0.3c0.3,0,0.5,0.1,0.8,0.2l-0.2,1.1c0,0.1,0,0.1-0.1,0.1c-0.1,0-0.1,0-0.2,0c-0.1,0-0.2,0-0.2,0
	c-0.1,0-0.3,0-0.4,0c-0.3,0-0.6,0.1-0.8,0.2c-0.2,0.2-0.4,0.5-0.6,0.8v3.8L365.4,190.8z"/>
<path class="st3" d="M377.5,190.8h-0.7c-0.1,0-0.2,0-0.3-0.1c-0.1-0.1-0.2-0.1-0.2-0.2l-0.1-0.4c-0.1,0.1-0.3,0.3-0.5,0.4
	c-0.1,0.1-0.3,0.2-0.5,0.3c-0.2,0.1-0.3,0.1-0.5,0.2c-0.2,0-0.4,0-0.6,0c-0.2,0-0.5,0-0.7-0.1c-0.2-0.1-0.4-0.2-0.6-0.3
	c-0.2-0.1-0.3-0.3-0.4-0.5c-0.1-0.2-0.1-0.5-0.1-0.7c0-0.2,0.1-0.5,0.2-0.7c0.1-0.3,0.4-0.5,0.6-0.6c0.4-0.2,0.7-0.4,1.1-0.4
	c0.6-0.1,1.2-0.2,1.8-0.2v-0.4c0-0.3-0.1-0.7-0.3-0.9c-0.2-0.2-0.5-0.3-0.8-0.3c-0.2,0-0.4,0-0.6,0.1c-0.1,0-0.3,0.1-0.4,0.2
	l-0.3,0.2c-0.1,0.1-0.2,0.1-0.3,0.1c-0.1,0-0.2,0-0.3-0.1c-0.1,0-0.1-0.1-0.2-0.2l-0.3-0.5c0.7-0.7,1.6-1,2.6-1c0.3,0,0.7,0,1,0.2
	c0.3,0.1,0.5,0.3,0.7,0.5c0.2,0.2,0.4,0.5,0.5,0.8c0.1,0.3,0.2,0.7,0.1,1L377.5,190.8z M374.6,189.8c0.1,0,0.3,0,0.4,0
	c0.1,0,0.2-0.1,0.4-0.1c0.1-0.1,0.2-0.1,0.3-0.2c0.1-0.1,0.2-0.2,0.3-0.3v-1c-0.4,0-0.7,0-1.1,0.1c-0.2,0-0.5,0.1-0.7,0.2
	c-0.1,0.1-0.3,0.2-0.4,0.3c-0.1,0.1-0.1,0.2-0.1,0.4c0,0.2,0.1,0.4,0.2,0.6C374.2,189.8,374.4,189.9,374.6,189.8z"/>
<path class="st3" d="M381.7,190.8h-1.3l-2.5-6.2h1.2c0.1,0,0.2,0,0.3,0.1c0.1,0,0.1,0.1,0.2,0.2l1.2,3.3c0.1,0.2,0.1,0.4,0.2,0.6
	c0,0.2,0.1,0.4,0.1,0.6c0-0.2,0.1-0.4,0.1-0.6s0.1-0.4,0.2-0.6l1.2-3.3c0-0.1,0.1-0.2,0.1-0.2c0.1-0.1,0.2-0.1,0.2-0.1h1.2
	L381.7,190.8z"/>
<path class="st3" d="M387.3,184.5c0.4,0,0.7,0.1,1.1,0.2c0.3,0.1,0.6,0.3,0.8,0.5c0.2,0.3,0.4,0.6,0.5,0.9c0.1,0.4,0.2,0.8,0.2,1.2
	c0,0.1,0,0.2,0,0.3c0,0.1,0,0.1,0,0.2c0,0-0.1,0.1-0.1,0.1h-0.2h-3.8c0,0.5,0.2,1,0.5,1.4c0.3,0.3,0.7,0.5,1.2,0.4
	c0.2,0,0.4,0,0.6-0.1c0.2-0.1,0.3-0.1,0.5-0.2l0.3-0.2c0.1,0,0.2-0.1,0.3-0.1c0.1,0,0.1,0,0.2,0c0,0,0.1,0.1,0.1,0.1l0.4,0.5
	c-0.2,0.2-0.3,0.4-0.5,0.5c-0.2,0.1-0.4,0.2-0.6,0.3c-0.2,0.1-0.4,0.1-0.7,0.2c-0.2,0-0.4,0-0.7,0c-0.4,0-0.8-0.1-1.2-0.2
	c-0.4-0.1-0.7-0.3-1-0.6c-0.3-0.3-0.5-0.6-0.6-1c-0.2-0.5-0.2-0.9-0.2-1.4c0-0.4,0.1-0.8,0.2-1.2c0.1-0.4,0.3-0.7,0.6-1
	c0.3-0.3,0.6-0.5,0.9-0.6C386.4,184.5,386.9,184.5,387.3,184.5z M387.3,185.6c-0.4,0-0.7,0.1-1,0.4c-0.3,0.3-0.4,0.6-0.5,1h2.8
	c0-0.2,0-0.4-0.1-0.5c0-0.2-0.1-0.3-0.2-0.4c-0.1-0.1-0.3-0.2-0.4-0.3C387.7,185.6,387.5,185.6,387.3,185.6L387.3,185.6z"/>
<path class="st3" d="M391.1,190.8v-6.2h0.9c0.1,0,0.2,0,0.3,0.1c0.1,0.1,0.1,0.2,0.1,0.3l0.1,0.8c0.2-0.3,0.5-0.7,0.8-0.9
	c0.3-0.2,0.6-0.3,1-0.3c0.3,0,0.5,0.1,0.8,0.2l-0.2,1.1c0,0.1,0,0.1-0.1,0.1c-0.1,0-0.1,0-0.2,0c-0.1,0-0.2,0-0.2,0
	c-0.1,0-0.3,0-0.4,0c-0.3,0-0.6,0.1-0.8,0.2c-0.2,0.2-0.4,0.5-0.6,0.8v3.8L391.1,190.8z"/>
<path class="st3" d="M400.7,190.8H400c-0.1,0-0.2,0-0.3-0.1c-0.1-0.1-0.2-0.1-0.2-0.2l-0.1-0.4c-0.2,0.1-0.3,0.3-0.5,0.4
	c-0.1,0.1-0.3,0.2-0.5,0.3c-0.2,0.1-0.3,0.1-0.5,0.2c-0.2,0-0.4,0-0.6,0c-0.2,0-0.5,0-0.7-0.1c-0.2-0.1-0.4-0.2-0.6-0.3
	c-0.2-0.1-0.3-0.3-0.4-0.5c-0.1-0.2-0.1-0.5-0.1-0.7c0-0.2,0.1-0.5,0.2-0.7c0.1-0.3,0.4-0.5,0.6-0.6c0.4-0.2,0.7-0.4,1.1-0.4
	c0.6-0.1,1.2-0.2,1.8-0.2v-0.4c0-0.3-0.1-0.6-0.2-0.8c-0.2-0.2-0.5-0.3-0.8-0.3c-0.2,0-0.4,0-0.6,0.1c-0.1,0.1-0.3,0.1-0.4,0.2
	l-0.3,0.2c-0.1,0.1-0.2,0.1-0.3,0.1c-0.1,0-0.2,0-0.2-0.1c-0.1,0-0.1-0.1-0.2-0.2l-0.3-0.5c0.7-0.7,1.6-1,2.6-1c0.3,0,0.7,0,1,0.2
	c0.3,0.1,0.5,0.3,0.7,0.5c0.2,0.2,0.4,0.5,0.5,0.8c0.1,0.3,0.2,0.7,0.1,1L400.7,190.8z M397.8,189.8c0.1,0,0.3,0,0.4,0
	c0.1,0,0.3-0.1,0.4-0.1c0.1-0.1,0.2-0.1,0.3-0.2c0.1-0.1,0.2-0.2,0.3-0.3v-1c-0.4,0-0.7,0-1.1,0.1c-0.2,0-0.5,0.1-0.7,0.2
	c-0.2,0.1-0.3,0.2-0.4,0.3c-0.1,0.1-0.1,0.2-0.1,0.4c0,0.2,0.1,0.4,0.2,0.6C397.4,189.8,397.6,189.9,397.8,189.8z"/>
<path class="st3" d="M404.2,184.5c0.2,0,0.5,0,0.7,0.1c0.2,0.1,0.4,0.1,0.6,0.2h1.8v0.6c0,0.1,0,0.2-0.1,0.2
	c-0.1,0.1-0.2,0.1-0.2,0.1l-0.5,0.1c0,0.1,0.1,0.2,0.1,0.3c0,0.1,0,0.2,0,0.4c0,0.3-0.1,0.6-0.2,0.8c-0.1,0.2-0.3,0.5-0.5,0.6
	c-0.2,0.2-0.5,0.3-0.8,0.4c-0.3,0.1-0.6,0.2-1,0.1c-0.2,0-0.5,0-0.7-0.1c-0.2,0.1-0.3,0.2-0.3,0.4c0,0.1,0.1,0.2,0.2,0.3
	c0.1,0.1,0.3,0.1,0.5,0.1c0.2,0,0.4,0,0.6,0h0.7c0.2,0,0.5,0.1,0.7,0.1c0.2,0,0.4,0.1,0.6,0.2c0.2,0.1,0.3,0.3,0.5,0.4
	c0.1,0.2,0.2,0.5,0.2,0.7c0,0.3-0.1,0.6-0.2,0.8c-0.1,0.3-0.3,0.5-0.6,0.7c-0.3,0.2-0.6,0.4-0.9,0.5c-0.4,0.1-0.8,0.2-1.3,0.2
	c-0.4,0-0.8,0-1.2-0.1c-0.3-0.1-0.6-0.2-0.9-0.4c-0.2-0.1-0.4-0.3-0.5-0.5c-0.1-0.2-0.2-0.4-0.2-0.6c0-0.3,0.1-0.5,0.3-0.7
	c0.2-0.2,0.5-0.4,0.7-0.5c-0.1-0.1-0.3-0.2-0.4-0.3c-0.1-0.2-0.2-0.4-0.1-0.6c0-0.1,0-0.2,0-0.3c0-0.1,0.1-0.2,0.1-0.3
	c0.1-0.1,0.2-0.2,0.2-0.3c0.1-0.1,0.2-0.2,0.4-0.2c-0.3-0.2-0.6-0.4-0.7-0.7c-0.2-0.3-0.3-0.6-0.3-1c0-0.3,0.1-0.6,0.2-0.8
	c0.1-0.2,0.3-0.5,0.5-0.6c0.2-0.2,0.5-0.3,0.8-0.4C403.5,184.5,403.9,184.5,404.2,184.5z M405.8,191c0-0.1,0-0.2-0.1-0.3
	c-0.1-0.1-0.2-0.1-0.3-0.2c-0.1,0-0.3-0.1-0.4-0.1c-0.2,0-0.3,0-0.5,0h-0.6c-0.2,0-0.4,0-0.6-0.1c-0.2,0.1-0.3,0.2-0.4,0.3
	c-0.1,0.1-0.2,0.3-0.1,0.4c0,0.1,0,0.2,0.1,0.3c0.1,0.1,0.2,0.2,0.3,0.2c0.1,0.1,0.3,0.1,0.5,0.2c0.2,0,0.5,0.1,0.7,0.1
	c0.2,0,0.5,0,0.7-0.1c0.2,0,0.3-0.1,0.5-0.2c0.1-0.1,0.2-0.2,0.3-0.3C405.8,191.3,405.8,191.1,405.8,191L405.8,191z M404.2,187.5
	c0.2,0,0.3,0,0.5-0.1c0.1,0,0.2-0.1,0.3-0.2c0.1-0.1,0.2-0.2,0.2-0.3c0-0.1,0.1-0.3,0.1-0.4c0-0.3-0.1-0.5-0.3-0.7
	c-0.2-0.2-0.5-0.3-0.8-0.3c-0.3,0-0.6,0.1-0.8,0.3c-0.2,0.2-0.3,0.5-0.3,0.7c0,0.1,0,0.3,0.1,0.4c0.1,0.2,0.3,0.4,0.5,0.5
	C403.9,187.5,404,187.5,404.2,187.5L404.2,187.5z"/>
<path class="st3" d="M410.7,184.5c0.4,0,0.7,0.1,1.1,0.2c0.7,0.2,1.2,0.8,1.4,1.4c0.1,0.4,0.2,0.8,0.2,1.2c0,0.1,0,0.2,0,0.3
	c0,0.1,0,0.1-0.1,0.2c0,0-0.1,0.1-0.1,0.1H413h-3.8c0,0.5,0.2,1,0.5,1.4c0.3,0.3,0.7,0.5,1.2,0.4c0.2,0,0.4,0,0.6-0.1
	c0.2-0.1,0.3-0.1,0.5-0.2l0.3-0.2c0.1,0,0.2-0.1,0.3-0.1c0,0,0.1,0,0.1,0c0,0,0.1,0.1,0.1,0.1l0.4,0.5c-0.2,0.2-0.3,0.3-0.5,0.5
	c-0.2,0.1-0.4,0.2-0.6,0.3c-0.2,0.1-0.4,0.1-0.7,0.2c-0.2,0-0.4,0-0.7,0c-0.4,0-0.8-0.1-1.2-0.2c-0.4-0.1-0.7-0.3-1-0.6
	c-0.3-0.3-0.5-0.6-0.6-1c-0.2-0.5-0.2-0.9-0.2-1.4c0-0.4,0.1-0.8,0.2-1.2c0.1-0.4,0.3-0.7,0.6-1c0.3-0.3,0.6-0.5,0.9-0.6
	C409.8,184.5,410.2,184.5,410.7,184.5z M410.7,185.6c-0.4,0-0.7,0.1-1,0.4c-0.3,0.3-0.4,0.6-0.5,1h2.8c0-0.2,0-0.4-0.1-0.5
	c0-0.2-0.1-0.3-0.2-0.4c-0.1-0.1-0.2-0.2-0.4-0.3C411.1,185.6,410.9,185.5,410.7,185.6L410.7,185.6z"/>
<path class="st3" d="M414.1,189.9c0-0.1,0-0.2,0.1-0.4c0.2-0.5,0.7-0.7,1.2-0.5c0,0,0,0,0,0c0.1,0,0.2,0.1,0.3,0.2
	c0.1,0.1,0.1,0.2,0.2,0.3c0,0.1,0.1,0.2,0.1,0.4c0,0.1,0,0.2-0.1,0.4c0,0.1-0.1,0.2-0.2,0.3c-0.1,0.1-0.2,0.1-0.3,0.2
	c-0.1,0-0.2,0.1-0.4,0.1c-0.1,0-0.2,0-0.4-0.1c-0.1,0-0.2-0.1-0.3-0.2c-0.1-0.1-0.1-0.2-0.2-0.3
	C414.2,190.2,414.2,190.1,414.1,189.9z"/>
<path class="st3" d="M278.4,73.4c0.1,0,0.3,0.1,0.3,0.2l1,1c-0.5,0.6-1.2,1.2-1.9,1.5c-1.7,0.7-3.6,0.7-5.4,0
	c-0.8-0.3-1.4-0.8-2-1.4c-0.6-0.6-1-1.3-1.2-2.1c-0.3-0.9-0.4-1.7-0.4-2.7c0-0.9,0.2-1.8,0.5-2.7c0.3-0.8,0.8-1.5,1.4-2.1
	c0.6-0.6,1.3-1.1,2.1-1.4c0.9-0.3,1.8-0.5,2.7-0.5c0.9,0,1.7,0.1,2.5,0.5c0.7,0.3,1.3,0.7,1.9,1.2l-0.8,1.1
	c-0.1,0.1-0.1,0.1-0.2,0.2c-0.1,0.1-0.2,0.1-0.3,0.1c-0.2,0-0.3-0.1-0.4-0.2c-0.1-0.1-0.3-0.2-0.5-0.3c-0.3-0.1-0.5-0.3-0.8-0.3
	c-0.4-0.1-0.8-0.2-1.3-0.2c-0.6,0-1.1,0.1-1.7,0.3c-0.5,0.2-0.9,0.5-1.3,0.9c-0.4,0.4-0.7,0.9-0.9,1.4c-0.2,0.6-0.3,1.3-0.3,1.9
	c0,0.7,0.1,1.3,0.3,1.9c0.2,0.5,0.5,1,0.8,1.4c0.3,0.4,0.8,0.7,1.2,0.9c0.5,0.2,1,0.3,1.5,0.3c0.3,0,0.6,0,0.9-0.1
	c0.2,0,0.5-0.1,0.7-0.2c0.2-0.1,0.4-0.2,0.6-0.3c0.2-0.1,0.4-0.3,0.6-0.5l0.2-0.1C278.3,73.4,278.3,73.4,278.4,73.4z"/>
<path class="st3" d="M285,67.1c0.6,0,1.3,0.1,1.9,0.3c0.5,0.2,1,0.5,1.4,0.9c0.4,0.4,0.7,0.9,0.9,1.5c0.2,0.6,0.3,1.3,0.3,2
	c0,0.7-0.1,1.4-0.3,2c-0.2,0.6-0.5,1.1-0.9,1.5c-0.4,0.4-0.9,0.7-1.4,0.9c-1.2,0.4-2.5,0.4-3.7,0c-0.5-0.2-1-0.5-1.4-0.9
	c-0.4-0.4-0.7-0.9-0.9-1.5c-0.2-0.6-0.3-1.3-0.3-2c0-0.7,0.1-1.4,0.3-2c0.2-0.6,0.5-1.1,0.9-1.5c0.4-0.4,0.9-0.7,1.4-0.9
	C283.7,67.2,284.4,67.1,285,67.1z M285,74.9c0.7,0,1.3-0.2,1.7-0.8c0.4-0.7,0.6-1.5,0.5-2.2c0.1-0.8-0.1-1.6-0.5-2.3
	c-0.8-0.9-2.2-1.1-3.2-0.3c-0.1,0.1-0.2,0.2-0.3,0.3c-0.7,1.4-0.7,3.1,0,4.5C283.7,74.6,284.3,74.9,285,74.9z"/>
<path class="st3" d="M291.1,76.4v-9.2h1.3c0.2,0,0.3,0,0.5,0.1c0.1,0.1,0.2,0.3,0.2,0.4l0.1,1.1c0.3-0.5,0.7-1,1.2-1.3
	c0.4-0.3,0.9-0.5,1.5-0.5c0.4,0,0.8,0.1,1.1,0.3l-0.3,1.7c0,0.1,0,0.2-0.1,0.2c-0.1,0.1-0.2,0.1-0.2,0.1c-0.1,0-0.2,0-0.4-0.1
	c-0.2,0-0.4-0.1-0.6-0.1c-0.4,0-0.8,0.1-1.2,0.4c-0.4,0.3-0.6,0.7-0.8,1.1v5.7L291.1,76.4z"/>
<path class="st3" d="M302,67.1c0.5,0,1.1,0.1,1.6,0.3c1,0.4,1.7,1.1,2.1,2.1c0.2,0.6,0.3,1.2,0.3,1.8c0,0.2,0,0.3,0,0.4
	c0,0.1,0,0.2-0.1,0.3c0,0.1-0.1,0.1-0.2,0.1c-0.1,0-0.2,0-0.2,0h-5.7c0,0.8,0.3,1.5,0.8,2.1c0.5,0.4,1.1,0.7,1.8,0.7
	c0.3,0,0.6,0,0.9-0.1c0.2-0.1,0.5-0.2,0.7-0.3l0.5-0.3c0.1-0.1,0.3-0.1,0.4-0.1c0.1,0,0.2,0,0.2,0c0.1,0,0.1,0.1,0.2,0.2l0.6,0.8
	c-0.2,0.3-0.5,0.5-0.8,0.7c-0.3,0.2-0.6,0.3-1,0.5c-0.3,0.1-0.7,0.2-1,0.2c-0.3,0-0.7,0.1-1,0.1c-0.6,0-1.2-0.1-1.8-0.3
	c-0.5-0.2-1-0.5-1.4-0.9c-0.4-0.4-0.8-1-1-1.5c-0.2-0.7-0.4-1.4-0.4-2.1c0-0.6,0.1-1.2,0.3-1.8c0.2-0.5,0.5-1,0.9-1.4
	c0.4-0.4,0.9-0.8,1.4-1C300.7,67.1,301.4,67.1,302,67.1z M302,68.7c-0.6,0-1.1,0.2-1.5,0.5c-0.4,0.4-0.6,1-0.7,1.6h4.1
	c0-0.3,0-0.5-0.1-0.8c-0.1-0.2-0.2-0.5-0.4-0.7c-0.2-0.2-0.4-0.3-0.6-0.4C302.6,68.7,302.3,68.7,302,68.7z"/>
<path class="st3" d="M318.1,71.7c0.1,0.2,0.2,0.4,0.2,0.6c0.1-0.2,0.2-0.4,0.3-0.6c0.1-0.2,0.2-0.4,0.3-0.6l3.8-7.2
	c0-0.1,0.1-0.1,0.1-0.2c0,0,0.1-0.1,0.2-0.1c0.1,0,0.1,0,0.2,0h2.1v12.9h-2.1v-8.4c0-0.2,0-0.3,0-0.5s0-0.4,0-0.6l-3.9,7.3
	c-0.1,0.2-0.2,0.3-0.4,0.4c-0.1,0.1-0.3,0.1-0.5,0.1h-0.3c-0.2,0-0.4,0-0.5-0.1c-0.1-0.1-0.3-0.2-0.4-0.4l-4-7.4c0,0.2,0,0.4,0,0.6
	s0,0.4,0,0.5v8.4h-2V63.5h2.1c0.1,0,0.1,0,0.2,0c0.1,0,0.1,0.1,0.2,0.1c0.1,0.1,0.1,0.1,0.1,0.2l3.9,7.2
	C317.9,71.3,318,71.5,318.1,71.7z"/>
<path class="st3" d="M330.3,64.6c0,0.2,0,0.4-0.1,0.5c-0.1,0.2-0.2,0.3-0.3,0.4c-0.1,0.1-0.3,0.2-0.5,0.3c-0.3,0.1-0.7,0.1-1.1,0
	c-0.2-0.1-0.3-0.2-0.5-0.3c-0.1-0.1-0.2-0.3-0.3-0.4c-0.1-0.3-0.1-0.7,0-1.1c0.1-0.2,0.2-0.3,0.3-0.5c0.1-0.1,0.3-0.2,0.5-0.3
	c0.3-0.1,0.7-0.1,1.1,0c0.2,0.1,0.3,0.2,0.5,0.3c0.1,0.1,0.2,0.3,0.3,0.5C330.3,64.2,330.3,64.4,330.3,64.6z M330,67.3v9.2h-2.2
	v-9.2H330z"/>
<path class="st3" d="M337.7,69.1c0,0.1-0.1,0.1-0.2,0.2c-0.1,0-0.2,0.1-0.2,0.1c-0.1,0-0.2,0-0.3-0.1l-0.4-0.2
	c-0.2-0.1-0.4-0.1-0.6-0.2c-0.2-0.1-0.5-0.1-0.7-0.1c-0.4,0-0.7,0.1-1,0.3c-0.2,0.2-0.4,0.4-0.4,0.7c0,0.2,0.1,0.4,0.2,0.5
	c0.1,0.1,0.3,0.3,0.5,0.4c0.2,0.1,0.5,0.2,0.7,0.3l0.8,0.3c0.3,0.1,0.5,0.2,0.8,0.3c0.3,0.1,0.5,0.3,0.7,0.5
	c0.2,0.2,0.4,0.4,0.5,0.7c0.1,0.3,0.2,0.7,0.2,1c0,0.4-0.1,0.8-0.2,1.2c-0.2,0.4-0.4,0.7-0.7,1c-0.3,0.3-0.7,0.5-1.1,0.6
	c-0.5,0.2-1,0.2-1.6,0.2c-0.3,0-0.6,0-0.9-0.1c-0.3-0.1-0.6-0.1-0.9-0.2c-0.3-0.1-0.5-0.2-0.8-0.4c-0.2-0.1-0.4-0.3-0.6-0.4l0.5-0.8
	c0.1-0.1,0.1-0.2,0.2-0.2c0.1-0.1,0.2-0.1,0.3-0.1c0.1,0,0.3,0,0.4,0.1c0.1,0.1,0.3,0.2,0.4,0.2c0.2,0.1,0.4,0.2,0.6,0.2
	c0.3,0.1,0.5,0.1,0.8,0.1c0.2,0,0.5,0,0.7-0.1c0.2-0.1,0.3-0.1,0.5-0.2c0.1-0.1,0.2-0.2,0.3-0.3c0.1-0.1,0.1-0.3,0.1-0.4
	c0-0.2-0.1-0.4-0.2-0.5c-0.1-0.1-0.3-0.3-0.5-0.3c-0.2-0.1-0.5-0.2-0.7-0.3l-0.8-0.3c-0.3-0.1-0.6-0.2-0.8-0.3
	c-0.3-0.1-0.5-0.3-0.7-0.5c-0.2-0.2-0.4-0.5-0.5-0.7c-0.1-0.3-0.2-0.7-0.2-1c0-0.4,0.1-0.7,0.2-1.1c0.2-0.3,0.4-0.6,0.7-0.9
	c0.3-0.3,0.7-0.5,1.1-0.6c0.5-0.2,1-0.2,1.5-0.2c0.6,0,1.2,0.1,1.7,0.3c0.5,0.2,0.9,0.5,1.3,0.8L337.7,69.1z"/>
<path class="st3" d="M345.4,69.1c0,0.1-0.1,0.1-0.2,0.2c-0.1,0-0.2,0.1-0.2,0.1c-0.1,0-0.2,0-0.3-0.1l-0.4-0.2
	c-0.2-0.1-0.4-0.1-0.5-0.2c-0.2-0.1-0.5-0.1-0.7-0.1c-0.4,0-0.7,0.1-1,0.3c-0.2,0.2-0.4,0.4-0.4,0.7c0,0.2,0.1,0.4,0.2,0.5
	c0.1,0.1,0.3,0.3,0.5,0.4c0.2,0.1,0.5,0.2,0.7,0.3l0.8,0.3c0.3,0.1,0.6,0.2,0.8,0.3c0.3,0.1,0.5,0.3,0.7,0.5
	c0.2,0.2,0.4,0.4,0.5,0.7c0.1,0.3,0.2,0.7,0.2,1c0,0.4-0.1,0.8-0.2,1.2c-0.2,0.4-0.4,0.7-0.7,1c-0.3,0.3-0.7,0.5-1.1,0.6
	c-0.5,0.2-1,0.2-1.6,0.2c-0.6,0-1.2-0.1-1.8-0.3c-0.3-0.1-0.5-0.2-0.8-0.4c-0.2-0.1-0.4-0.3-0.6-0.4l0.5-0.8
	c0.1-0.1,0.1-0.2,0.2-0.2c0.1-0.1,0.2-0.1,0.3-0.1c0.1,0,0.3,0,0.4,0.1l0.4,0.2c0.2,0.1,0.4,0.2,0.6,0.2c0.3,0.1,0.5,0.1,0.8,0.1
	c0.2,0,0.5,0,0.7-0.1c0.2-0.1,0.3-0.1,0.5-0.2c0.1-0.1,0.2-0.2,0.3-0.3c0.1-0.1,0.1-0.3,0.1-0.4c0-0.2-0.1-0.4-0.2-0.5
	c-0.1-0.1-0.3-0.3-0.5-0.3c-0.2-0.1-0.5-0.2-0.7-0.3l-0.8-0.3c-0.3-0.1-0.6-0.2-0.8-0.3c-0.3-0.1-0.5-0.3-0.7-0.5
	c-0.2-0.2-0.4-0.5-0.5-0.7c-0.1-0.3-0.2-0.7-0.2-1c0-0.4,0.1-0.7,0.2-1.1c0.2-0.3,0.4-0.6,0.7-0.9c0.3-0.3,0.7-0.5,1.1-0.6
	c1.1-0.3,2.2-0.3,3.2,0.1c0.5,0.2,0.9,0.5,1.3,0.8L345.4,69.1z"/>
<path class="st3" d="M350.2,64.6c0,0.2,0,0.4-0.1,0.5c-0.1,0.2-0.2,0.3-0.3,0.4c-0.1,0.1-0.3,0.2-0.5,0.3c-0.2,0.1-0.4,0.1-0.5,0.1
	c-0.2,0-0.4,0-0.5-0.1c-0.2-0.1-0.3-0.2-0.5-0.3c-0.1-0.1-0.2-0.3-0.3-0.4c-0.1-0.3-0.1-0.7,0-1.1c0.1-0.2,0.2-0.3,0.3-0.5
	c0.1-0.1,0.3-0.2,0.5-0.3c0.2-0.1,0.4-0.1,0.5-0.1c0.2,0,0.4,0,0.5,0.1c0.2,0.1,0.3,0.2,0.5,0.3c0.1,0.1,0.2,0.3,0.3,0.5
	C350.2,64.2,350.2,64.4,350.2,64.6z M349.9,67.3v9.2h-2.2v-9.2H349.9z"/>
<path class="st3" d="M356,67.1c0.6,0,1.3,0.1,1.9,0.3c0.5,0.2,1,0.5,1.4,0.9c0.4,0.4,0.7,0.9,0.9,1.5c0.2,0.6,0.3,1.3,0.3,2
	c0,0.7-0.1,1.4-0.3,2c-0.2,0.6-0.5,1.1-0.9,1.5c-0.4,0.4-0.9,0.7-1.4,0.9c-1.2,0.4-2.5,0.4-3.7,0c-0.5-0.2-1-0.5-1.4-0.9
	c-0.4-0.4-0.7-0.9-0.9-1.5c-0.2-0.6-0.3-1.3-0.3-2c0-0.7,0.1-1.4,0.3-2c0.2-0.6,0.5-1.1,0.9-1.5c0.4-0.4,0.9-0.7,1.4-0.9
	C354.8,67.2,355.4,67.1,356,67.1z M356,74.9c0.7,0,1.3-0.2,1.7-0.8c0.4-0.7,0.6-1.5,0.5-2.2c0-0.8-0.1-1.6-0.5-2.3
	c-0.4-0.5-1-0.8-1.7-0.8c-0.7,0-1.3,0.3-1.7,0.8c-0.7,1.4-0.7,3.1,0,4.5C354.7,74.6,355.4,74.9,356,74.9z"/>
<path class="st3" d="M362.2,76.4v-9.2h1.4c0.3,0,0.5,0.1,0.6,0.4l0.1,0.7c0.2-0.2,0.4-0.4,0.6-0.5c0.2-0.2,0.4-0.3,0.6-0.4
	c0.2-0.1,0.5-0.2,0.7-0.3c0.3-0.1,0.6-0.1,0.9-0.1c0.5,0,0.9,0.1,1.3,0.3c0.4,0.2,0.7,0.4,1,0.7c0.3,0.3,0.5,0.7,0.6,1.1
	c0.1,0.5,0.2,0.9,0.2,1.4v5.8H368v-5.9c0-0.5-0.1-0.9-0.4-1.3c-0.3-0.3-0.7-0.5-1.2-0.5c-0.4,0-0.7,0.1-1.1,0.3
	c-0.3,0.2-0.7,0.4-0.9,0.7v6.6L362.2,76.4z"/>
<path class="st3" d="M382.9,65.8c0,0.1-0.1,0.2-0.2,0.3c-0.1,0.1-0.2,0.1-0.3,0.1c-0.1,0-0.3-0.1-0.4-0.1l-0.5-0.3
	c-0.2-0.1-0.5-0.2-0.7-0.3c-0.3-0.1-0.7-0.2-1-0.1c-0.3,0-0.6,0-0.9,0.1c-0.2,0.1-0.4,0.2-0.6,0.3c-0.2,0.1-0.3,0.3-0.4,0.5
	c-0.1,0.2-0.1,0.4-0.1,0.7c0,0.3,0.1,0.5,0.2,0.8c0.2,0.2,0.4,0.4,0.7,0.5c0.3,0.2,0.6,0.3,1,0.4l1.1,0.4c0.4,0.1,0.7,0.3,1.1,0.4
	c0.3,0.2,0.7,0.4,1,0.6c0.3,0.3,0.5,0.6,0.7,1c0.2,0.4,0.3,0.9,0.2,1.4c0,0.6-0.1,1.1-0.3,1.6c-0.2,0.5-0.5,1-0.9,1.3
	c-0.4,0.4-0.9,0.7-1.4,0.9c-0.6,0.2-1.3,0.3-1.9,0.3c-0.8,0-1.6-0.2-2.4-0.5c-0.3-0.1-0.7-0.3-1-0.5c-0.3-0.2-0.6-0.4-0.9-0.7
	l0.7-1.2c0.1-0.1,0.1-0.2,0.2-0.2c0.1-0.1,0.2-0.1,0.3-0.1c0.2,0,0.3,0.1,0.5,0.2c0.2,0.1,0.4,0.3,0.6,0.4c0.3,0.2,0.5,0.3,0.8,0.4
	c0.4,0.1,0.8,0.2,1.1,0.2c0.6,0,1.1-0.1,1.6-0.5c0.4-0.4,0.6-0.9,0.6-1.4c0-0.3-0.1-0.6-0.3-0.8c-0.2-0.2-0.4-0.4-0.7-0.5
	c-0.3-0.2-0.7-0.3-1-0.4l-1.1-0.3c-0.4-0.1-0.7-0.3-1.1-0.4c-0.4-0.2-0.7-0.4-1-0.7c-0.3-0.3-0.5-0.6-0.7-1c-0.2-0.5-0.3-1-0.3-1.5
	c0-0.5,0.1-0.9,0.3-1.4c0.2-0.4,0.5-0.9,0.8-1.2c0.4-0.4,0.8-0.6,1.3-0.8c0.6-0.2,1.2-0.3,1.8-0.3c0.7,0,1.4,0.1,2.1,0.3
	c0.6,0.2,1.2,0.6,1.6,1L382.9,65.8z"/>
<path class="st3" d="M387.4,67.3v5.8c0,0.5,0.1,0.9,0.4,1.3c0.3,0.3,0.7,0.5,1.2,0.5c0.4,0,0.7-0.1,1.1-0.3c0.4-0.2,0.7-0.4,1-0.7
	v-6.6h2.2v9.2h-1.4c-0.3,0-0.5-0.2-0.6-0.4l-0.1-0.7c-0.2,0.2-0.4,0.4-0.6,0.5c-0.2,0.2-0.4,0.3-0.6,0.4c-0.2,0.1-0.5,0.2-0.7,0.2
	c-0.3,0.1-0.6,0.1-0.9,0.1c-0.5,0-0.9-0.1-1.3-0.3c-0.4-0.2-0.7-0.4-1-0.7c-0.3-0.3-0.5-0.7-0.6-1.1c-0.1-0.5-0.2-0.9-0.2-1.4v-5.8
	H387.4z"/>
<path class="st3" d="M395.3,79.4V67.3h1.4c0.1,0,0.3,0,0.4,0.1c0.1,0.1,0.2,0.2,0.2,0.3l0.2,0.8c0.4-0.4,0.8-0.7,1.3-1
	c0.5-0.3,1.1-0.4,1.7-0.4c0.5,0,1,0.1,1.4,0.3c0.4,0.2,0.8,0.5,1.1,0.9c0.3,0.4,0.6,0.9,0.7,1.5c0.2,0.7,0.2,1.3,0.2,2
	c0,0.6-0.1,1.3-0.3,1.9c-0.2,0.6-0.4,1.1-0.8,1.5c-0.3,0.4-0.8,0.8-1.2,1c-0.5,0.2-1.1,0.4-1.6,0.4c-0.5,0-0.9-0.1-1.3-0.2
	c-0.4-0.2-0.7-0.4-1-0.7v3.8L395.3,79.4z M399.6,68.8c-0.4,0-0.8,0.1-1.2,0.3c-0.3,0.2-0.6,0.5-0.9,0.8v4.1c0.2,0.3,0.5,0.5,0.8,0.6
	c0.3,0.1,0.7,0.2,1,0.2c0.3,0,0.6-0.1,0.9-0.2c0.3-0.1,0.5-0.3,0.7-0.6c0.2-0.3,0.4-0.6,0.4-1c0.1-0.5,0.2-0.9,0.1-1.4
	c0-0.5,0-0.9-0.1-1.4c-0.1-0.3-0.2-0.6-0.4-0.9c-0.1-0.2-0.4-0.4-0.6-0.5C400.2,68.9,399.9,68.8,399.6,68.8z"/>
<path class="st3" d="M405.4,79.4V67.3h1.4c0.1,0,0.3,0,0.4,0.1c0.1,0.1,0.2,0.2,0.2,0.3l0.2,0.8c0.4-0.4,0.8-0.7,1.3-1
	c0.5-0.3,1.1-0.4,1.7-0.4c0.5,0,0.9,0.1,1.4,0.3c0.4,0.2,0.8,0.5,1.1,0.9c0.3,0.4,0.6,0.9,0.7,1.5c0.2,0.7,0.3,1.3,0.2,2
	c0,0.6-0.1,1.3-0.3,1.9c-0.2,0.6-0.4,1.1-0.8,1.5c-0.3,0.4-0.8,0.8-1.2,1c-0.5,0.2-1.1,0.4-1.6,0.4c-0.5,0-0.9-0.1-1.3-0.2
	c-0.4-0.2-0.7-0.4-1-0.7v3.8L405.4,79.4z M409.7,68.8c-0.4,0-0.8,0.1-1.2,0.3c-0.3,0.2-0.7,0.5-0.9,0.8v4.1c0.2,0.3,0.5,0.5,0.8,0.6
	c0.3,0.1,0.6,0.2,1,0.2c0.3,0,0.6-0.1,0.9-0.2c0.3-0.1,0.5-0.3,0.7-0.6c0.2-0.3,0.4-0.6,0.4-1c0.1-0.5,0.2-0.9,0.2-1.4
	c0-0.5,0-0.9-0.1-1.4c-0.1-0.3-0.2-0.6-0.4-0.9c-0.1-0.2-0.3-0.4-0.6-0.5C410.2,68.9,410,68.8,409.7,68.8z"/>
<path class="st3" d="M419.4,67.1c0.6,0,1.3,0.1,1.9,0.3c0.5,0.2,1,0.5,1.4,0.9c0.4,0.4,0.7,0.9,0.9,1.5c0.2,0.6,0.3,1.3,0.3,2
	c0,0.7-0.1,1.4-0.3,2c-0.2,0.6-0.5,1.1-0.9,1.5c-0.4,0.4-0.9,0.7-1.4,0.9c-0.6,0.2-1.2,0.3-1.9,0.3c-0.6,0-1.3-0.1-1.9-0.3
	c-0.5-0.2-1-0.5-1.4-0.9c-0.4-0.4-0.7-0.9-0.9-1.5c-0.2-0.6-0.3-1.3-0.3-2c0-0.7,0.1-1.4,0.3-2c0.2-0.6,0.5-1.1,0.9-1.5
	c0.4-0.4,0.9-0.7,1.4-0.9C418.2,67.2,418.8,67.1,419.4,67.1z M419.4,74.9c0.7,0,1.3-0.2,1.7-0.8c0.4-0.7,0.6-1.5,0.5-2.2
	c0.1-0.8-0.1-1.6-0.5-2.3c-0.4-0.5-1-0.8-1.7-0.8c-0.7,0-1.3,0.3-1.7,0.8c-0.7,1.4-0.7,3.1,0,4.5C418.1,74.6,418.8,74.9,419.4,74.9z
	"/>
<path class="st3" d="M425.5,76.4v-9.2h1.3c0.2,0,0.3,0,0.5,0.1c0.1,0.1,0.2,0.3,0.2,0.4l0.1,1.1c0.3-0.5,0.7-1,1.1-1.3
	c0.4-0.3,1-0.5,1.5-0.5c0.4,0,0.8,0.1,1.1,0.3l-0.3,1.7c0,0.1-0.1,0.2-0.1,0.2c-0.1,0.1-0.2,0.1-0.2,0.1c-0.1,0-0.2,0-0.4-0.1
	c-0.2,0-0.4-0.1-0.6-0.1c-0.4,0-0.8,0.1-1.2,0.4c-0.4,0.3-0.6,0.7-0.8,1.1v5.7L425.5,76.4z"/>
<path class="st3" d="M436.1,76.6c-0.7,0-1.3-0.2-1.8-0.7c-0.5-0.5-0.7-1.2-0.6-1.9v-5.1h-0.9c-0.1,0-0.2,0-0.3-0.1
	c-0.1-0.1-0.1-0.2-0.1-0.3v-0.9l1.5-0.2l0.5-2.5c0-0.1,0.1-0.2,0.2-0.3c0.1-0.1,0.2-0.1,0.3-0.1h1.1v2.9h2.4v1.6h-2.4v5
	c0,0.2,0.1,0.5,0.2,0.7c0.1,0.2,0.4,0.2,0.6,0.2c0.1,0,0.2,0,0.3,0l0.2-0.1l0.2-0.1c0,0,0.1,0,0.2-0.1c0.1,0,0.1,0,0.2,0.1l0.1,0.2
	l0.7,1.1c-0.3,0.3-0.7,0.5-1.1,0.6C436.9,76.6,436.5,76.6,436.1,76.6z"/>
<path class="st3" d="M269.7,91.8h7.3v1.6h-7.3V91.8z"/>
<path class="st3" d="M291.3,85v1.9h-5.7v3.8h4.8v1.9h-4.8v5.3h-2.4V85H291.3z"/>
<path class="st3" d="M294.4,88.7v5.8c0,0.5,0.1,0.9,0.4,1.3c0.3,0.3,0.7,0.5,1.2,0.5c0.4,0,0.7-0.1,1.1-0.2c0.4-0.2,0.7-0.4,1-0.7
	v-6.6h2.2v9.2h-1.4c-0.3,0-0.5-0.2-0.6-0.4l-0.2-0.7c-0.2,0.2-0.4,0.4-0.6,0.5c-0.2,0.2-0.4,0.3-0.6,0.4c-0.2,0.1-0.5,0.2-0.7,0.3
	c-0.3,0.1-0.6,0.1-0.9,0.1c-0.5,0-0.9-0.1-1.3-0.2c-0.4-0.2-0.7-0.4-1-0.7c-0.3-0.3-0.5-0.7-0.6-1.1c-0.1-0.5-0.2-0.9-0.2-1.4v-5.8
	H294.4z"/>
<path class="st3" d="M302.3,97.9v-9.2h1.4c0.3,0,0.5,0.1,0.6,0.4l0.2,0.7c0.2-0.2,0.4-0.4,0.6-0.5c0.2-0.2,0.4-0.3,0.6-0.4
	c0.2-0.1,0.5-0.2,0.7-0.3c0.3-0.1,0.6-0.1,0.9-0.1c0.5,0,0.9,0.1,1.3,0.3c0.4,0.2,0.7,0.4,1,0.7c0.3,0.3,0.5,0.7,0.6,1.1
	c0.1,0.5,0.2,0.9,0.2,1.4v5.8h-2.2v-5.9c0-0.5-0.1-0.9-0.4-1.3c-0.3-0.3-0.7-0.5-1.2-0.5c-0.4,0-0.7,0.1-1.1,0.3
	c-0.4,0.2-0.7,0.4-1,0.7v6.6L302.3,97.9z"/>
<path class="st3" d="M318.9,97.9c-0.3,0-0.5-0.2-0.6-0.4l-0.2-0.9c-0.2,0.2-0.4,0.4-0.6,0.6c-0.2,0.2-0.4,0.3-0.7,0.4
	c-0.2,0.1-0.5,0.2-0.8,0.3c-0.3,0.1-0.6,0.1-0.9,0.1c-1,0-1.9-0.4-2.5-1.2c-0.3-0.4-0.6-0.9-0.7-1.5c-0.2-0.7-0.2-1.3-0.2-2
	c0-0.6,0.1-1.3,0.3-1.9c0.2-0.6,0.4-1.1,0.8-1.5c0.3-0.4,0.8-0.8,1.2-1c0.5-0.2,1.1-0.4,1.6-0.4c0.5,0,0.9,0.1,1.3,0.2
	c0.4,0.2,0.7,0.4,1,0.7v-4.9h2.2v13.3H318.9z M316,96.3c0.4,0,0.8-0.1,1.2-0.3c0.3-0.2,0.7-0.5,0.9-0.8v-4.1
	c-0.2-0.3-0.5-0.5-0.8-0.6c-0.3-0.1-0.7-0.2-1-0.2c-0.3,0-0.6,0.1-0.9,0.2c-0.3,0.1-0.5,0.3-0.7,0.6c-0.2,0.3-0.4,0.6-0.4,1
	c-0.1,0.5-0.2,0.9-0.1,1.4c0,0.5,0,0.9,0.1,1.4c0.1,0.3,0.2,0.6,0.4,0.9c0.1,0.2,0.3,0.4,0.6,0.5C315.4,96.3,315.7,96.3,316,96.3z"
	/>
<path class="st3" d="M322.5,97.9v-9.2h1.3c0.2,0,0.3,0,0.5,0.1c0.1,0.1,0.2,0.3,0.2,0.4l0.1,1.1c0.3-0.5,0.7-1,1.2-1.3
	c0.4-0.3,0.9-0.5,1.5-0.5c0.4,0,0.8,0.1,1.1,0.3l-0.3,1.7c0,0.1-0.1,0.2-0.1,0.2c-0.1,0.1-0.2,0.1-0.2,0.1c-0.1,0-0.2,0-0.4-0.1
	c-0.2,0-0.4-0.1-0.6-0.1c-0.4,0-0.8,0.1-1.2,0.4c-0.4,0.3-0.7,0.7-0.8,1.1v5.7H322.5z"/>
<path class="st3" d="M336.7,97.9h-1c-0.2,0-0.3,0-0.5-0.1c-0.1-0.1-0.2-0.2-0.3-0.4l-0.2-0.7c-0.2,0.2-0.4,0.4-0.7,0.6
	c-0.2,0.2-0.5,0.3-0.7,0.4c-0.2,0.1-0.5,0.2-0.8,0.2c-0.3,0.1-0.6,0.1-0.9,0.1c-0.4,0-0.7,0-1.1-0.2c-0.3-0.1-0.6-0.3-0.9-0.5
	c-0.2-0.2-0.4-0.5-0.5-0.8c-0.1-0.3-0.2-0.7-0.2-1.1c0-0.4,0.1-0.7,0.3-1c0.2-0.4,0.5-0.7,0.9-0.9c0.5-0.3,1.1-0.5,1.7-0.7
	c0.9-0.2,1.7-0.3,2.6-0.3v-0.5c0-0.5-0.1-1-0.4-1.4c-0.3-0.3-0.7-0.5-1.1-0.5c-0.3,0-0.6,0-0.9,0.1c-0.2,0.1-0.4,0.2-0.6,0.3L331,91
	c-0.1,0.1-0.3,0.1-0.5,0.1c-0.1,0-0.3,0-0.4-0.1c-0.1-0.1-0.2-0.2-0.2-0.3l-0.4-0.7c1-1,2.4-1.5,3.8-1.4c0.5,0,1,0.1,1.4,0.3
	c0.4,0.2,0.8,0.4,1.1,0.7c0.3,0.3,0.5,0.7,0.7,1.1c0.2,0.5,0.2,0.9,0.2,1.4L336.7,97.9z M332.4,96.5c0.2,0,0.4,0,0.6-0.1
	c0.2,0,0.4-0.1,0.5-0.2c0.2-0.1,0.3-0.2,0.5-0.3c0.2-0.1,0.3-0.3,0.5-0.4V94c-0.5,0-1.1,0-1.6,0.1c-0.3,0.1-0.7,0.2-1,0.3
	c-0.2,0.1-0.4,0.2-0.6,0.4c-0.1,0.2-0.2,0.4-0.2,0.6c0,0.3,0.1,0.6,0.4,0.8C331.8,96.4,332.1,96.5,332.4,96.5z"/>
<path class="st3" d="M341.3,86.1c0,0.2,0,0.4-0.1,0.5c-0.1,0.2-0.2,0.3-0.3,0.4c-0.1,0.1-0.3,0.2-0.5,0.3c-0.2,0.1-0.4,0.1-0.6,0.1
	c-0.2,0-0.4,0-0.5-0.1c-0.3-0.1-0.6-0.4-0.7-0.7c-0.1-0.2-0.1-0.4-0.1-0.5c0-0.2,0-0.4,0.1-0.6c0.1-0.2,0.2-0.3,0.3-0.4
	c0.1-0.1,0.3-0.2,0.4-0.3c0.2-0.1,0.4-0.1,0.5-0.1c0.2,0,0.4,0,0.6,0.1c0.2,0.1,0.3,0.2,0.5,0.3c0.1,0.1,0.2,0.3,0.3,0.4
	C341.3,85.7,341.3,85.9,341.3,86.1z M341,88.7v9.2h-2.2v-9.2H341z"/>
<path class="st3" d="M348.7,90.5c0,0.1-0.1,0.1-0.2,0.2c-0.1,0-0.2,0.1-0.2,0.1c-0.1,0-0.2,0-0.4-0.1l-0.4-0.2
	c-0.4-0.2-0.8-0.3-1.3-0.3c-0.4,0-0.7,0.1-1,0.3c-0.2,0.2-0.4,0.4-0.4,0.7c0,0.2,0.1,0.4,0.2,0.5c0.1,0.2,0.3,0.3,0.5,0.4
	c0.2,0.1,0.5,0.2,0.7,0.3l0.8,0.3c0.3,0.1,0.6,0.2,0.8,0.3c0.3,0.1,0.5,0.3,0.7,0.5c0.2,0.2,0.4,0.4,0.5,0.7c0.1,0.3,0.2,0.7,0.2,1
	c0,0.4-0.1,0.8-0.2,1.2c-0.2,0.4-0.4,0.7-0.7,1c-0.3,0.3-0.7,0.5-1.1,0.6c-0.5,0.2-1,0.2-1.6,0.2c-0.3,0-0.6,0-0.9-0.1
	c-0.3-0.1-0.6-0.1-0.9-0.2c-0.3-0.1-0.5-0.2-0.8-0.4c-0.2-0.1-0.4-0.3-0.6-0.4l0.5-0.8c0.1-0.1,0.1-0.2,0.2-0.2
	c0.1-0.1,0.2-0.1,0.3-0.1c0.1,0,0.3,0,0.4,0.1l0.4,0.2c0.2,0.1,0.4,0.2,0.6,0.2c0.3,0.1,0.5,0.1,0.8,0.1c0.2,0,0.5,0,0.7-0.1
	c0.2-0.1,0.3-0.1,0.5-0.2c0.1-0.1,0.2-0.2,0.3-0.3c0.1-0.1,0.1-0.3,0.1-0.4c0-0.2-0.1-0.4-0.2-0.5c-0.1-0.2-0.3-0.3-0.5-0.4
	c-0.2-0.1-0.5-0.2-0.7-0.3c-0.3-0.1-0.5-0.2-0.8-0.3c-0.3-0.1-0.6-0.2-0.8-0.3c-0.3-0.1-0.5-0.3-0.7-0.5c-0.2-0.2-0.4-0.5-0.5-0.7
	c-0.1-0.3-0.2-0.7-0.2-1c0-0.4,0.1-0.7,0.2-1.1c0.1-0.3,0.4-0.6,0.6-0.9c0.3-0.3,0.7-0.5,1.1-0.6c1.1-0.3,2.2-0.3,3.2,0.1
	c0.5,0.2,0.9,0.5,1.3,0.8L348.7,90.5z"/>
<path class="st3" d="M353.5,86.1c0,0.2,0,0.4-0.1,0.5c-0.1,0.2-0.2,0.3-0.3,0.4c-0.1,0.1-0.3,0.2-0.5,0.3c-0.2,0.1-0.4,0.1-0.6,0.1
	c-0.2,0-0.4,0-0.5-0.1c-0.3-0.1-0.6-0.4-0.7-0.7c-0.1-0.2-0.1-0.4-0.1-0.5c0-0.2,0-0.4,0.1-0.6c0.1-0.2,0.2-0.3,0.3-0.4
	c0.1-0.1,0.3-0.2,0.4-0.3c0.2-0.1,0.4-0.1,0.5-0.1c0.2,0,0.4,0,0.6,0.1c0.2,0.1,0.3,0.2,0.5,0.3c0.1,0.1,0.2,0.3,0.3,0.4
	C353.5,85.7,353.5,85.9,353.5,86.1z M353.2,88.7v9.2H351v-9.2H353.2z"/>
<path class="st3" d="M355.4,97.9v-9.2h1.4c0.3,0,0.5,0.1,0.6,0.4l0.1,0.7c0.2-0.2,0.4-0.4,0.6-0.5c0.2-0.2,0.4-0.3,0.6-0.4
	c0.2-0.1,0.5-0.2,0.7-0.3c0.3-0.1,0.6-0.1,0.9-0.1c0.5,0,0.9,0.1,1.3,0.3c0.4,0.2,0.7,0.4,1,0.7c0.3,0.3,0.5,0.7,0.6,1.1
	c0.1,0.5,0.2,0.9,0.2,1.4v5.8h-2.2v-5.9c0-0.5-0.1-0.9-0.4-1.3c-0.3-0.3-0.7-0.5-1.2-0.5c-0.4,0-0.7,0.1-1.1,0.3
	c-0.3,0.2-0.7,0.4-1,0.7v6.6L355.4,97.9z"/>
<path class="st3" d="M368.7,88.6c0.4,0,0.7,0,1.1,0.1c0.3,0.1,0.6,0.2,1,0.3h2.6v0.8c0,0.1,0,0.2-0.1,0.3c-0.1,0.1-0.2,0.1-0.4,0.2
	l-0.8,0.2c0.1,0.2,0.1,0.3,0.1,0.5c0,0.2,0,0.4,0,0.6c0,0.4-0.1,0.8-0.3,1.2c-0.2,0.4-0.4,0.7-0.8,0.9c-0.3,0.3-0.7,0.5-1.1,0.6
	c-0.5,0.1-0.9,0.2-1.4,0.2c-0.3,0-0.7,0-1-0.1c-0.2,0.1-0.4,0.3-0.4,0.6c0,0.2,0.1,0.3,0.3,0.4c0.2,0.1,0.4,0.2,0.7,0.2
	c0.3,0,0.6,0,0.9,0c0.4,0,0.7,0,1.1,0c0.4,0,0.7,0.1,1.1,0.2c0.3,0.1,0.6,0.2,0.9,0.3c0.3,0.2,0.5,0.4,0.7,0.7
	c0.2,0.3,0.3,0.7,0.3,1.1c0,0.4-0.1,0.8-0.3,1.2c-0.2,0.4-0.5,0.7-0.9,1c-0.4,0.3-0.9,0.6-1.4,0.7c-0.6,0.2-1.2,0.3-1.9,0.3
	c-0.6,0-1.2-0.1-1.8-0.2c-0.4-0.1-0.9-0.3-1.3-0.5c-0.3-0.2-0.6-0.5-0.8-0.8c-0.2-0.3-0.2-0.6-0.2-0.9c0-0.4,0.1-0.8,0.4-1.1
	c0.3-0.3,0.7-0.6,1.1-0.7c-0.2-0.1-0.4-0.3-0.5-0.5c-0.1-0.2-0.2-0.5-0.2-0.8c0-0.1,0-0.3,0.1-0.4c0.1-0.2,0.1-0.3,0.2-0.4
	c0.1-0.2,0.2-0.3,0.4-0.4c0.2-0.1,0.3-0.3,0.5-0.3c-0.4-0.2-0.8-0.6-1.1-1c-0.3-0.4-0.4-0.9-0.4-1.5c0-0.4,0.1-0.8,0.3-1.2
	c0.2-0.4,0.4-0.7,0.8-0.9c0.3-0.3,0.7-0.5,1.1-0.6C367.7,88.6,368.2,88.5,368.7,88.6z M371.1,98.3c0-0.2-0.1-0.3-0.2-0.4
	c-0.1-0.1-0.3-0.2-0.4-0.3c-0.2-0.1-0.4-0.1-0.6-0.2c-0.3,0-0.5,0-0.8,0h-0.9c-0.3,0-0.6,0-0.9-0.1c-0.2,0.1-0.4,0.3-0.6,0.5
	c-0.2,0.2-0.2,0.4-0.2,0.7c0,0.2,0,0.3,0.1,0.4c0.1,0.2,0.2,0.3,0.4,0.4c0.2,0.1,0.4,0.2,0.7,0.2c0.3,0.1,0.7,0.1,1,0.1
	c0.4,0,0.7,0,1.1-0.1c0.3-0.1,0.5-0.1,0.7-0.3c0.2-0.1,0.3-0.2,0.4-0.4C371,98.7,371.1,98.5,371.1,98.3z M368.7,93.1
	c0.2,0,0.5,0,0.7-0.1c0.2-0.1,0.4-0.2,0.5-0.3c0.1-0.1,0.2-0.3,0.3-0.5c0.1-0.2,0.1-0.4,0.1-0.6c0-0.4-0.1-0.8-0.4-1.1
	c-0.7-0.5-1.7-0.5-2.4,0c-0.3,0.3-0.4,0.7-0.4,1.1c0,0.2,0,0.4,0.1,0.6c0.1,0.2,0.2,0.3,0.3,0.5c0.2,0.1,0.3,0.3,0.5,0.3
	C368.2,93.1,368.4,93.1,368.7,93.1z"/>
<path class="st3" d="M278.4,132c0.1,0,0.3,0.1,0.3,0.1l1,1c-0.5,0.6-1.2,1.2-1.9,1.5c-0.9,0.4-1.8,0.5-2.8,0.5
	c-0.9,0-1.8-0.2-2.6-0.5c-0.8-0.3-1.4-0.8-2-1.4c-0.6-0.6-1-1.3-1.2-2.1c-0.3-0.9-0.4-1.8-0.4-2.7c0-0.9,0.2-1.8,0.5-2.7
	c0.6-1.6,1.9-2.8,3.5-3.4c0.9-0.3,1.8-0.5,2.7-0.5c0.9,0,1.7,0.1,2.5,0.5c0.7,0.3,1.3,0.7,1.9,1.2l-0.8,1.1
	c-0.1,0.1-0.1,0.1-0.2,0.2c-0.1,0.1-0.2,0.1-0.3,0.1c-0.2,0-0.3-0.1-0.4-0.2c-0.2-0.1-0.4-0.2-0.5-0.3c-0.3-0.1-0.5-0.3-0.8-0.3
	c-1-0.3-2-0.2-3,0.2c-0.5,0.2-0.9,0.5-1.3,0.9c-0.4,0.4-0.7,0.9-0.9,1.4c-0.2,0.6-0.3,1.3-0.3,1.9c0,0.7,0.1,1.3,0.3,1.9
	c0.2,0.5,0.5,1,0.8,1.4c0.3,0.4,0.8,0.7,1.2,0.9c0.5,0.2,1,0.3,1.5,0.3c0.3,0,0.6,0,0.9-0.1c0.2,0,0.5-0.1,0.7-0.2
	c0.2-0.1,0.4-0.2,0.6-0.3c0.2-0.1,0.4-0.3,0.6-0.4c0.1-0.1,0.1-0.1,0.2-0.1C278.2,132,278.3,132,278.4,132z"/>
<path class="st3" d="M285,125.8c0.6,0,1.3,0.1,1.9,0.3c0.5,0.2,1,0.5,1.4,0.9c0.4,0.4,0.7,0.9,0.9,1.5c0.4,1.3,0.4,2.7,0,3.9
	c-0.2,0.6-0.5,1.1-0.9,1.5c-0.4,0.4-0.9,0.7-1.4,0.9c-1.2,0.4-2.5,0.4-3.7,0c-0.5-0.2-1-0.5-1.4-0.9c-0.4-0.4-0.7-0.9-0.9-1.5
	c-0.4-1.3-0.4-2.7,0-3.9c0.2-0.6,0.5-1.1,0.9-1.5c0.4-0.4,0.9-0.7,1.4-0.9C283.7,125.9,284.4,125.8,285,125.8z M285,133.5
	c0.7,0.1,1.3-0.2,1.7-0.8c0.7-1.4,0.7-3.1,0-4.5c-0.8-0.9-2.2-1-3.2-0.2c-0.1,0.1-0.2,0.2-0.2,0.2c-0.7,1.4-0.7,3.1,0,4.5
	C283.7,133.3,284.3,133.6,285,133.5L285,133.5z"/>
<path class="st3" d="M291.1,135.1v-9.2h1.3c0.2,0,0.3,0,0.5,0.1c0.1,0.1,0.2,0.3,0.2,0.4l0.1,1.1c0.3-0.5,0.7-1,1.2-1.3
	c0.4-0.3,0.9-0.5,1.5-0.5c0.4,0,0.8,0.1,1.1,0.3l-0.3,1.7c0,0.1-0.1,0.2-0.1,0.2c-0.1,0-0.2,0.1-0.2,0.1c-0.1,0-0.2,0-0.4-0.1
	c-0.2,0-0.4-0.1-0.6-0.1c-0.4,0-0.8,0.1-1.2,0.4c-0.4,0.3-0.7,0.7-0.8,1.1v5.7L291.1,135.1z"/>
<path class="st3" d="M302,125.8c0.5,0,1.1,0.1,1.6,0.3c0.5,0.2,0.9,0.5,1.2,0.8c0.4,0.4,0.6,0.8,0.8,1.3c0.2,0.6,0.3,1.2,0.3,1.8
	c0,0.2,0,0.3,0,0.4c0,0.1,0,0.2-0.1,0.3c0,0.1-0.1,0.1-0.2,0.1c-0.1,0-0.2,0-0.2,0h-5.7c0,0.8,0.3,1.5,0.8,2.1
	c0.5,0.4,1.1,0.7,1.8,0.7c0.3,0,0.6,0,0.9-0.1c0.2-0.1,0.5-0.2,0.7-0.3l0.5-0.3c0.1-0.1,0.3-0.1,0.4-0.1c0.1,0,0.2,0,0.2,0
	c0.1,0,0.1,0.1,0.2,0.1l0.6,0.8c-0.2,0.3-0.5,0.5-0.8,0.7c-0.3,0.2-0.7,0.4-1,0.5c-0.3,0.1-0.7,0.2-1,0.2c-0.3,0-0.7,0.1-1,0.1
	c-0.6,0-1.2-0.1-1.8-0.3c-0.5-0.2-1-0.5-1.4-0.9c-0.4-0.4-0.7-1-1-1.5c-0.2-0.7-0.4-1.4-0.4-2.1c0-0.6,0.1-1.2,0.3-1.8
	c0.2-0.5,0.5-1,0.9-1.4c0.4-0.4,0.9-0.8,1.4-1C300.7,125.8,301.4,125.7,302,125.8z M302,127.3c-0.6,0-1.1,0.2-1.5,0.6
	c-0.4,0.4-0.6,1-0.7,1.5h4.1c0-0.3,0-0.5-0.1-0.8c-0.1-0.2-0.2-0.5-0.4-0.7c-0.2-0.2-0.4-0.3-0.6-0.4
	C302.6,127.4,302.3,127.3,302,127.3z"/>
<path class="st3" d="M318.1,130.3c0.1,0.2,0.2,0.4,0.3,0.6c0.1-0.2,0.2-0.4,0.3-0.6c0.1-0.2,0.2-0.4,0.3-0.6l3.8-7.2
	c0-0.1,0.1-0.2,0.1-0.2c0,0,0.1-0.1,0.2-0.1c0.1,0,0.1,0,0.2,0h2.1v12.9h-2.1v-8.4c0-0.2,0-0.3,0-0.5s0-0.4,0-0.6l-3.9,7.3
	c-0.1,0.2-0.2,0.3-0.4,0.4c-0.1,0.1-0.3,0.1-0.5,0.1h-0.3c-0.2,0-0.4,0-0.5-0.1c-0.1-0.1-0.3-0.2-0.4-0.4l-4-7.4c0,0.2,0,0.4,0,0.6
	s0,0.4,0,0.5v8.4h-2v-12.9h2.1c0.1,0,0.1,0,0.2,0c0.1,0,0.1,0.1,0.2,0.1c0.1,0.1,0.1,0.1,0.1,0.2l3.9,7.2
	C317.9,129.9,318,130.1,318.1,130.3z"/>
<path class="st3" d="M330.3,123.2c0,0.2,0,0.4-0.1,0.5c-0.1,0.2-0.2,0.3-0.3,0.4c-0.1,0.1-0.3,0.2-0.5,0.3c-0.2,0.1-0.4,0.1-0.5,0.1
	c-0.2,0-0.4,0-0.5-0.1c-0.2-0.1-0.3-0.2-0.5-0.3c-0.1-0.1-0.2-0.3-0.3-0.4c-0.1-0.2-0.1-0.4-0.1-0.5c0-0.2,0-0.4,0.1-0.6
	c0.1-0.3,0.4-0.6,0.8-0.8c0.2-0.1,0.4-0.1,0.5-0.1c0.2,0,0.4,0,0.5,0.1c0.2,0.1,0.3,0.2,0.5,0.3c0.1,0.1,0.2,0.3,0.3,0.4
	C330.3,122.9,330.3,123,330.3,123.2z M330,125.9v9.2h-2.2v-9.2L330,125.9z"/>
<path class="st3" d="M337.7,127.7c0,0.1-0.1,0.1-0.2,0.2c-0.1,0-0.2,0.1-0.2,0.1c-0.1,0-0.2,0-0.3-0.1l-0.4-0.2
	c-0.2-0.1-0.4-0.2-0.5-0.2c-0.2-0.1-0.5-0.1-0.7-0.1c-0.4,0-0.7,0.1-1,0.3c-0.2,0.2-0.4,0.4-0.4,0.7c0,0.2,0.1,0.4,0.2,0.5
	c0.1,0.1,0.3,0.3,0.5,0.4c0.2,0.1,0.5,0.2,0.7,0.3l0.8,0.3c0.3,0.1,0.6,0.2,0.8,0.3c0.3,0.1,0.5,0.3,0.7,0.5
	c0.2,0.2,0.4,0.4,0.5,0.7c0.1,0.3,0.2,0.7,0.2,1c0,0.4-0.1,0.8-0.2,1.2c-0.2,0.4-0.4,0.7-0.7,1c-0.3,0.3-0.7,0.5-1.1,0.6
	c-0.5,0.2-1,0.2-1.6,0.2c-0.3,0-0.6,0-0.9-0.1c-0.3-0.1-0.6-0.1-0.9-0.2c-0.3-0.1-0.5-0.2-0.8-0.4c-0.2-0.1-0.4-0.3-0.6-0.4l0.5-0.8
	c0.1-0.1,0.1-0.2,0.2-0.2c0.2-0.1,0.5-0.1,0.7,0l0.4,0.2c0.2,0.1,0.4,0.2,0.6,0.2c0.3,0.1,0.5,0.1,0.8,0.1c0.2,0,0.5,0,0.7-0.1
	c0.2-0.1,0.3-0.1,0.5-0.2c0.1-0.1,0.2-0.2,0.3-0.4c0.1-0.1,0.1-0.3,0.1-0.4c0-0.2-0.1-0.4-0.2-0.5c-0.1-0.2-0.3-0.3-0.5-0.4
	c-0.2-0.1-0.5-0.2-0.7-0.3l-0.8-0.3c-0.3-0.1-0.6-0.2-0.8-0.3c-0.3-0.1-0.5-0.3-0.7-0.5c-0.2-0.2-0.4-0.5-0.5-0.7
	c-0.1-0.3-0.2-0.7-0.2-1c0-0.4,0.1-0.7,0.2-1.1c0.2-0.3,0.4-0.6,0.7-0.9c0.3-0.3,0.7-0.5,1.1-0.6c1.1-0.3,2.2-0.3,3.2,0.1
	c0.5,0.2,0.9,0.5,1.3,0.8L337.7,127.7z"/>
<path class="st3" d="M345.4,127.7c0,0.1-0.1,0.1-0.2,0.2c-0.1,0-0.2,0.1-0.2,0.1c-0.1,0-0.2,0-0.3-0.1l-0.4-0.2
	c-0.2-0.1-0.4-0.2-0.5-0.2c-0.2-0.1-0.5-0.1-0.7-0.1c-0.4,0-0.7,0.1-1,0.3c-0.2,0.2-0.4,0.4-0.4,0.7c0,0.2,0.1,0.4,0.2,0.5
	c0.1,0.1,0.3,0.3,0.5,0.4c0.2,0.1,0.5,0.2,0.7,0.3l0.8,0.3c0.3,0.1,0.6,0.2,0.8,0.3c0.3,0.1,0.5,0.3,0.7,0.5
	c0.2,0.2,0.4,0.4,0.5,0.7c0.1,0.3,0.2,0.7,0.2,1c0,0.4-0.1,0.8-0.2,1.2c-0.2,0.4-0.4,0.7-0.7,1c-0.3,0.3-0.7,0.5-1.1,0.6
	c-0.5,0.2-1,0.2-1.6,0.2c-0.3,0-0.6,0-0.9-0.1c-0.3-0.1-0.6-0.1-0.9-0.2c-0.3-0.1-0.5-0.2-0.8-0.4c-0.2-0.1-0.4-0.3-0.6-0.4l0.5-0.8
	c0.1-0.1,0.1-0.2,0.2-0.2c0.2-0.1,0.5-0.1,0.7,0l0.4,0.2c0.2,0.1,0.4,0.2,0.6,0.2c0.3,0.1,0.5,0.1,0.8,0.1c0.2,0,0.5,0,0.7-0.1
	c0.2,0,0.3-0.1,0.5-0.2c0.1-0.1,0.2-0.2,0.3-0.4c0.1-0.1,0.1-0.3,0.1-0.4c0-0.2-0.1-0.4-0.2-0.5c-0.1-0.2-0.3-0.3-0.5-0.4
	c-0.2-0.1-0.5-0.2-0.7-0.3l-0.8-0.3c-0.3-0.1-0.6-0.2-0.8-0.3c-0.3-0.1-0.5-0.3-0.7-0.5c-0.2-0.2-0.4-0.5-0.5-0.7
	c-0.1-0.3-0.2-0.7-0.2-1c0-0.4,0.1-0.7,0.2-1.1c0.2-0.3,0.4-0.6,0.6-0.9c0.3-0.3,0.7-0.5,1.1-0.6c1.1-0.3,2.2-0.3,3.2,0.1
	c0.5,0.2,0.9,0.5,1.3,0.8L345.4,127.7z"/>
<path class="st3" d="M350.2,123.2c0,0.2,0,0.4-0.1,0.5c-0.1,0.2-0.2,0.3-0.3,0.4c-0.1,0.1-0.3,0.2-0.5,0.3c-0.2,0.1-0.4,0.1-0.5,0.1
	c-0.2,0-0.4,0-0.5-0.1c-0.2-0.1-0.3-0.2-0.5-0.3c-0.1-0.1-0.2-0.3-0.3-0.4c-0.1-0.2-0.1-0.4-0.1-0.5c0-0.2,0-0.4,0.1-0.6
	c0.1-0.3,0.4-0.6,0.8-0.8c0.2-0.1,0.4-0.1,0.5-0.1c0.2,0,0.4,0,0.5,0.1c0.2,0.1,0.3,0.2,0.5,0.3c0.1,0.1,0.2,0.3,0.3,0.4
	C350.1,122.9,350.2,123,350.2,123.2z M349.9,125.9v9.2h-2.2v-9.2L349.9,125.9z"/>
<path class="st3" d="M356,125.8c0.6,0,1.3,0.1,1.9,0.3c0.5,0.2,1,0.5,1.4,0.9c0.4,0.4,0.7,0.9,0.9,1.5c0.4,1.3,0.4,2.7,0,3.9
	c-0.2,0.6-0.5,1.1-0.9,1.5c-0.4,0.4-0.9,0.7-1.4,0.9c-1.2,0.4-2.5,0.4-3.7,0c-0.5-0.2-1-0.5-1.4-0.9c-0.4-0.4-0.7-0.9-0.9-1.5
	c-0.4-1.3-0.4-2.7,0-3.9c0.2-0.6,0.5-1.1,0.9-1.5c0.4-0.4,0.9-0.7,1.4-0.9C354.8,125.9,355.4,125.8,356,125.8z M356,133.5
	c0.7,0.1,1.3-0.2,1.7-0.8c0.7-1.4,0.7-3.1,0-4.5c-0.4-0.5-1-0.8-1.7-0.8c-0.7,0-1.3,0.2-1.7,0.8c-0.7,1.4-0.7,3.1,0,4.5
	C354.7,133.3,355.4,133.6,356,133.5L356,133.5z"/>
<path class="st3" d="M362.2,135.1v-9.2h1.4c0.3,0,0.5,0.1,0.6,0.4l0.1,0.7c0.2-0.2,0.4-0.4,0.6-0.5c0.2-0.2,0.4-0.3,0.6-0.4
	c0.2-0.1,0.5-0.2,0.7-0.3c0.3-0.1,0.6-0.1,0.9-0.1c0.5,0,0.9,0.1,1.3,0.2c0.4,0.2,0.7,0.4,1,0.7c0.3,0.3,0.5,0.7,0.6,1.1
	c0.1,0.5,0.2,0.9,0.2,1.4v5.8H368v-5.8c0-0.5-0.1-0.9-0.4-1.3c-0.3-0.3-0.7-0.5-1.2-0.5c-0.4,0-0.7,0.1-1.1,0.3
	c-0.3,0.2-0.7,0.4-0.9,0.7v6.6H362.2z"/>
<path class="st3" d="M382.9,124.5c0,0.1-0.1,0.2-0.2,0.3c-0.1,0.1-0.2,0.1-0.3,0.1c-0.1,0-0.3-0.1-0.4-0.1l-0.5-0.3
	c-0.2-0.1-0.5-0.2-0.7-0.3c-0.3-0.1-0.7-0.2-1-0.1c-0.3,0-0.6,0-0.9,0.1c-0.2,0.1-0.4,0.2-0.6,0.3c-0.2,0.1-0.3,0.3-0.4,0.5
	c-0.1,0.2-0.1,0.4-0.1,0.7c0,0.3,0.1,0.5,0.2,0.8c0.2,0.2,0.4,0.4,0.7,0.5c0.3,0.2,0.6,0.3,1,0.4l1.1,0.4c0.4,0.1,0.7,0.3,1.1,0.5
	c0.4,0.2,0.7,0.4,1,0.6c0.3,0.3,0.5,0.6,0.7,1c0.2,0.4,0.3,0.9,0.2,1.4c0,0.6-0.1,1.1-0.3,1.6c-0.2,0.5-0.5,1-0.9,1.3
	c-0.4,0.4-0.9,0.7-1.4,0.9c-0.6,0.2-1.3,0.3-1.9,0.3c-0.4,0-0.8,0-1.2-0.1c-0.4-0.1-0.8-0.2-1.1-0.3c-0.4-0.1-0.7-0.3-1-0.5
	c-0.3-0.2-0.6-0.4-0.9-0.7l0.7-1.1c0.1-0.1,0.1-0.2,0.2-0.2c0.1-0.1,0.2-0.1,0.3-0.1c0.2,0,0.4,0.1,0.5,0.2l0.6,0.4
	c0.3,0.2,0.5,0.3,0.8,0.4c0.4,0.1,0.8,0.2,1.1,0.2c0.6,0,1.1-0.1,1.6-0.5c0.4-0.4,0.6-0.9,0.6-1.4c0-0.3-0.1-0.6-0.3-0.8
	c-0.2-0.2-0.4-0.4-0.7-0.5c-0.3-0.2-0.7-0.3-1-0.4l-1.1-0.3c-0.4-0.1-0.7-0.3-1.1-0.4c-0.4-0.2-0.7-0.4-1-0.6
	c-0.3-0.3-0.5-0.6-0.7-1c-0.2-0.5-0.3-1-0.3-1.5c0-0.5,0.1-0.9,0.3-1.4c0.2-0.4,0.5-0.9,0.8-1.2c0.4-0.4,0.8-0.6,1.3-0.8
	c0.6-0.2,1.2-0.3,1.8-0.3c0.7,0,1.4,0.1,2.1,0.4c0.6,0.2,1.2,0.6,1.6,1L382.9,124.5z"/>
<path class="st3" d="M387.4,125.9v5.8c0,0.5,0.1,0.9,0.4,1.3c0.3,0.3,0.7,0.5,1.2,0.5c0.4,0,0.7-0.1,1.1-0.3c0.4-0.2,0.7-0.4,1-0.7
	v-6.6h2.2v9.2h-1.4c-0.3,0-0.5-0.1-0.6-0.4l-0.1-0.7c-0.2,0.2-0.4,0.4-0.6,0.5c-0.2,0.2-0.4,0.3-0.6,0.4c-0.2,0.1-0.5,0.2-0.7,0.3
	c-0.3,0.1-0.6,0.1-0.9,0.1c-0.5,0-0.9-0.1-1.3-0.2c-0.4-0.2-0.7-0.4-1-0.7c-0.3-0.3-0.5-0.7-0.6-1.1c-0.1-0.5-0.2-0.9-0.2-1.4v-5.8
	H387.4z"/>
<path class="st3" d="M395.3,138.1v-12.2h1.4c0.1,0,0.3,0,0.4,0.1c0.1,0.1,0.2,0.2,0.2,0.3l0.2,0.8c0.4-0.4,0.8-0.7,1.3-1
	c0.5-0.3,1.1-0.4,1.7-0.4c0.5,0,0.9,0.1,1.4,0.3c0.4,0.2,0.8,0.5,1.1,0.9c0.3,0.4,0.6,0.9,0.7,1.5c0.2,0.7,0.2,1.3,0.2,2
	c0,0.6-0.1,1.3-0.3,1.9c-0.2,0.6-0.4,1.1-0.8,1.5c-0.7,0.9-1.8,1.4-2.9,1.4c-0.5,0-0.9-0.1-1.3-0.2c-0.4-0.2-0.7-0.4-1-0.7v3.8
	L395.3,138.1z M399.6,127.5c-0.4,0-0.8,0.1-1.2,0.3c-0.3,0.2-0.6,0.5-0.9,0.8v4.1c0.2,0.3,0.5,0.5,0.8,0.6c0.3,0.1,0.7,0.2,1,0.2
	c0.3,0,0.6-0.1,0.9-0.2c0.3-0.1,0.5-0.3,0.7-0.6c0.2-0.3,0.4-0.6,0.4-1c0.1-0.5,0.2-0.9,0.1-1.4c0-0.5,0-0.9-0.1-1.4
	c-0.1-0.3-0.2-0.6-0.4-0.9c-0.1-0.2-0.3-0.4-0.6-0.5C400.2,127.5,399.9,127.5,399.6,127.5z"/>
<path class="st3" d="M405.4,138.1v-12.2h1.4c0.1,0,0.3,0,0.4,0.1c0.1,0.1,0.2,0.2,0.2,0.3l0.2,0.8c0.4-0.4,0.8-0.7,1.3-1
	c0.5-0.3,1.1-0.4,1.7-0.4c0.5,0,0.9,0.1,1.4,0.3c0.4,0.2,0.8,0.5,1.1,0.9c0.3,0.4,0.6,0.9,0.7,1.5c0.2,0.7,0.3,1.3,0.2,2
	c0,0.6-0.1,1.3-0.3,1.9c-0.2,0.6-0.4,1.1-0.8,1.5c-0.3,0.4-0.8,0.8-1.2,1c-0.5,0.2-1.1,0.4-1.6,0.4c-0.5,0-0.9-0.1-1.3-0.2
	c-0.4-0.2-0.7-0.4-1-0.7v3.8L405.4,138.1z M409.7,127.5c-0.4,0-0.8,0.1-1.2,0.3c-0.3,0.2-0.7,0.5-0.9,0.8v4.1
	c0.2,0.3,0.5,0.5,0.8,0.6c0.3,0.1,0.6,0.2,1,0.2c0.3,0,0.6-0.1,0.9-0.2c0.3-0.1,0.5-0.3,0.7-0.6c0.2-0.3,0.4-0.6,0.4-1
	c0.1-0.5,0.2-0.9,0.1-1.4c0-0.5,0-0.9-0.1-1.4c-0.1-0.3-0.2-0.6-0.4-0.9c-0.1-0.2-0.3-0.4-0.6-0.5
	C410.2,127.5,410,127.5,409.7,127.5z"/>
<path class="st3" d="M419.4,125.8c0.6,0,1.3,0.1,1.9,0.3c0.5,0.2,1,0.5,1.4,0.9c0.4,0.4,0.7,0.9,0.9,1.5c0.4,1.3,0.4,2.7,0,3.9
	c-0.2,0.6-0.5,1.1-0.9,1.5c-0.4,0.4-0.9,0.7-1.4,0.9c-0.6,0.2-1.2,0.3-1.9,0.3c-0.6,0-1.3-0.1-1.9-0.3c-0.5-0.2-1-0.5-1.4-0.9
	c-0.4-0.4-0.7-0.9-0.9-1.5c-0.4-1.3-0.4-2.7,0-3.9c0.2-0.6,0.5-1.1,0.9-1.5c0.4-0.4,0.9-0.7,1.4-0.9
	C418.2,125.9,418.8,125.8,419.4,125.8z M419.4,133.5c0.7,0.1,1.3-0.2,1.7-0.8c0.7-1.4,0.7-3.1,0-4.5c-0.4-0.5-1-0.8-1.7-0.8
	c-0.7,0-1.3,0.2-1.7,0.8c-0.7,1.4-0.7,3.1,0,4.5C418.1,133.3,418.8,133.6,419.4,133.5L419.4,133.5z"/>
<path class="st3" d="M425.5,135.1v-9.2h1.3c0.2,0,0.3,0,0.5,0.1c0.1,0.1,0.2,0.3,0.2,0.4l0.1,1.1c0.3-0.5,0.7-1,1.1-1.3
	c0.4-0.3,0.9-0.5,1.5-0.5c0.4,0,0.8,0.1,1.1,0.3l-0.3,1.7c0,0.1-0.1,0.2-0.1,0.2c-0.1,0-0.2,0.1-0.2,0.1c-0.1,0-0.2,0-0.4-0.1
	c-0.2,0-0.4-0.1-0.6-0.1c-0.4,0-0.8,0.1-1.2,0.4c-0.4,0.3-0.6,0.7-0.8,1.1v5.7L425.5,135.1z"/>
<path class="st3" d="M436.1,135.2c-0.7,0-1.3-0.2-1.8-0.7c-0.5-0.5-0.7-1.2-0.6-1.9v-5.1h-0.9c-0.1,0-0.2,0-0.3-0.1
	c-0.1-0.1-0.1-0.2-0.1-0.3v-0.9l1.5-0.2l0.5-2.5c0-0.1,0.1-0.2,0.2-0.3c0.1-0.1,0.2-0.1,0.3-0.1h1.1v2.9h2.4v1.6h-2.4v5
	c0,0.2,0.1,0.5,0.2,0.7c0.1,0.2,0.4,0.2,0.6,0.2c0.1,0,0.2,0,0.3,0c0.1,0,0.2-0.1,0.2-0.1l0.2-0.1c0.1,0,0.1,0,0.2,0
	c0.1,0,0.1,0,0.2,0c0.1,0,0.1,0.1,0.1,0.1l0.7,1.1c-0.3,0.3-0.7,0.5-1.1,0.6C436.9,135.2,436.5,135.3,436.1,135.2z"/>
<path class="st3" d="M269.7,150.4h7.3v1.6h-7.3V150.4z"/>
<path class="st3" d="M294.5,156.6h-1.9c-0.2,0-0.4,0-0.5-0.2c-0.1-0.1-0.2-0.2-0.3-0.4l-1-2.6h-5.4l-1,2.6c-0.1,0.3-0.4,0.6-0.8,0.6
	h-1.9l5.2-12.9h2.5L294.5,156.6z M286.1,151.7h4.1l-1.6-4.3l-0.2-0.7c-0.1-0.3-0.2-0.5-0.2-0.9c-0.1,0.3-0.2,0.6-0.2,0.9
	s-0.2,0.5-0.2,0.7L286.1,151.7z"/>
<path class="st3" d="M301.9,156.6c-0.3,0-0.5-0.1-0.6-0.4l-0.2-0.9c-0.2,0.2-0.4,0.4-0.6,0.6c-0.2,0.2-0.4,0.3-0.7,0.4
	c-0.2,0.1-0.5,0.2-0.8,0.3c-0.3,0.1-0.6,0.1-0.9,0.1c-1,0-1.9-0.4-2.5-1.2c-0.3-0.4-0.6-0.9-0.7-1.5c-0.2-0.7-0.2-1.3-0.2-2
	c0-0.6,0.1-1.3,0.3-1.9c0.2-0.5,0.4-1.1,0.8-1.5c0.3-0.4,0.8-0.8,1.2-1c0.5-0.2,1.1-0.4,1.6-0.4c0.5,0,0.9,0.1,1.3,0.2
	c0.4,0.2,0.7,0.4,1,0.7v-4.9h2.2v13.3L301.9,156.6z M299,154.9c0.4,0,0.8-0.1,1.2-0.3c0.3-0.2,0.7-0.5,0.9-0.8v-4.1
	c-0.2-0.3-0.5-0.5-0.8-0.6c-0.3-0.1-0.7-0.2-1-0.2c-0.3,0-0.6,0.1-0.9,0.2c-0.3,0.1-0.5,0.3-0.7,0.6c-0.2,0.3-0.4,0.6-0.4,1
	c-0.1,0.5-0.2,0.9-0.1,1.4c0,0.5,0,0.9,0.1,1.4c0.1,0.3,0.2,0.6,0.4,0.9c0.1,0.2,0.3,0.4,0.6,0.5C298.4,154.9,298.7,155,299,154.9z"
	/>
<path class="st3" d="M305.4,156.6v-9.2h1.4c0.3,0,0.5,0.2,0.6,0.4l0.1,0.7c0.2-0.2,0.3-0.3,0.5-0.5c0.2-0.2,0.4-0.3,0.6-0.4
	c0.2-0.1,0.4-0.2,0.6-0.3c0.2-0.1,0.5-0.1,0.8-0.1c0.5,0,1,0.1,1.4,0.5c0.4,0.3,0.7,0.8,0.8,1.2c0.1-0.3,0.3-0.6,0.5-0.8
	c0.2-0.2,0.5-0.4,0.7-0.5c0.3-0.1,0.5-0.2,0.8-0.3c0.3-0.1,0.6-0.1,0.9-0.1c0.5,0,0.9,0.1,1.4,0.2c0.4,0.1,0.7,0.4,1,0.7
	c0.3,0.3,0.5,0.7,0.6,1.1c0.1,0.5,0.2,1,0.2,1.5v5.8h-2.2v-5.8c0-0.5-0.1-0.9-0.4-1.3c-0.3-0.3-0.7-0.5-1.1-0.4
	c-0.2,0-0.4,0-0.6,0.1c-0.2,0.1-0.4,0.2-0.5,0.3c-0.2,0.2-0.3,0.3-0.3,0.6c-0.1,0.2-0.1,0.5-0.1,0.8v5.8h-2.2v-5.8
	c0-0.5-0.1-1-0.4-1.3c-0.3-0.3-0.7-0.4-1.1-0.4c-0.3,0-0.6,0.1-0.9,0.2c-0.3,0.2-0.6,0.4-0.8,0.6v6.7L305.4,156.6z"/>
<path class="st3" d="M322.9,144.7c0,0.2,0,0.4-0.1,0.5c-0.1,0.2-0.2,0.3-0.3,0.4c-0.1,0.1-0.3,0.2-0.5,0.3c-0.2,0.1-0.4,0.1-0.6,0.1
	c-0.2,0-0.3,0-0.5-0.1c-0.3-0.1-0.6-0.4-0.7-0.7c-0.1-0.2-0.1-0.3-0.1-0.5c0-0.2,0-0.4,0.1-0.6c0.1-0.2,0.2-0.3,0.3-0.4
	c0.1-0.1,0.3-0.2,0.4-0.3c0.2-0.1,0.4-0.1,0.5-0.1c0.2,0,0.4,0,0.6,0.1c0.2,0.1,0.3,0.2,0.5,0.3c0.1,0.1,0.2,0.3,0.3,0.4
	C322.9,144.3,323,144.5,322.9,144.7z M322.6,147.4v9.2h-2.2v-9.2H322.6z"/>
<path class="st3" d="M324.9,156.6v-9.2h1.4c0.3,0,0.5,0.1,0.6,0.4l0.2,0.7c0.2-0.2,0.4-0.4,0.6-0.5c0.2-0.2,0.4-0.3,0.7-0.4
	c0.2-0.1,0.5-0.2,0.7-0.3c0.3-0.1,0.6-0.1,0.9-0.1c0.5,0,0.9,0.1,1.3,0.2c0.4,0.2,0.7,0.4,1,0.7c0.3,0.3,0.5,0.7,0.6,1.1
	c0.1,0.5,0.2,0.9,0.2,1.4v5.8h-2.2v-5.8c0-0.5-0.1-0.9-0.4-1.3c-0.3-0.3-0.7-0.5-1.2-0.5c-0.4,0-0.7,0.1-1.1,0.3
	c-0.4,0.2-0.7,0.4-1,0.7v6.6H324.9z"/>
<path class="st3" d="M337.5,144.7c0,0.2,0,0.4-0.1,0.5c-0.1,0.2-0.2,0.3-0.3,0.4c-0.1,0.1-0.3,0.2-0.5,0.3c-0.2,0.1-0.4,0.1-0.5,0.1
	c-0.2,0-0.4,0-0.5-0.1c-0.3-0.1-0.6-0.4-0.7-0.7c-0.1-0.2-0.1-0.3-0.1-0.5c0-0.2,0-0.4,0.1-0.6c0.1-0.2,0.2-0.3,0.3-0.4
	c0.1-0.1,0.3-0.2,0.4-0.3c0.3-0.1,0.7-0.1,1.1,0c0.2,0.1,0.3,0.2,0.5,0.3c0.1,0.1,0.2,0.3,0.3,0.4
	C337.4,144.3,337.5,144.5,337.5,144.7z M337.1,147.4v9.2h-2.2v-9.2H337.1z"/>
<path class="st3" d="M344.9,149.2c0,0.1-0.1,0.2-0.2,0.2c-0.1,0-0.2,0.1-0.2,0.1c-0.1,0-0.2,0-0.3-0.1l-0.4-0.2
	c-0.2-0.1-0.4-0.2-0.5-0.2c-0.2-0.1-0.5-0.1-0.7-0.1c-0.4,0-0.7,0.1-1,0.3c-0.2,0.2-0.4,0.4-0.4,0.7c0,0.2,0.1,0.4,0.2,0.5
	c0.1,0.1,0.3,0.3,0.5,0.4c0.2,0.1,0.5,0.2,0.7,0.3l0.8,0.3c0.3,0.1,0.6,0.2,0.8,0.3c0.3,0.1,0.5,0.3,0.7,0.5
	c0.2,0.2,0.4,0.4,0.5,0.7c0.1,0.3,0.2,0.7,0.2,1c0,0.4-0.1,0.8-0.2,1.2c-0.2,0.4-0.4,0.7-0.7,1c-0.3,0.3-0.7,0.5-1.1,0.6
	c-0.5,0.2-1,0.2-1.6,0.2c-0.3,0-0.6,0-0.9-0.1c-0.3-0.1-0.6-0.1-0.9-0.2c-0.3-0.1-0.5-0.2-0.8-0.4c-0.2-0.1-0.4-0.3-0.6-0.4l0.5-0.8
	c0.1-0.1,0.1-0.2,0.2-0.2c0.2-0.1,0.5-0.1,0.7,0c0.1,0.1,0.3,0.2,0.4,0.2c0.2,0.1,0.4,0.2,0.6,0.2c0.3,0.1,0.5,0.1,0.8,0.1
	c0.2,0,0.5,0,0.7-0.1c0.2-0.1,0.3-0.1,0.5-0.2c0.1-0.1,0.2-0.2,0.3-0.4c0.1-0.1,0.1-0.3,0.1-0.4c0-0.2-0.1-0.4-0.2-0.5
	c-0.1-0.2-0.3-0.3-0.5-0.4c-0.2-0.1-0.5-0.2-0.7-0.3l-0.8-0.3c-0.3-0.1-0.6-0.2-0.8-0.3c-0.3-0.1-0.5-0.3-0.7-0.5
	c-0.2-0.2-0.4-0.4-0.5-0.7c-0.1-0.3-0.2-0.7-0.2-1c0-0.4,0.1-0.7,0.2-1.1c0.2-0.3,0.4-0.6,0.7-0.9c0.3-0.3,0.7-0.5,1.1-0.6
	c0.5-0.2,1-0.2,1.5-0.2c0.6,0,1.2,0.1,1.7,0.3c0.5,0.2,0.9,0.5,1.3,0.8L344.9,149.2z"/>
<path class="st3" d="M350.2,156.7c-0.7,0-1.3-0.2-1.8-0.7c-0.5-0.5-0.7-1.2-0.6-1.9V149h-0.9c-0.1,0-0.2,0-0.3-0.1
	c-0.1-0.1-0.1-0.2-0.1-0.4v-0.9l1.5-0.2l0.5-2.5c0-0.1,0.1-0.2,0.2-0.3c0.1-0.1,0.2-0.1,0.3-0.1h1.2v2.9h2.4v1.6H350v5
	c0,0.2,0.1,0.5,0.2,0.7c0.1,0.2,0.4,0.2,0.6,0.2c0.1,0,0.2,0,0.3,0c0.1,0,0.2-0.1,0.2-0.1l0.2-0.1c0.1,0,0.1,0,0.2,0
	c0.1,0,0.1,0,0.2,0c0.1,0,0.1,0.1,0.1,0.1l0.7,1.1c-0.3,0.3-0.7,0.5-1.1,0.6C351.1,156.7,350.7,156.7,350.2,156.7z"/>
<path class="st3" d="M353.9,156.6v-9.2h1.3c0.2,0,0.3,0,0.5,0.1c0.1,0.1,0.2,0.3,0.2,0.4l0.1,1.1c0.3-0.5,0.7-1,1.2-1.4
	c0.4-0.3,0.9-0.5,1.5-0.5c0.4,0,0.8,0.1,1.1,0.3l-0.3,1.7c0,0.1-0.1,0.2-0.1,0.2c-0.1,0-0.2,0.1-0.2,0.1c-0.1,0-0.2,0-0.4-0.1
	c-0.2,0-0.4-0.1-0.6-0.1c-0.4,0-0.8,0.1-1.2,0.4c-0.4,0.3-0.7,0.7-0.8,1.1v5.7H353.9z"/>
<path class="st3" d="M368.1,156.6h-1c-0.2,0-0.3,0-0.5-0.1c-0.1-0.1-0.2-0.2-0.3-0.4l-0.2-0.7c-0.2,0.2-0.4,0.4-0.7,0.6
	c-0.2,0.2-0.4,0.3-0.7,0.4c-0.2,0.1-0.5,0.2-0.8,0.2c-0.3,0.1-0.6,0.1-0.9,0.1c-0.4,0-0.7,0-1.1-0.1c-0.3-0.1-0.6-0.3-0.9-0.5
	c-0.2-0.2-0.4-0.5-0.5-0.8c-0.1-0.3-0.2-0.7-0.2-1.1c0-0.4,0.1-0.7,0.3-1c0.2-0.4,0.5-0.7,0.9-0.9c0.5-0.3,1.1-0.5,1.7-0.7
	c0.9-0.2,1.7-0.3,2.6-0.3v-0.5c0-0.5-0.1-1-0.4-1.4c-0.3-0.3-0.7-0.5-1.1-0.4c-0.3,0-0.6,0-0.9,0.1c-0.2,0.1-0.4,0.2-0.6,0.3
	c-0.2,0.1-0.3,0.2-0.5,0.3c-0.1,0.1-0.3,0.1-0.5,0.1c-0.1,0-0.3,0-0.4-0.1c-0.1-0.1-0.2-0.2-0.3-0.3l-0.4-0.7c1-1,2.4-1.5,3.8-1.4
	c0.5,0,1,0.1,1.4,0.3c0.4,0.2,0.8,0.4,1.1,0.7c0.3,0.3,0.5,0.7,0.7,1.1c0.2,0.5,0.2,0.9,0.2,1.4L368.1,156.6z M363.8,155.2
	c0.2,0,0.4,0,0.6-0.1c0.2,0,0.4-0.1,0.5-0.2c0.2-0.1,0.3-0.2,0.5-0.3c0.2-0.1,0.3-0.3,0.5-0.4v-1.5c-0.5,0-1.1,0-1.6,0.1
	c-0.3,0.1-0.7,0.2-1,0.3c-0.2,0.1-0.4,0.2-0.6,0.4c-0.3,0.4-0.2,1,0.2,1.4C363.2,155.1,363.5,155.2,363.8,155.2z"/>
<path class="st3" d="M373,156.7c-0.7,0-1.3-0.2-1.8-0.7c-0.5-0.5-0.7-1.2-0.6-1.9V149h-0.9c-0.2,0-0.4-0.2-0.4-0.4c0,0,0,0,0-0.1
	v-0.9l1.5-0.2l0.5-2.5c0-0.1,0.1-0.2,0.2-0.3c0.1-0.1,0.2-0.1,0.3-0.1h1.1v2.9h2.4v1.6h-2.4v5c0,0.2,0.1,0.5,0.2,0.7
	c0.1,0.2,0.4,0.2,0.6,0.2c0.1,0,0.2,0,0.4,0c0.1,0,0.2-0.1,0.2-0.1l0.2-0.1c0.1,0,0.1,0,0.2,0c0.1,0,0.1,0,0.2,0
	c0.1,0,0.1,0.1,0.1,0.1l0.7,1.1c-0.3,0.3-0.7,0.5-1.1,0.6C373.9,156.7,373.4,156.7,373,156.7z"/>
<path class="st3" d="M379.2,144.7c0,0.2,0,0.4-0.1,0.5c-0.1,0.2-0.2,0.3-0.3,0.4c-0.1,0.1-0.3,0.2-0.5,0.3c-0.2,0.1-0.4,0.1-0.6,0.1
	c-0.2,0-0.4,0-0.5-0.1c-0.3-0.1-0.6-0.4-0.7-0.7c-0.1-0.2-0.1-0.3-0.1-0.5c0-0.2,0-0.4,0.1-0.6c0.1-0.2,0.2-0.3,0.3-0.4
	c0.1-0.1,0.3-0.2,0.4-0.3c0.2-0.1,0.4-0.1,0.5-0.1c0.2,0,0.4,0,0.6,0.1c0.2,0.1,0.3,0.2,0.5,0.3c0.1,0.1,0.2,0.3,0.3,0.4
	C379.2,144.3,379.3,144.5,379.2,144.7z M378.9,147.4v9.2h-2.2v-9.2H378.9z"/>
<path class="st3" d="M385.1,147.2c0.6,0,1.3,0.1,1.9,0.3c0.5,0.2,1,0.5,1.4,0.9c0.4,0.4,0.7,0.9,0.9,1.5c0.4,1.3,0.4,2.7,0,3.9
	c-0.2,0.6-0.5,1.1-0.9,1.5c-0.4,0.4-0.9,0.7-1.4,0.9c-1.2,0.4-2.5,0.4-3.7,0c-0.5-0.2-1-0.5-1.4-0.9c-0.4-0.4-0.7-0.9-0.9-1.5
	c-0.4-1.3-0.4-2.7,0-3.9c0.2-0.6,0.5-1.1,0.9-1.5c0.4-0.4,0.9-0.7,1.4-0.9C383.8,147.3,384.5,147.2,385.1,147.2z M385.1,155
	c0.7,0,1.3-0.3,1.7-0.8c0.7-1.4,0.7-3.1,0-4.5c-0.4-0.5-1-0.8-1.7-0.8c-0.7,0-1.3,0.2-1.7,0.8c-0.4,0.7-0.6,1.5-0.6,2.3
	c-0.1,0.8,0.1,1.6,0.6,2.2C383.8,154.8,384.5,155,385.1,155z"/>
<path class="st3" d="M391.2,156.6v-9.2h1.4c0.3,0,0.5,0.1,0.6,0.4l0.1,0.7c0.2-0.2,0.4-0.4,0.6-0.5c0.2-0.2,0.4-0.3,0.7-0.4
	c0.2-0.1,0.5-0.2,0.7-0.3c0.3-0.1,0.6-0.1,0.9-0.1c0.5,0,0.9,0.1,1.3,0.2c0.4,0.2,0.7,0.4,1,0.7c0.3,0.3,0.5,0.7,0.6,1.1
	c0.1,0.5,0.2,0.9,0.2,1.4v5.8H397v-5.8c0-0.5-0.1-0.9-0.4-1.3c-0.3-0.3-0.7-0.5-1.2-0.5c-0.4,0-0.7,0.1-1.1,0.3
	c-0.4,0.2-0.7,0.4-1,0.7v6.6H391.2z"/>
<circle class="st2" cx="245.2" cy="26.4" r="14.1"/>
<circle class="st1" cx="245.2" cy="83.8" r="14.1"/>
<ellipse transform="matrix(0.1891 -0.982 0.982 0.1891 60.223 355.1875)" class="st0" cx="245.2" cy="141.1" rx="14.1" ry="14.1"/>
<path class="st3" d="M46.3,133.9c2.2,1,3.6,3.2,3.5,5.6c0,4.2-3.1,6.9-7.8,6.9c-4.6,0-7.7-2.8-7.7-6.9c-0.2-2.4,1.3-4.7,3.5-5.6
	c-1.8-1-3-2.9-2.9-5c0-3.8,2.8-6.3,7-6.3c5,0,7.2,3.3,7.2,6.3C49.2,130.9,48.1,132.9,46.3,133.9z M42,135.7c-1.6,0-2.6,1.4-2.6,3.6
	s1.1,3.7,2.7,3.7s2.5-1.4,2.5-3.6S43.6,135.7,42,135.7z M42,126c-1.3,0-2.2,1.2-2.2,3.2s0.8,3.3,2.2,3.3s2.1-1.3,2.1-3.3
	S43.4,126,42,126z"/>
<path class="st3" d="M61.2,146.4c-5.4,0-8-4.9-8-11.9c0-7.9,3.3-11.9,7.9-11.9c5.2,0,7.8,5,7.8,11.8C69,141.2,66.7,146.4,61.2,146.4
	z M61.1,127c-2.4,0-2.7,3.2-2.7,7.8c0,4.7,0.7,7.3,2.8,7.3c2.3,0,2.7-3.2,2.7-8C63.8,129.4,63.2,127,61.1,127z"/>
<path class="st3" d="M78.1,143.4c0,1.7-1.3,3-3,3s-3-1.3-3-3s1.3-3,3-3S78.1,141.8,78.1,143.4z"/>
<path class="st3" d="M95.9,127.6h-7.4v4.3c5.3-0.4,8.2,3.2,8.2,7.1c0,4.5-3.3,7.4-8.4,7.4c-1.9,0-3.9-0.4-5.6-1.2v-4.2
	c1.5,0.9,3.2,1.4,4.9,1.5c2.1,0,3.7-1.4,3.7-3.2c0-2.6-2.8-3.9-7.4-3.1v-13.2h12L95.9,127.6z"/>
<path class="st3" d="M104.8,133.5c-3,0-5.5-2.4-5.5-5.5s2.4-5.5,5.5-5.5s5.5,2.4,5.5,5.5C110.2,131.1,107.8,133.5,104.8,133.5z
	 M103.9,146.4h-2.8l16.3-23.8h2.7L103.9,146.4z M104.8,125.5c-1.3,0-2.4,1.1-2.4,2.5c0,0,0,0.1,0,0.1c0,1.4,1.1,2.5,2.4,2.6
	c1.4,0,2.4-1.1,2.4-2.5c0,0,0,0,0-0.1C107.2,126.7,106.1,125.6,104.8,125.5z M116.6,146.4c-3,0-5.5-2.4-5.5-5.5s2.4-5.5,5.5-5.5
	s5.5,2.4,5.5,5.5C122,143.9,119.6,146.4,116.6,146.4L116.6,146.4z M116.6,138.4c-1.3,0-2.4,1.1-2.4,2.5c0,0,0,0.1,0,0.1
	c0,1.4,1.1,2.5,2.4,2.6c1.4,0,2.4-1.1,2.4-2.5c0,0,0,0,0-0.1C119,139.6,118,138.4,116.6,138.4L116.6,138.4z"/>
<path class="st3" d="M115.7,39.7H113V27.4h2.7L115.7,39.7z"/>
<path class="st3" d="M121.9,32.2c0.8,0.1,1.6-0.5,1.7-1.4c0,0,0-0.1,0-0.1c0-0.8-0.7-1.4-1.8-1.4c-0.8,0-1.6,0.2-2.2,0.6v-2.2
	c0.9-0.4,1.8-0.6,2.8-0.5c2.3,0,3.9,1.2,3.9,3c0,1.2-0.7,2.3-1.8,2.8c1.3,0.5,2.2,1.7,2.2,3.2c0,2.2-1.7,3.6-4.4,3.6
	c-1,0-2.1-0.2-3-0.7v-2.4c0.7,0.6,1.6,1,2.6,1c0.9,0.1,1.8-0.5,1.9-1.5c0-0.1,0-0.1,0-0.2c0-1-0.8-1.8-1.8-1.7c0,0-0.1,0-0.1,0
	L121.9,32.2z"/>
<path class="st3" d="M132.2,38.3c0,0.9-0.7,1.6-1.6,1.6c-0.9,0-1.6-0.7-1.6-1.6c0-0.9,0.7-1.6,1.6-1.6c0,0,0,0,0,0
	C131.5,36.7,132.2,37.4,132.2,38.3C132.2,38.3,132.2,38.3,132.2,38.3z"/>
<path class="st3" d="M137.2,32.2c0.8,0.1,1.6-0.5,1.7-1.4c0,0,0-0.1,0-0.1c0-0.8-0.7-1.4-1.8-1.4c-0.8,0-1.6,0.2-2.2,0.6v-2.2
	c0.9-0.4,1.8-0.6,2.8-0.5c2.3,0,3.9,1.2,3.9,3c0,1.2-0.7,2.3-1.8,2.8c1.3,0.5,2.2,1.7,2.1,3.2c0,2.2-1.7,3.6-4.4,3.6
	c-1,0-2.1-0.2-3-0.7v-2.4c0.7,0.6,1.6,1,2.6,1c0.9,0.1,1.8-0.5,1.9-1.5c0,0,0-0.1,0-0.1c0-1-0.8-1.8-1.8-1.7c0,0-0.1,0-0.1,0
	L137.2,32.2z"/>
<path class="st3" d="M146.5,33.1c-1.6,0-2.9-1.3-2.9-2.9s1.3-2.9,2.9-2.9c1.6,0,2.9,1.3,2.9,2.9c0,0,0,0,0,0
	C149.4,31.8,148.1,33,146.5,33.1z M146.1,39.9h-1.5l8.6-12.6h1.4L146.1,39.9z M146.5,28.9c-0.7,0-1.3,0.6-1.3,1.3c0,0,0,0,0,0.1
	c0,0.7,0.6,1.3,1.3,1.4c0.7,0,1.3-0.6,1.3-1.3c0,0,0,0,0,0C147.8,29.5,147.3,28.9,146.5,28.9C146.5,28.8,146.5,28.8,146.5,28.9
	L146.5,28.9z M152.8,39.9c-1.6,0-2.9-1.3-2.9-2.9s1.3-2.9,2.9-2.9s2.9,1.3,2.9,2.9v0C155.6,38.6,154.4,39.9,152.8,39.9L152.8,39.9z
	 M152.8,35.7c-0.7,0-1.3,0.6-1.3,1.3c0,0,0,0,0,0.1c0,0.7,0.6,1.3,1.3,1.4c0.7,0,1.3-0.6,1.3-1.3c0,0,0,0,0,0
	C154.1,36.3,153.5,35.6,152.8,35.7C152.8,35.6,152.8,35.6,152.8,35.7L152.8,35.7z"/>
<path class="st3" d="M155.5,58c1.5-0.4,3.3,0.7,3.3,3c0.1,1.8-1.3,3.3-3.1,3.3c-1.8,0.1-3.3-1.3-3.3-3.1c0-0.1,0-0.2,0-0.3
	c0.1-1.4,0.5-2.7,1.3-3.9l1.7-2.7h2.4L155.5,58z M155.6,59.6c-0.7,0-1.1,0.6-1.1,1.5s0.4,1.4,1.1,1.4s1.1-0.6,1.1-1.5
	S156.2,59.5,155.6,59.6L155.6,59.6z"/>
<path class="st3" d="M162.9,63c0,0.7-0.6,1.3-1.2,1.3s-1.2-0.6-1.2-1.3s0.6-1.2,1.2-1.2S162.9,62.4,162.9,63z"/>
<path class="st3" d="M171,64.2h-6.5v-0.3c1-1.2,1.9-2.5,2.7-3.8c0.6-0.8,1-1.7,1.1-2.7c0-0.8-0.5-1.4-1.3-1.4c0,0,0,0,0,0
	c-0.9,0.1-1.7,0.5-2.4,1.2v-2c0.8-0.6,1.8-0.9,2.7-0.9c1.9,0,3.1,1,3.1,2.8c0,1.2-0.9,2.9-2.7,5.1h3.2V64.2z"/>
<path class="st3" d="M174.2,58.9c-1.3,0-2.3-1-2.3-2.3c0-1.3,1-2.3,2.3-2.3c1.3,0,2.3,1,2.3,2.3C176.5,57.8,175.5,58.9,174.2,58.9z
	 M173.9,64.3h-1.2l6.9-10h1.1L173.9,64.3z M174.2,55.5c-0.6,0-1,0.4-1,1c0,0,0,0,0,0.1c0,0.6,0.4,1,1,1.1c0.6-0.1,1-0.6,1-1.2
	C175.1,56,174.7,55.5,174.2,55.5z M179.2,64.3c-1.3,0-2.3-1-2.3-2.3c0-1.3,1-2.3,2.3-2.3c1.3,0,2.3,1,2.3,2.3c0,0,0,0,0,0
	C181.5,63.3,180.5,64.3,179.2,64.3L179.2,64.3z M179.2,60.9c-0.6,0-1,0.4-1,1c0,0,0,0.1,0,0.1c0,0.6,0.4,1,1,1.1c0.6,0,1-0.4,1-1
	c0,0,0,0,0-0.1C180.3,61.4,179.8,61,179.2,60.9C179.3,60.9,179.2,60.9,179.2,60.9L179.2,60.9z"/>
</svg>
