<?xml version="1.0" encoding="utf-8"?>
<!-- Generator: Adobe Illustrator 23.0.3, SVG Export Plug-In . SVG Version: 6.00 Build 0)  -->
<svg version="1.1" id="Layer_1" xmlns="http://www.w3.org/2000/svg" xmlns:xlink="http://www.w3.org/1999/xlink" x="0px" y="0px"
	 viewBox="0 0 72 72" style="enable-background:new 0 0 72 72;" xml:space="preserve">
<style type="text/css">
	.st0{fill:#FFFFFF;}
</style>
<g>
	<path class="st0" d="M36,4.95C18.88,4.95,4.95,18.88,4.95,36c0,17.12,13.93,31.05,31.05,31.05c17.12,0,31.05-13.93,31.05-31.05
		C67.05,18.88,53.12,4.95,36,4.95z M36,64.55C20.26,64.55,7.45,51.74,7.45,36C7.45,20.26,20.26,7.45,36,7.45
		c15.74,0,28.55,12.81,28.55,28.55C64.55,51.74,51.74,64.55,36,64.55z"/>
	<path class="st0" d="M33.02,17.13c-0.29,0-0.54,0.14-0.76,0.4c-0.21,0.27-0.32,0.59-0.32,0.96v8.83c0,0.37-0.11,0.68-0.32,0.95
		c-0.21,0.27-0.46,0.4-0.75,0.4c-0.29,0-0.54-0.13-0.76-0.4C29.9,28,29.8,27.68,29.8,27.32v-8.83c0-0.37-0.11-0.69-0.32-0.96
		c-0.21-0.27-0.46-0.4-0.75-0.4c-0.29,0-0.54,0.14-0.76,0.4c-0.21,0.27-0.32,0.59-0.32,0.96v8.83c0,0.37-0.11,0.68-0.32,0.95
		c-0.21,0.27-0.46,0.4-0.75,0.4c-0.29,0-0.54-0.13-0.76-0.4C25.6,28,25.5,27.68,25.5,27.32v-8.83c0-0.37-0.11-0.69-0.32-0.96
		c-0.21-0.27-0.46-0.4-0.75-0.4c-0.29,0-0.55,0.14-0.76,0.4c-0.21,0.27-0.32,0.59-0.32,0.96v13.58c0,0.86,0.2,1.65,0.6,2.35
		c0.4,0.71,0.91,1.2,1.55,1.48v18.92c0,0.74,0.21,1.37,0.64,1.91c0.42,0.54,0.93,0.8,1.51,0.8h2.15c0.58,0,1.08-0.27,1.51-0.8
		c0.43-0.54,0.64-1.17,0.64-1.91V35.91c0.64-0.28,1.15-0.78,1.55-1.48c0.4-0.71,0.6-1.49,0.6-2.35V18.49c0-0.37-0.11-0.69-0.32-0.96
		C33.56,17.27,33.31,17.13,33.02,17.13z"/>
	<path class="st0" d="M47.58,17.13h-4.29c-1.48,0-2.74,0.67-3.79,2c-1.05,1.33-1.58,2.93-1.58,4.79v11.37
		c0,0.19,0.05,0.34,0.16,0.48c0.11,0.14,0.23,0.2,0.38,0.2h3.76v18.86c0,0.74,0.21,1.37,0.64,1.91c0.42,0.54,0.93,0.8,1.51,0.8h2.15
		c0.58,0,1.09-0.27,1.51-0.8c0.42-0.54,0.64-1.17,0.64-1.91V18.49c0-0.37-0.11-0.69-0.32-0.96C48.12,17.27,47.87,17.13,47.58,17.13z
		"/>
</g>
</svg>
