<?xml version="1.0" encoding="utf-8"?>
<!-- Generator: Adobe Illustrator 23.0.3, SVG Export Plug-In . SVG Version: 6.00 Build 0)  -->
<svg version="1.1" id="Layer_1" xmlns="http://www.w3.org/2000/svg" xmlns:xlink="http://www.w3.org/1999/xlink" x="0px" y="0px"
	 viewBox="0 0 72 72" style="enable-background:new 0 0 72 72;" xml:space="preserve">
<style type="text/css">
	.st0{fill:#FFFFFF;}
	.st1{fill-rule:evenodd;clip-rule:evenodd;fill:#FFFFFF;}
</style>
<g>
	<path class="st0" d="M36,67.05C18.88,67.05,4.95,53.12,4.95,36C4.95,18.88,18.88,4.95,36,4.95S67.05,18.88,67.05,36
		C67.05,53.12,53.12,67.05,36,67.05z M36,7.45C20.26,7.45,7.45,20.26,7.45,36c0,15.74,12.81,28.55,28.55,28.55S64.55,51.74,64.55,36
		C64.55,20.26,51.74,7.45,36,7.45z"/>
	<g>
		<path class="st1" d="M29.65,33.5c-0.2,0.1-0.4,0.3-0.6,0.4c-0.3,0.3-0.6,0.7-0.7,1.1c0.6,1.1,1.2,2.2,1.8,3.3l0.1-0.1
			c0.1-0.1,0.2-0.2,0.3-0.3c0.1,0,0.3-0.2,0.3-0.3c-0.3-0.2-0.5-0.5-0.6-0.9c-0.2-0.6-0.3-1.2-0.1-1.8c0.1-0.3,0.2-0.5,0.4-0.7
			c0.1-0.1,0.2-0.2,0.3-0.3c0.1,0,0.1-0.1,0.2-0.1c0.1-0.1,0.1-0.2,0-0.2c-0.2-0.2-0.3-0.5-0.4-0.7c-0.2-0.6-0.3-1.3,0-1.9
			c0.1-0.3,0.3-0.5,0.5-0.7c0.1-0.1,0.2-0.2,0.3-0.3c0.1-0.1,0.1-0.1,0.2-0.2s0.1-0.2,0-0.2c-0.2-0.2-0.3-0.5-0.4-0.7
			c-0.2-0.6-0.2-1.3,0-1.9c0.1-0.3,0.3-0.5,0.5-0.7c0.1-0.1,0.2-0.2,0.3-0.3c0.1,0,0.1-0.1,0.2-0.1c0.1-0.1,0.1-0.2,0-0.2
			c-0.2-0.2-0.3-0.5-0.4-0.7c-0.2-0.6-0.2-1.3,0.1-1.8c0.1-0.3,0.3-0.5,0.6-0.7c0.1-0.1,0.2-0.2,0.3-0.3c0.1,0,0.1-0.1,0.2-0.1
			c0.1-0.1,0.1-0.2,0-0.2c-0.3-0.4-0.4-1-0.3-1.5c0.1-0.5,0.3-1,0.7-1.3c0.1-0.1,0.2-0.2,0.3-0.2c0.1-0.1,0.2-0.1,0.4-0.1
			c0.1,0,0.2,0.1,0.3,0.2c0.1,0.1,0,0.2-0.1,0.3c-0.1,0.2-0.3,0.4-0.4,0.6c-0.2,0.3-0.2,0.5-0.3,0.8c0,0.4,0.1,0.8,0.4,1.1
			c0.1,0.2,0.1,0.5-0.1,0.6c-0.2,0.1-0.3,0.3-0.4,0.4c-0.2,0.2-0.4,0.5-0.5,0.7c-0.1,0.3-0.2,0.6-0.1,0.9c0,0.5,0.2,1.1,0.5,1.5
			c0.1,0.1,0,0.2,0,0.2c-0.2,0.2-0.4,0.4-0.6,0.6c-0.4,0.5-0.6,1.1-0.5,1.7c0,0.5,0.2,1.1,0.6,1.5c0.1,0.1,0.1,0.2,0,0.2
			c-0.2,0.2-0.4,0.4-0.6,0.6c-0.4,0.5-0.5,1.1-0.5,1.7c0.1,0.5,0.3,1.1,0.6,1.5c0.1,0.1,0.1,0.2,0,0.2c-0.2,0.2-0.4,0.4-0.6,0.6
			c-0.4,0.5-0.5,1.1-0.4,1.7c0.1,0.5,0.3,1,0.7,1.4c0.1,0.1,0.1,0.2,0,0.2c-0.2,0.2-0.4,0.4-0.6,0.6c-0.2,0.2-0.4,0.4-0.5,0.7
			c-0.1,0.2-0.1,0.4-0.1,0.6c1.4,3,2.7,6.1,3.9,8.9c0.5,1.1,0.9,2.2,1.4,3.2c0.6-1.4,1.2-3,1.8-4.6c1.4-3.7,3-7.9,5-11.6
			c0.1-0.2,0.2-0.3,0.3-0.5c0-0.6-0.3-1-0.7-1.4c-0.2-0.2-0.4-0.3-0.6-0.4c0.7-0.5,1.1-1.2,0.9-2c-0.1-0.6-0.4-1.2-0.9-1.6
			c-0.2-0.2-0.4-0.3-0.6-0.4c0.6-0.5,0.9-1.2,0.8-2c-0.1-0.6-0.5-1.2-1-1.6c-0.2-0.2-0.4-0.3-0.6-0.4c0.6-0.5,0.8-1.2,0.6-2
			c-0.2-0.6-0.5-1.1-1-1.6c-0.1-0.1-0.3-0.2-0.4-0.3l-0.2-0.1l0.1-0.1c0.4-0.5,0.5-1.1,0.3-1.9c-0.2-0.6-0.6-1.1-1.1-1.6
			c-0.1-0.1-0.2-0.1-0.2-0.2s-0.1-0.3-0.1-0.4c-0.8-2.2-1.8-3.8-2.8-3.8s-2,1.5-2.8,3.8c-0.1,0.1-0.1,0.3-0.1,0.4
			c-0.1,0.1-0.2,0.1-0.2,0.2c-0.5,0.4-0.9,1-1.1,1.6c-0.2,0.7-0.1,1.4,0.3,1.9l0.1,0.1l-0.2,0.1c-0.1,0.1-0.3,0.2-0.4,0.3
			c-0.5,0.4-0.9,1-1,1.6c-0.2,0.8,0,1.5,0.6,2c-0.2,0.1-0.4,0.3-0.6,0.4c-0.5,0.4-0.9,1-1,1.6c-0.2,0.8,0.1,1.6,0.8,2
			c-0.2,0.1-0.4,0.3-0.6,0.4c-0.5,0.4-0.8,1-0.9,1.6C28.65,32.3,29.05,33.1,29.65,33.5z"/>
		<path class="st1" d="M43.95,33.3c0.1,0.1,0.2,0.3,0.3,0.4c0.6-0.9,1.1-1.8,1.7-2.6c0.8-2.2,1.8-4.3,3.3-6.2c0.2-0.2,0-0.5-0.3-0.5
			c-1.1,0.1-3.1,0.7-5.3,3.1c0,0.6-0.1,1.1-0.3,1.6c0.6,0.7,0.9,1.4,1,2.1C44.45,31.9,44.35,32.7,43.95,33.3z"/>
		<path class="st1" d="M25.85,31c0.6,0.8,1.3,1.7,1.9,2.6c0.1-0.1,0.1-0.2,0.2-0.3c-0.4-0.6-0.5-1.4-0.4-2.1c0.1-0.7,0.4-1.4,1-2
			c-0.2-0.5-0.3-1-0.3-1.6c-2.2-2.4-4.3-3-5.3-3.1c-0.3,0-0.4,0.3-0.3,0.5C24.05,26.8,25.05,28.9,25.85,31z"/>
		<path class="st1" d="M20.75,27.8c-0.1,0-0.1-0.1-0.2-0.1c-0.2,0-0.4,0.3-0.2,0.5c1.8,2.6,3.9,7.5,5,12.4c1.1,5,1.4,8.1,2.5,11.3
			c0.9,2.6,2.6,4.2,4.3,5.3c0.4,0.3,0.8,0.4,1.1,0.5c0-0.2,0.1-0.5,0.4-0.7c0.7-0.7,1.4-1.9,2.1-3.5
			C32.25,45.6,27.65,32.2,20.75,27.8z"/>
		<path class="st1" d="M51.45,27.8c-0.1,0-0.1,0-0.2,0c-8.9,5.6-12.6,25.9-16.8,30.1c-0.2,0.2,0,0.4,0.2,0.5
			c0.3,0.1,0.8,0.1,1.2,0.1c2.5,0,6.4-1.4,8.3-6.5c1.2-3.2,1.5-6.4,2.5-11.3c1.1-4.9,3.1-9.9,5-12.4
			C51.85,28.1,51.65,27.8,51.45,27.8z"/>
	</g>
</g>
</svg>
